<svg width="512" height="461" viewBox="0 0 512 461" fill="none" xmlns="http://www.w3.org/2000/svg">
<path d="M146.067 306.378C147.078 305.394 147.88 304.216 148.426 302.915C148.972 301.614 149.251 300.216 149.245 298.805V243.25C149.245 238.916 152.759 235.403 157.092 235.403H330.819C336.626 235.403 341.333 230.696 341.333 224.888V116.76C341.333 110.953 336.626 106.246 330.819 106.246H157.092C152.759 106.246 149.245 102.732 149.245 98.3987V42.6871C149.355 36.8807 144.737 32.0851 138.932 31.9755C137.494 31.9483 136.066 32.2164 134.735 32.7631C133.405 33.3099 132.201 34.1237 131.198 35.1542L3.13911 163.213C1.16012 165.161 0.0317667 167.813 0.000164032 170.589C-0.00500971 171.991 0.27 173.379 0.80905 174.673C1.3481 175.966 2.14031 177.139 3.13911 178.122L131.198 306.181C135.249 310.341 141.906 310.429 146.067 306.378Z" fill="white"/>
<path d="M365.933 457.045C364.922 456.061 364.12 454.883 363.574 453.582C363.028 452.281 362.749 450.883 362.755 449.472V393.917C362.755 389.583 359.241 386.07 354.908 386.07H181.181C175.374 386.07 170.667 381.363 170.667 375.555V267.427C170.667 261.62 175.374 256.913 181.181 256.913H354.908C359.241 256.913 362.755 253.399 362.755 249.066V193.354C362.645 187.548 367.263 182.752 373.068 182.643C374.506 182.615 375.934 182.883 377.265 183.43C378.595 183.977 379.799 184.791 380.802 185.821L508.861 313.88C510.84 315.828 511.968 318.48 512 321.256C512.005 322.658 511.73 324.046 511.191 325.34C510.652 326.633 509.86 327.806 508.861 328.789L380.802 456.848C376.751 461.008 370.094 461.096 365.933 457.045Z" fill="white"/>
</svg>
