<svg width="19" height="23" viewBox="0 0 19 23" fill="none" xmlns="http://www.w3.org/2000/svg">
<path d="M8.71036 0C8.71036 0 8.05774 1.85725 7.87949 2.42171C7.43386 2.11025 6.03661 1.14425 5.45586 0.742708C5.59003 1.51513 5.79703 2.77821 5.84207 3.04558C5.72324 2.95646 5.05528 2.37667 4.0452 1.90133C4.60965 2.55492 5.0112 3.565 5.26324 4.3815C6.79323 3.5123 8.52333 3.05682 10.283 3.05996C11.2193 3.05996 12.1422 3.19413 13.0181 3.44617C13.1072 2.599 13.2854 1.56017 13.6717 0.803083C12.7948 1.50075 12.2591 2.24346 12.1853 2.33258C12.1556 2.15433 12.0962 0.875917 12.0224 0C11.6659 0.386208 10.2974 1.932 10.0453 2.16967C9.86803 1.85725 8.71036 0 8.71036 0ZM10.3146 3.69917C8.71036 3.69917 7.15211 4.06908 5.81428 4.76771C6.49757 4.81179 6.98728 5.40788 7.15115 5.88321C6.6164 5.45196 5.76924 5.244 5.24886 5.80846C4.75915 6.37292 4.8042 7.42613 5.2939 8.27329C4.15061 7.6935 4.14965 6.17933 4.5512 5.52575C3.23713 6.47839 2.17581 7.73776 1.45961 9.19425L2.48503 9.35908C1.2967 10.7257 0.46582 13.1474 0.46582 14.2907L2.1429 13.7703C1.84582 14.7804 1.75861 18.1805 2.7687 19.8892C2.7687 19.8892 4.0912 18.9693 5.59099 16.6664C6.2139 18.746 5.93215 20.4853 5.59099 22.1931C8.29349 23.7082 11.4272 22.8601 13.2692 21.5385L13.6113 22.8323C15.7656 21.4053 16.9539 19.3555 17.1763 16.9635L17.9784 17.8547C19.2108 14.1853 18.2467 11.2585 16.4786 8.74862L16.4039 9.35908L15.6468 8.52533C15.6468 8.52533 15.8097 8.45154 15.9439 8.27329C15.9726 8.19854 15.8998 7.79892 15.5883 7.53154C15.2912 7.60629 15.0517 7.78454 14.9328 7.96279C14.667 7.74056 14.3657 7.56465 14.0416 7.44242C14.101 7.51621 14.6204 8.1995 14.6645 8.40746C15.1111 8.77929 15.7206 9.20958 16.1212 9.74433C15.7953 9.35813 14.2198 9.26804 13.5068 9.66958C13.5068 9.66958 12.7938 8.83775 12.1402 8.25796C12.0061 7.76825 12.4527 7.33796 12.4527 7.33796C12.4527 7.33796 11.9927 7.30921 11.5614 7.74046C10.9078 7.24979 10.076 7.0265 10.076 7.0265C9.15503 7.16067 8.53115 7.81233 8.53115 7.81233C8.73911 7.9465 9.02182 8.12571 9.27482 8.21483C9.76453 8.42279 10.2389 8.34804 10.5513 8.34804C10.8034 8.34804 11.1608 8.42279 11.1608 8.42279C11.1608 8.42279 11.7694 8.89717 12.6606 9.92258C11.294 9.3725 9.86707 9.982 8.85699 9.49133C7.66865 8.89717 7.75874 7.96279 7.75874 7.96279C7.75874 7.96279 6.95757 7.85738 6.95757 7.82767C6.95757 7.82767 7.54982 7.04183 8.44107 6.7735L7.9964 6.38825C8.53115 5.94263 9.46649 5.34846 10.9816 5.19992C10.9816 5.19992 11.6362 5.451 13.0037 6.43138C13.226 6.11896 13.2989 5.46538 13.2989 5.46538C13.9965 5.70304 15.4235 6.74283 15.9879 7.36671C15.6765 6.63933 15.4522 6.19467 15.3784 5.43758C15.0363 5.09546 14.1901 4.38246 12.4373 3.95121C12.72 4.531 12.6903 5.01975 12.6903 5.01975C12.3645 4.5885 11.6793 3.9215 11.2049 3.74325C10.9222 3.72888 10.6251 3.69821 10.3137 3.69821L10.3146 3.69917ZM13.4493 10.4727C13.8105 10.7609 14.2173 10.9867 14.653 11.1406V12.4325C14.2074 12.8187 12.7507 14.0377 11.7703 13.9332C11.2212 12.879 10.7018 11.914 10.7018 11.914C10.7018 11.914 12.2016 10.6509 13.4493 10.4727ZM16.3004 10.5024C16.746 11.5863 16.8658 12.879 16.3751 13.7406C16.1068 13.1608 15.7656 12.833 15.4091 12.4468V11.156C15.4091 11.156 15.8097 10.903 16.3004 10.5024ZM15.3641 13.7559C15.8097 14.2456 15.8998 14.7794 15.8998 14.7794C15.7062 15.8633 15.0986 16.5485 14.653 16.8303C14.6971 16.0435 14.4882 15.3745 14.4882 15.3745C14.1623 15.731 13.4052 16.0866 12.9587 16.1757L12.2907 14.9299C13.0784 14.8992 14.4 13.7856 14.4 13.7856L15.3641 13.7559Z" fill="#BFBFBF"/>
</svg>
