<svg width="1099" height="456" viewBox="0 0 1099 456" fill="none" xmlns="http://www.w3.org/2000/svg">
<line x1="4.37114e-08" y1="33.5" x2="1069" y2="33.5001" stroke="#D9D9D9"/>
<line x1="4.45036e-08" y1="87.6434" x2="1069" y2="87.6435" stroke="#D9D9D9"/>
<line x1="4.45036e-08" y1="141.784" x2="1069" y2="141.784" stroke="#D9D9D9"/>
<line x1="4.45036e-08" y1="195.928" x2="1069" y2="195.928" stroke="#D9D9D9"/>
<line x1="4.45036e-08" y1="250.072" x2="1069" y2="250.072" stroke="#D9D9D9"/>
<line x1="4.45036e-08" y1="304.215" x2="1069" y2="304.215" stroke="#D9D9D9"/>
<line x1="4.45036e-08" y1="358.359" x2="1069" y2="358.359" stroke="#D9D9D9"/>
<line x1="4.45036e-08" y1="412.5" x2="1069" y2="412.5" stroke="#D9D9D9"/>
<rect x="38" y="42.9354" width="44.4156" height="370.13" rx="5" fill="#005422"/>
<path d="M62.4066 382.091V393H60.4304V384.014H60.3665L57.815 385.644V383.833L60.5263 382.091H62.4066Z" fill="white"/>
<path d="M54.217 423.792H55.7369V428.863C55.7369 429.331 55.6316 429.739 55.4209 430.084C55.2125 430.43 54.9225 430.696 54.5508 430.883C54.1791 431.07 53.7471 431.164 53.2547 431.164C52.8167 431.164 52.419 431.087 52.0615 430.933C51.7064 430.777 51.4247 430.54 51.2163 430.223C51.008 429.903 50.905 429.502 50.9074 429.019H52.4379C52.4426 429.211 52.4817 429.375 52.5551 429.513C52.6309 429.648 52.7338 429.752 52.864 429.825C52.9966 429.896 53.1529 429.932 53.3328 429.932C53.5222 429.932 53.682 429.891 53.8122 429.811C53.9448 429.728 54.0454 429.607 54.114 429.449C54.1827 429.29 54.217 429.095 54.217 428.863V423.792ZM58.3618 431.064H56.714L59.2247 423.792H61.2062L63.7133 431.064H62.0656L60.2439 425.454H60.1871L58.3618 431.064ZM58.2588 428.206H62.1508V429.406H58.2588V428.206ZM70.7718 423.792V431.064H69.4437L66.2796 426.487H66.2263V431.064H64.6887V423.792H66.0381L69.1773 428.366H69.2412V423.792H70.7718Z" fill="#005422"/>
<path d="M55.6291 10.6278C56.0032 10.6278 56.363 10.6906 56.7086 10.8161C57.0567 10.9415 57.3668 11.1416 57.639 11.4162C57.9137 11.6908 58.1303 12.0554 58.2889 12.5099C58.4499 12.9621 58.5316 13.5173 58.5339 14.1754C58.5339 14.7933 58.4641 15.3449 58.3244 15.8303C58.1871 16.3132 57.9894 16.724 57.7314 17.0625C57.4733 17.401 57.162 17.6591 56.7974 17.8366C56.4328 18.0118 56.0256 18.0994 55.5758 18.0994C55.0905 18.0994 54.662 18.0059 54.2903 17.8189C53.9186 17.6295 53.6192 17.3726 53.3919 17.0483C53.167 16.7216 53.0309 16.3546 52.9835 15.9474H54.4998C54.559 16.2126 54.6833 16.4186 54.8727 16.5653C55.0621 16.7098 55.2965 16.782 55.5758 16.782C56.0493 16.782 56.4092 16.576 56.6554 16.1641C56.9016 15.7498 57.0259 15.1828 57.0282 14.4631H56.9785C56.8696 14.6761 56.7228 14.8596 56.5382 15.0135C56.3535 15.165 56.1416 15.2822 55.9025 15.3651C55.6658 15.4479 55.4137 15.4893 55.1461 15.4893C54.7176 15.4893 54.3353 15.3887 53.9991 15.1875C53.663 14.9863 53.3978 14.7093 53.2037 14.3565C53.0095 14.0038 52.9125 13.6013 52.9125 13.1491C52.9101 12.6615 53.0226 12.227 53.2498 11.8459C53.4771 11.4647 53.7943 11.1664 54.2015 10.951C54.6111 10.7332 55.087 10.6255 55.6291 10.6278ZM55.6398 11.8352C55.4006 11.8352 55.1876 11.892 55.0005 12.0057C54.8159 12.1193 54.6691 12.272 54.5602 12.4638C54.4537 12.6555 54.4016 12.8698 54.404 13.1065C54.404 13.3456 54.456 13.5611 54.5602 13.7528C54.6667 13.9422 54.8112 14.0937 54.9934 14.2074C55.1781 14.3187 55.3888 14.3743 55.6255 14.3743C55.8031 14.3743 55.9676 14.3411 56.1192 14.2749C56.2707 14.2086 56.4021 14.1174 56.5133 14.0014C56.627 13.883 56.7157 13.7469 56.7797 13.593C56.8436 13.4392 56.8755 13.2758 56.8755 13.103C56.8732 12.8733 56.8187 12.6626 56.7122 12.4709C56.6057 12.2791 56.4589 12.1252 56.2719 12.0092C56.0848 11.8932 55.8741 11.8352 55.6398 11.8352ZM60.3047 18.0923C60.0704 18.0923 59.8691 18.0095 59.701 17.8438C59.5353 17.6757 59.4525 17.4744 59.4525 17.2401C59.4525 17.008 59.5353 16.8092 59.701 16.6435C59.8691 16.4777 60.0704 16.3949 60.3047 16.3949C60.532 16.3949 60.7309 16.4777 60.9013 16.6435C61.0718 16.8092 61.157 17.008 61.157 17.2401C61.157 17.3963 61.1168 17.5395 61.0363 17.6697C60.9581 17.7976 60.8552 17.9006 60.7273 17.9787C60.5995 18.0545 60.4586 18.0923 60.3047 18.0923ZM62.4848 18V16.892L65.0736 14.495C65.2938 14.282 65.4784 14.0902 65.6276 13.9197C65.7791 13.7493 65.8939 13.5824 65.972 13.419C66.0502 13.2533 66.0892 13.0746 66.0892 12.8828C66.0892 12.6697 66.0407 12.4863 65.9436 12.3324C65.8466 12.1761 65.714 12.0566 65.5459 11.9737C65.3778 11.8885 65.1872 11.8459 64.9742 11.8459C64.7516 11.8459 64.5575 11.8909 64.3918 11.9808C64.2261 12.0708 64.0982 12.1998 64.0083 12.3679C63.9183 12.536 63.8733 12.736 63.8733 12.968H62.4138C62.4138 12.4922 62.5215 12.0791 62.7369 11.7287C62.9524 11.3783 63.2542 11.1072 63.6425 10.9155C64.0307 10.7237 64.4782 10.6278 64.9848 10.6278C65.5057 10.6278 65.959 10.7202 66.3449 10.9048C66.7332 11.0871 67.035 11.3404 67.2504 11.6648C67.4659 11.9891 67.5736 12.3608 67.5736 12.7798C67.5736 13.0545 67.5191 13.3255 67.4102 13.593C67.3037 13.8606 67.1131 14.1577 66.8385 14.4844C66.5639 14.8087 66.1768 15.1982 65.6773 15.6527L64.6155 16.6932V16.7429H67.6695V18H62.4848Z" fill="#005422"/>
<rect x="213" y="116.961" width="44.4156" height="296.104" rx="5" fill="#005422"/>
<path d="M234.885 393.149C234.118 393.149 233.436 393.018 232.839 392.755C232.246 392.492 231.777 392.126 231.433 391.658C231.088 391.189 230.906 390.647 230.884 390.033H232.887C232.905 390.328 233.002 390.585 233.18 390.805C233.358 391.022 233.594 391.191 233.888 391.311C234.183 391.432 234.513 391.493 234.879 391.493C235.27 391.493 235.616 391.425 235.918 391.29C236.22 391.152 236.456 390.96 236.626 390.715C236.797 390.47 236.88 390.187 236.877 389.868C236.88 389.538 236.795 389.246 236.621 388.994C236.447 388.742 236.195 388.545 235.865 388.403C235.538 388.261 235.144 388.19 234.682 388.19H233.718V386.667H234.682C235.062 386.667 235.394 386.601 235.678 386.469C235.966 386.338 236.191 386.153 236.355 385.915C236.518 385.674 236.598 385.395 236.594 385.079C236.598 384.77 236.529 384.502 236.387 384.275C236.248 384.044 236.051 383.865 235.795 383.737C235.543 383.609 235.247 383.545 234.906 383.545C234.572 383.545 234.263 383.605 233.979 383.726C233.695 383.847 233.466 384.019 233.292 384.243C233.118 384.463 233.026 384.726 233.015 385.031H231.113C231.127 384.42 231.303 383.884 231.641 383.423C231.982 382.957 232.436 382.595 233.004 382.336C233.572 382.073 234.21 381.942 234.917 381.942C235.645 381.942 236.277 382.078 236.813 382.352C237.353 382.622 237.77 382.986 238.065 383.444C238.359 383.902 238.507 384.408 238.507 384.962C238.51 385.576 238.329 386.091 237.963 386.507C237.601 386.922 237.125 387.194 236.536 387.322V387.407C237.303 387.513 237.891 387.798 238.299 388.259C238.711 388.717 238.915 389.287 238.912 389.969C238.912 390.58 238.738 391.127 238.39 391.61C238.045 392.089 237.569 392.466 236.962 392.739C236.358 393.012 235.666 393.149 234.885 393.149Z" fill="white"/>
<path d="M223.932 423.792H225.828L227.831 428.678H227.916L229.919 423.792H231.816V431.064H230.324V426.331H230.264L228.382 431.029H227.366L225.484 426.313H225.424V431.064H223.932V423.792ZM234.436 431.064H232.788L235.299 423.792H237.281L239.788 431.064H238.14L236.318 425.454H236.261L234.436 431.064ZM234.333 428.206H238.225V429.406H234.333V428.206ZM240.763 431.064V423.792H243.632C244.182 423.792 244.65 423.89 245.039 424.086C245.429 424.281 245.726 424.556 245.93 424.914C246.136 425.269 246.239 425.687 246.239 426.167C246.239 426.65 246.135 427.066 245.926 427.414C245.718 427.76 245.416 428.025 245.021 428.209C244.628 428.394 244.152 428.486 243.593 428.486H241.672V427.251H243.345C243.638 427.251 243.882 427.21 244.076 427.13C244.27 427.049 244.415 426.929 244.509 426.768C244.606 426.607 244.655 426.407 244.655 426.167C244.655 425.926 244.606 425.722 244.509 425.557C244.415 425.391 244.269 425.265 244.073 425.18C243.879 425.093 243.633 425.049 243.338 425.049H242.301V431.064H240.763ZM244.691 427.755L246.498 431.064H244.801L243.032 427.755H244.691Z" fill="#005422"/>
<path d="M230.352 18.0994C229.806 18.0994 229.319 18.0107 228.893 17.8331C228.469 17.6532 228.136 17.4081 227.895 17.098C227.654 16.7879 227.533 16.4363 227.533 16.0433C227.533 15.7403 227.601 15.4621 227.739 15.2088C227.878 14.9531 228.068 14.7412 228.307 14.5732C228.546 14.4027 228.814 14.2938 229.109 14.2464V14.1967C228.721 14.1186 228.406 13.9304 228.165 13.6321C227.923 13.3314 227.803 12.9822 227.803 12.5845C227.803 12.2081 227.913 11.8731 228.133 11.5795C228.353 11.2836 228.655 11.0516 229.038 10.8835C229.424 10.7131 229.862 10.6278 230.352 10.6278C230.842 10.6278 231.279 10.7131 231.663 10.8835C232.049 11.054 232.352 11.2872 232.572 11.5831C232.792 11.8767 232.903 12.2105 232.906 12.5845C232.903 12.9846 232.78 13.3338 232.536 13.6321C232.292 13.9304 231.98 14.1186 231.599 14.1967V14.2464C231.89 14.2938 232.154 14.4027 232.391 14.5732C232.63 14.7412 232.819 14.9531 232.959 15.2088C233.101 15.4621 233.173 15.7403 233.176 16.0433C233.173 16.4363 233.051 16.7879 232.81 17.098C232.568 17.4081 232.234 17.6532 231.808 17.8331C231.385 18.0107 230.899 18.0994 230.352 18.0994ZM230.352 16.9702C230.596 16.9702 230.809 16.9264 230.992 16.8388C231.174 16.7488 231.316 16.6257 231.418 16.4695C231.522 16.3108 231.574 16.1286 231.574 15.9226C231.574 15.7119 231.521 15.526 231.414 15.3651C231.308 15.2017 231.163 15.0739 230.981 14.9815C230.799 14.8868 230.589 14.8395 230.352 14.8395C230.118 14.8395 229.908 14.8868 229.724 14.9815C229.539 15.0739 229.394 15.2017 229.287 15.3651C229.183 15.526 229.131 15.7119 229.131 15.9226C229.131 16.1286 229.182 16.3108 229.283 16.4695C229.385 16.6257 229.529 16.7488 229.713 16.8388C229.898 16.9264 230.111 16.9702 230.352 16.9702ZM230.352 13.7209C230.556 13.7209 230.737 13.6795 230.896 13.5966C231.054 13.5137 231.179 13.3989 231.269 13.2521C231.359 13.1054 231.404 12.9361 231.404 12.7443C231.404 12.5549 231.359 12.3892 231.269 12.2472C231.179 12.1027 231.056 11.9903 230.899 11.9098C230.743 11.8269 230.561 11.7855 230.352 11.7855C230.146 11.7855 229.964 11.8269 229.806 11.9098C229.647 11.9903 229.523 12.1027 229.433 12.2472C229.345 12.3892 229.301 12.5549 229.301 12.7443C229.301 12.9361 229.346 13.1054 229.436 13.2521C229.526 13.3989 229.65 13.5137 229.809 13.5966C229.968 13.6795 230.149 13.7209 230.352 13.7209ZM235.044 18.0923C234.81 18.0923 234.608 18.0095 234.44 17.8438C234.275 17.6757 234.192 17.4744 234.192 17.2401C234.192 17.008 234.275 16.8092 234.44 16.6435C234.608 16.4777 234.81 16.3949 235.044 16.3949C235.271 16.3949 235.47 16.4777 235.641 16.6435C235.811 16.8092 235.896 17.008 235.896 17.2401C235.896 17.3963 235.856 17.5395 235.776 17.6697C235.697 17.7976 235.594 17.9006 235.467 17.9787C235.339 18.0545 235.198 18.0923 235.044 18.0923ZM239.722 18.0994C239.348 18.0971 238.987 18.0343 238.639 17.9112C238.294 17.7881 237.983 17.5881 237.709 17.3111C237.434 17.0341 237.216 16.6671 237.055 16.2102C236.897 15.7533 236.817 15.1922 236.817 14.527C236.82 13.9162 236.89 13.3705 237.027 12.8899C237.167 12.407 237.366 11.9974 237.624 11.6612C237.884 11.325 238.195 11.0694 238.558 10.8942C238.92 10.7166 239.326 10.6278 239.776 10.6278C240.261 10.6278 240.689 10.7225 241.061 10.9119C241.433 11.099 241.731 11.3535 241.956 11.6754C242.183 11.9974 242.321 12.3584 242.368 12.7585H240.852C240.792 12.5052 240.668 12.3063 240.479 12.1619C240.289 12.0175 240.055 11.9453 239.776 11.9453C239.302 11.9453 238.942 12.1513 238.696 12.5632C238.452 12.9751 238.328 13.535 238.323 14.2429H238.373C238.482 14.0275 238.629 13.844 238.813 13.6925C239 13.5386 239.212 13.4214 239.449 13.3409C239.688 13.258 239.94 13.2166 240.205 13.2166C240.636 13.2166 241.02 13.3184 241.356 13.522C241.692 13.7232 241.957 14.0002 242.151 14.353C242.345 14.7057 242.442 15.1094 242.442 15.5639C242.442 16.0563 242.328 16.4943 242.098 16.8778C241.871 17.2614 241.552 17.562 241.143 17.7798C240.736 17.9953 240.262 18.1018 239.722 18.0994ZM239.715 16.892C239.952 16.892 240.164 16.8352 240.351 16.7216C240.538 16.608 240.685 16.4541 240.791 16.2599C240.898 16.0658 240.951 15.848 240.951 15.6065C240.951 15.3651 240.898 15.1484 240.791 14.9567C240.687 14.7649 240.543 14.6122 240.358 14.4986C240.173 14.3849 239.963 14.3281 239.726 14.3281C239.548 14.3281 239.384 14.3613 239.232 14.4276C239.083 14.4938 238.952 14.5862 238.838 14.7045C238.727 14.8229 238.639 14.9602 238.575 15.1165C238.511 15.2704 238.479 15.4349 238.479 15.6101C238.479 15.8445 238.533 16.0587 238.639 16.2528C238.748 16.447 238.895 16.602 239.08 16.718C239.267 16.834 239.478 16.892 239.715 16.892Z" fill="#005422"/>
<rect x="127" y="148.051" width="44.4156" height="266.493" rx="5" fill="#70AD47"/>
<path d="M145.969 393V391.572L149.757 387.86C150.119 387.494 150.421 387.169 150.662 386.885C150.904 386.601 151.085 386.326 151.206 386.059C151.326 385.793 151.387 385.509 151.387 385.207C151.387 384.863 151.309 384.568 151.152 384.323C150.996 384.074 150.781 383.882 150.508 383.748C150.234 383.613 149.924 383.545 149.576 383.545C149.217 383.545 148.903 383.62 148.633 383.769C148.363 383.914 148.153 384.122 148.004 384.392C147.859 384.662 147.786 384.983 147.786 385.356H145.906C145.906 384.664 146.064 384.062 146.38 383.55C146.696 383.039 147.131 382.643 147.685 382.363C148.242 382.082 148.881 381.942 149.602 381.942C150.334 381.942 150.977 382.078 151.531 382.352C152.085 382.625 152.514 383 152.82 383.476C153.129 383.952 153.283 384.495 153.283 385.106C153.283 385.514 153.205 385.915 153.049 386.31C152.892 386.704 152.617 387.141 152.223 387.62C151.832 388.099 151.284 388.68 150.577 389.362L148.697 391.274V391.349H153.448V393H145.969Z" fill="white"/>
<path d="M141.11 431.064V423.792H145.925V425.059H142.647V426.792H145.605V428.06H142.647V431.064H141.11ZM147.059 431.064V423.792H151.96V425.059H148.597V426.792H151.708V428.06H148.597V429.797H151.974V431.064H147.059ZM153.282 431.064V423.792H156.194C156.729 423.792 157.176 423.871 157.533 424.03C157.891 424.188 158.159 424.408 158.339 424.69C158.519 424.97 158.609 425.291 158.609 425.656C158.609 425.94 158.552 426.19 158.439 426.405C158.325 426.618 158.169 426.794 157.97 426.931C157.773 427.066 157.548 427.162 157.295 427.219V427.29C157.572 427.301 157.831 427.38 158.073 427.524C158.317 427.668 158.514 427.871 158.666 428.131C158.817 428.389 158.893 428.697 158.893 429.055C158.893 429.44 158.797 429.785 158.606 430.088C158.416 430.389 158.136 430.626 157.764 430.802C157.392 430.977 156.934 431.064 156.39 431.064H153.282ZM154.82 429.807H156.074C156.502 429.807 156.815 429.726 157.011 429.562C157.208 429.397 157.306 429.176 157.306 428.902C157.306 428.701 157.257 428.523 157.16 428.369C157.063 428.215 156.925 428.095 156.745 428.007C156.567 427.919 156.355 427.876 156.109 427.876H154.82V429.807ZM154.82 426.835H155.96C156.171 426.835 156.358 426.798 156.521 426.725C156.687 426.649 156.817 426.543 156.912 426.405C157.009 426.268 157.057 426.104 157.057 425.912C157.057 425.649 156.964 425.437 156.777 425.276C156.592 425.115 156.329 425.035 155.988 425.035H154.82V426.835Z" fill="#005422"/>
<path d="M143.42 18L146.435 12.0341V11.9844H142.923V10.7273H148.026V12.0021L145.007 18H143.42ZM148.828 18.0923C148.594 18.0923 148.393 18.0095 148.224 17.8438C148.059 17.6757 147.976 17.4744 147.976 17.2401C147.976 17.008 148.059 16.8092 148.224 16.6435C148.393 16.4777 148.594 16.3949 148.828 16.3949C149.055 16.3949 149.254 16.4777 149.425 16.6435C149.595 16.8092 149.68 17.008 149.68 17.2401C149.68 17.3963 149.64 17.5395 149.56 17.6697C149.482 17.7976 149.379 17.9006 149.251 17.9787C149.123 18.0545 148.982 18.0923 148.828 18.0923ZM150.898 16.7216V15.5107L153.934 10.7273H154.978V12.4034H154.361L152.446 15.4325V15.4893H156.761V16.7216H150.898ZM154.389 18V16.3523L154.417 15.8161V10.7273H155.859V18H154.389Z" fill="#005422"/>
<rect x="299" y="207.273" width="44.4156" height="207.273" rx="5" fill="#E69138"/>
<path d="M316.772 390.976V389.404L321.401 382.091H322.712V384.328H321.913L318.797 389.266V389.351H325.258V390.976H316.772ZM321.977 393V390.496L321.998 389.793V382.091H323.862V393H321.977Z" fill="white"/>
<path d="M313.139 431.064H311.491L314.002 423.792H315.983L318.49 431.064H316.843L315.021 425.454H314.964L313.139 431.064ZM313.036 428.206H316.928V429.406H313.036V428.206ZM319.466 431.064V423.792H322.335C322.887 423.792 323.357 423.897 323.745 424.108C324.133 424.316 324.429 424.606 324.633 424.978C324.839 425.347 324.941 425.773 324.941 426.256C324.941 426.739 324.837 427.165 324.629 427.535C324.421 427.904 324.119 428.192 323.723 428.398C323.33 428.604 322.855 428.706 322.296 428.706H320.467V427.474H322.047C322.343 427.474 322.587 427.423 322.779 427.322C322.973 427.217 323.117 427.074 323.212 426.892C323.309 426.707 323.358 426.495 323.358 426.256C323.358 426.015 323.309 425.804 323.212 425.624C323.117 425.442 322.973 425.301 322.779 425.202C322.585 425.1 322.339 425.049 322.04 425.049H321.003V431.064H319.466ZM326.04 431.064V423.792H328.91C329.459 423.792 329.928 423.89 330.316 424.086C330.706 424.281 331.004 424.556 331.207 424.914C331.413 425.269 331.516 425.687 331.516 426.167C331.516 426.65 331.412 427.066 331.204 427.414C330.995 427.76 330.693 428.025 330.298 428.209C329.905 428.394 329.429 428.486 328.871 428.486H326.949V427.251H328.622C328.915 427.251 329.159 427.21 329.353 427.13C329.548 427.049 329.692 426.929 329.787 426.768C329.884 426.607 329.932 426.407 329.932 426.167C329.932 425.926 329.884 425.722 329.787 425.557C329.692 425.391 329.546 425.265 329.35 425.18C329.156 425.093 328.911 425.049 328.615 425.049H327.578V431.064H326.04ZM329.968 427.755L331.775 431.064H330.078L328.309 427.755H329.968Z" fill="#005422"/>
<path d="M317.521 18.0994C317.147 18.0971 316.786 18.0343 316.438 17.9112C316.093 17.7881 315.782 17.5881 315.508 17.3111C315.233 17.0341 315.015 16.6671 314.854 16.2102C314.696 15.7533 314.616 15.1922 314.616 14.527C314.619 13.9162 314.689 13.3705 314.826 12.8899C314.966 12.407 315.165 11.9974 315.423 11.6612C315.683 11.325 315.994 11.0694 316.356 10.8942C316.719 10.7166 317.125 10.6278 317.575 10.6278C318.06 10.6278 318.488 10.7225 318.86 10.9119C319.232 11.099 319.53 11.3535 319.755 11.6754C319.982 11.9974 320.12 12.3584 320.167 12.7585H318.651C318.591 12.5052 318.467 12.3063 318.278 12.1619C318.088 12.0175 317.854 11.9453 317.575 11.9453C317.101 11.9453 316.741 12.1513 316.495 12.5632C316.251 12.9751 316.127 13.535 316.122 14.2429H316.172C316.281 14.0275 316.428 13.844 316.612 13.6925C316.799 13.5386 317.011 13.4214 317.248 13.3409C317.487 13.258 317.739 13.2166 318.004 13.2166C318.435 13.2166 318.819 13.3184 319.155 13.522C319.491 13.7232 319.756 14.0002 319.95 14.353C320.144 14.7057 320.241 15.1094 320.241 15.5639C320.241 16.0563 320.127 16.4943 319.897 16.8778C319.67 17.2614 319.351 17.562 318.942 17.7798C318.535 17.9953 318.061 18.1018 317.521 18.0994ZM317.514 16.892C317.751 16.892 317.963 16.8352 318.15 16.7216C318.337 16.608 318.484 16.4541 318.59 16.2599C318.697 16.0658 318.75 15.848 318.75 15.6065C318.75 15.3651 318.697 15.1484 318.59 14.9567C318.486 14.7649 318.342 14.6122 318.157 14.4986C317.972 14.3849 317.762 14.3281 317.525 14.3281C317.347 14.3281 317.183 14.3613 317.031 14.4276C316.882 14.4938 316.751 14.5862 316.637 14.7045C316.526 14.8229 316.438 14.9602 316.374 15.1165C316.31 15.2704 316.278 15.4349 316.278 15.6101C316.278 15.8445 316.332 16.0587 316.438 16.2528C316.547 16.447 316.694 16.602 316.879 16.718C317.066 16.834 317.277 16.892 317.514 16.892ZM322.027 18.0923C321.793 18.0923 321.592 18.0095 321.424 17.8438C321.258 17.6757 321.175 17.4744 321.175 17.2401C321.175 17.008 321.258 16.8092 321.424 16.6435C321.592 16.4777 321.793 16.3949 322.027 16.3949C322.255 16.3949 322.453 16.4777 322.624 16.6435C322.794 16.8092 322.88 17.008 322.88 17.2401C322.88 17.3963 322.839 17.5395 322.759 17.6697C322.681 17.7976 322.578 17.9006 322.45 17.9787C322.322 18.0545 322.181 18.0923 322.027 18.0923ZM326.463 10.7273V18H324.926V12.1868H324.883L323.218 13.2308V11.8672L325.018 10.7273H326.463Z" fill="#005422"/>
<rect x="385" y="190.987" width="44.4156" height="222.078" rx="5" fill="#E69138"/>
<path d="M406.762 393.149C406.052 393.149 405.416 393.016 404.855 392.75C404.294 392.48 403.848 392.11 403.518 391.642C403.191 391.173 403.017 390.637 402.996 390.033H404.914C404.949 390.48 405.143 390.846 405.494 391.13C405.846 391.411 406.268 391.551 406.762 391.551C407.149 391.551 407.494 391.462 407.795 391.285C408.097 391.107 408.335 390.86 408.509 390.544C408.683 390.228 408.768 389.868 408.765 389.463C408.768 389.051 408.681 388.685 408.504 388.366C408.326 388.046 408.083 387.796 407.774 387.615C407.465 387.43 407.11 387.338 406.709 387.338C406.382 387.334 406.061 387.395 405.745 387.519C405.429 387.643 405.178 387.806 404.994 388.009L403.209 387.716L403.779 382.091H410.107V383.742H405.414L405.1 386.635H405.164C405.366 386.397 405.652 386.2 406.022 386.043C406.391 385.884 406.796 385.804 407.236 385.804C407.897 385.804 408.486 385.96 409.005 386.272C409.523 386.581 409.931 387.007 410.23 387.551C410.528 388.094 410.677 388.716 410.677 389.415C410.677 390.136 410.51 390.779 410.176 391.343C409.846 391.904 409.386 392.347 408.797 392.67C408.211 392.989 407.533 393.149 406.762 393.149Z" fill="white"/>
<path d="M395.704 423.792H397.6L399.603 428.678H399.688L401.691 423.792H403.587V431.064H402.096V426.331H402.035L400.153 431.029H399.138L397.255 426.313H397.195V431.064H395.704V423.792ZM406.208 431.064H404.56L407.07 423.792H409.052L411.559 431.064H409.911L408.09 425.454H408.033L406.208 431.064ZM406.105 428.206H409.997V429.406H406.105V428.206ZM411.366 423.792H413.088L414.747 426.924H414.818L416.476 423.792H418.199L415.546 428.493V431.064H414.019V428.493L411.366 423.792Z" fill="#005422"/>
<path d="M402.544 18.0994C402.17 18.0971 401.809 18.0343 401.461 17.9112C401.115 17.7881 400.805 17.5881 400.53 17.3111C400.256 17.0341 400.038 16.6671 399.877 16.2102C399.718 15.7533 399.639 15.1922 399.639 14.527C399.641 13.9162 399.711 13.3705 399.848 12.8899C399.988 12.407 400.187 11.9974 400.445 11.6612C400.705 11.325 401.017 11.0694 401.379 10.8942C401.741 10.7166 402.147 10.6278 402.597 10.6278C403.082 10.6278 403.511 10.7225 403.883 10.9119C404.254 11.099 404.553 11.3535 404.777 11.6754C405.005 11.9974 405.142 12.3584 405.189 12.7585H403.673C403.614 12.5052 403.49 12.3063 403.3 12.1619C403.111 12.0175 402.876 11.9453 402.597 11.9453C402.124 11.9453 401.764 12.1513 401.518 12.5632C401.274 12.9751 401.149 13.535 401.145 14.2429H401.194C401.303 14.0275 401.45 13.844 401.635 13.6925C401.822 13.5386 402.034 13.4214 402.27 13.3409C402.509 13.258 402.762 13.2166 403.027 13.2166C403.458 13.2166 403.841 13.3184 404.177 13.522C404.513 13.7232 404.779 14.0002 404.973 14.353C405.167 14.7057 405.264 15.1094 405.264 15.5639C405.264 16.0563 405.149 16.4943 404.919 16.8778C404.692 17.2614 404.374 17.562 403.964 17.7798C403.557 17.9953 403.084 18.1018 402.544 18.0994ZM402.537 16.892C402.773 16.892 402.985 16.8352 403.172 16.7216C403.359 16.608 403.506 16.4541 403.613 16.2599C403.719 16.0658 403.772 15.848 403.772 15.6065C403.772 15.3651 403.719 15.1484 403.613 14.9567C403.509 14.7649 403.364 14.6122 403.179 14.4986C402.995 14.3849 402.784 14.3281 402.547 14.3281C402.37 14.3281 402.205 14.3613 402.054 14.4276C401.905 14.4938 401.773 14.5862 401.66 14.7045C401.548 14.8229 401.461 14.9602 401.397 15.1165C401.333 15.2704 401.301 15.4349 401.301 15.6101C401.301 15.8445 401.354 16.0587 401.461 16.2528C401.57 16.447 401.716 16.602 401.901 16.718C402.088 16.834 402.3 16.892 402.537 16.892ZM407.05 18.0923C406.815 18.0923 406.614 18.0095 406.446 17.8438C406.28 17.6757 406.198 17.4744 406.198 17.2401C406.198 17.008 406.28 16.8092 406.446 16.6435C406.614 16.4777 406.815 16.3949 407.05 16.3949C407.277 16.3949 407.476 16.4777 407.646 16.6435C407.817 16.8092 407.902 17.008 407.902 17.2401C407.902 17.3963 407.862 17.5395 407.781 17.6697C407.703 17.7976 407.6 17.9006 407.472 17.9787C407.345 18.0545 407.204 18.0923 407.05 18.0923ZM409.244 18L412.259 12.0341V11.9844H408.747V10.7273H413.85V12.0021L410.831 18H409.244Z" fill="#005422"/>
<rect x="470" y="57.7407" width="44.4156" height="355.325" rx="5" fill="#005422"/>
<path d="M492.964 393.149C492.442 393.146 491.933 393.055 491.436 392.877C490.939 392.696 490.491 392.403 490.093 391.999C489.696 391.59 489.38 391.049 489.145 390.374C488.911 389.696 488.795 388.856 488.799 387.854C488.799 386.92 488.898 386.088 489.097 385.356C489.296 384.625 489.582 384.007 489.955 383.502C490.328 382.995 490.777 382.608 491.303 382.341C491.832 382.075 492.423 381.942 493.076 381.942C493.762 381.942 494.369 382.077 494.898 382.347C495.431 382.616 495.86 382.986 496.187 383.455C496.514 383.92 496.716 384.445 496.794 385.031H494.85C494.751 384.612 494.547 384.278 494.238 384.03C493.932 383.778 493.545 383.652 493.076 383.652C492.32 383.652 491.738 383.98 491.329 384.637C490.924 385.294 490.72 386.196 490.717 387.343H490.791C490.965 387.031 491.191 386.762 491.468 386.539C491.745 386.315 492.057 386.143 492.405 386.022C492.757 385.898 493.128 385.836 493.518 385.836C494.158 385.836 494.731 385.988 495.239 386.294C495.75 386.599 496.155 387.02 496.453 387.556C496.752 388.089 496.899 388.7 496.896 389.388C496.899 390.106 496.736 390.75 496.406 391.322C496.075 391.89 495.615 392.338 495.026 392.664C494.436 392.991 493.749 393.153 492.964 393.149ZM492.954 391.551C493.341 391.551 493.687 391.457 493.993 391.269C494.298 391.081 494.539 390.827 494.717 390.507C494.895 390.187 494.982 389.829 494.978 389.431C494.982 389.04 494.896 388.687 494.722 388.371C494.552 388.055 494.316 387.805 494.014 387.62C493.712 387.435 493.368 387.343 492.98 387.343C492.693 387.343 492.425 387.398 492.176 387.508C491.928 387.618 491.711 387.771 491.526 387.966C491.342 388.158 491.196 388.382 491.089 388.637C490.987 388.89 490.933 389.159 490.93 389.447C490.933 389.827 491.022 390.177 491.196 390.496C491.37 390.816 491.61 391.072 491.915 391.263C492.221 391.455 492.567 391.551 492.954 391.551Z" fill="white"/>
<path d="M486.618 423.792H488.138V428.863C488.138 429.331 488.033 429.739 487.822 430.084C487.614 430.43 487.324 430.696 486.952 430.883C486.581 431.07 486.148 431.164 485.656 431.164C485.218 431.164 484.82 431.087 484.463 430.933C484.108 430.777 483.826 430.54 483.618 430.223C483.409 429.903 483.306 429.502 483.309 429.019H484.839C484.844 429.211 484.883 429.375 484.956 429.513C485.032 429.648 485.135 429.752 485.265 429.825C485.398 429.896 485.554 429.932 485.734 429.932C485.924 429.932 486.083 429.891 486.214 429.811C486.346 429.728 486.447 429.607 486.515 429.449C486.584 429.29 486.618 429.095 486.618 428.863V423.792ZM494.002 423.792H495.539V428.515C495.539 429.045 495.413 429.509 495.159 429.907C494.908 430.305 494.557 430.615 494.105 430.837C493.653 431.057 493.126 431.167 492.525 431.167C491.921 431.167 491.393 431.057 490.941 430.837C490.489 430.615 490.137 430.305 489.886 429.907C489.635 429.509 489.51 429.045 489.51 428.515V423.792H491.047V428.383C491.047 428.66 491.108 428.907 491.228 429.122C491.351 429.337 491.524 429.507 491.747 429.63C491.969 429.753 492.229 429.814 492.525 429.814C492.823 429.814 493.082 429.753 493.302 429.63C493.525 429.507 493.696 429.337 493.817 429.122C493.94 428.907 494.002 428.66 494.002 428.383V423.792ZM502.988 423.792V431.064H501.659L498.495 426.487H498.442V431.064H496.905V423.792H498.254L501.393 428.366H501.457V423.792H502.988Z" fill="#005422"/>
<path d="M488.632 18.0994C488.085 18.0994 487.598 18.0107 487.172 17.8331C486.748 17.6532 486.416 17.4081 486.174 17.098C485.933 16.7879 485.812 16.4363 485.812 16.0433C485.812 15.7403 485.881 15.4621 486.018 15.2088C486.158 14.9531 486.347 14.7412 486.586 14.5732C486.825 14.4027 487.093 14.2938 487.389 14.2464V14.1967C487.001 14.1186 486.686 13.9304 486.444 13.6321C486.203 13.3314 486.082 12.9822 486.082 12.5845C486.082 12.2081 486.192 11.8731 486.412 11.5795C486.632 11.2836 486.934 11.0516 487.318 10.8835C487.704 10.7131 488.142 10.6278 488.632 10.6278C489.122 10.6278 489.559 10.7131 489.942 10.8835C490.328 11.054 490.631 11.2872 490.851 11.5831C491.071 11.8767 491.183 12.2105 491.185 12.5845C491.183 12.9846 491.059 13.3338 490.816 13.6321C490.572 13.9304 490.259 14.1186 489.878 14.1967V14.2464C490.169 14.2938 490.433 14.4027 490.67 14.5732C490.909 14.7412 491.099 14.9531 491.238 15.2088C491.38 15.4621 491.452 15.7403 491.455 16.0433C491.452 16.4363 491.331 16.7879 491.089 17.098C490.848 17.4081 490.514 17.6532 490.088 17.8331C489.664 18.0107 489.179 18.0994 488.632 18.0994ZM488.632 16.9702C488.876 16.9702 489.089 16.9264 489.271 16.8388C489.453 16.7488 489.595 16.6257 489.697 16.4695C489.801 16.3108 489.853 16.1286 489.853 15.9226C489.853 15.7119 489.8 15.526 489.693 15.3651C489.587 15.2017 489.443 15.0739 489.26 14.9815C489.078 14.8868 488.868 14.8395 488.632 14.8395C488.397 14.8395 488.188 14.8868 488.003 14.9815C487.818 15.0739 487.673 15.2017 487.566 15.3651C487.462 15.526 487.41 15.7119 487.41 15.9226C487.41 16.1286 487.461 16.3108 487.563 16.4695C487.665 16.6257 487.808 16.7488 487.992 16.8388C488.177 16.9264 488.39 16.9702 488.632 16.9702ZM488.632 13.7209C488.835 13.7209 489.016 13.6795 489.175 13.5966C489.334 13.5137 489.458 13.3989 489.548 13.2521C489.638 13.1054 489.683 12.9361 489.683 12.7443C489.683 12.5549 489.638 12.3892 489.548 12.2472C489.458 12.1027 489.335 11.9903 489.179 11.9098C489.022 11.8269 488.84 11.7855 488.632 11.7855C488.426 11.7855 488.243 11.8269 488.085 11.9098C487.926 11.9903 487.802 12.1027 487.712 12.2472C487.624 12.3892 487.581 12.5549 487.581 12.7443C487.581 12.9361 487.626 13.1054 487.716 13.2521C487.805 13.3989 487.93 13.5137 488.088 13.5966C488.247 13.6795 488.428 13.7209 488.632 13.7209ZM493.323 18.0923C493.089 18.0923 492.888 18.0095 492.72 17.8438C492.554 17.6757 492.471 17.4744 492.471 17.2401C492.471 17.008 492.554 16.8092 492.72 16.6435C492.888 16.4777 493.089 16.3949 493.323 16.3949C493.551 16.3949 493.749 16.4777 493.92 16.6435C494.09 16.8092 494.176 17.008 494.176 17.2401C494.176 17.3963 494.135 17.5395 494.055 17.6697C493.977 17.7976 493.874 17.9006 493.746 17.9787C493.618 18.0545 493.477 18.0923 493.323 18.0923ZM497.998 10.6278C498.372 10.6278 498.732 10.6906 499.078 10.8161C499.426 10.9415 499.736 11.1416 500.008 11.4162C500.283 11.6908 500.499 12.0554 500.658 12.5099C500.819 12.9621 500.901 13.5173 500.903 14.1754C500.903 14.7933 500.833 15.3449 500.693 15.8303C500.556 16.3132 500.358 16.724 500.1 17.0625C499.842 17.401 499.531 17.6591 499.166 17.8366C498.802 18.0118 498.395 18.0994 497.945 18.0994C497.459 18.0994 497.031 18.0059 496.659 17.8189C496.288 17.6295 495.988 17.3726 495.761 17.0483C495.536 16.7216 495.4 16.3546 495.352 15.9474H496.869C496.928 16.2126 497.052 16.4186 497.242 16.5653C497.431 16.7098 497.665 16.782 497.945 16.782C498.418 16.782 498.778 16.576 499.024 16.1641C499.271 15.7498 499.395 15.1828 499.397 14.4631H499.347C499.239 14.6761 499.092 14.8596 498.907 15.0135C498.723 15.165 498.511 15.2822 498.272 15.3651C498.035 15.4479 497.783 15.4893 497.515 15.4893C497.087 15.4893 496.704 15.3887 496.368 15.1875C496.032 14.9863 495.767 14.7093 495.573 14.3565C495.379 14.0038 495.281 13.6013 495.281 13.1491C495.279 12.6615 495.392 12.227 495.619 11.8459C495.846 11.4647 496.163 11.1664 496.571 10.951C496.98 10.7332 497.456 10.6255 497.998 10.6278ZM498.009 11.8352C497.77 11.8352 497.557 11.892 497.37 12.0057C497.185 12.1193 497.038 12.272 496.929 12.4638C496.823 12.6555 496.771 12.8698 496.773 13.1065C496.773 13.3456 496.825 13.5611 496.929 13.7528C497.036 13.9422 497.18 14.0937 497.362 14.2074C497.547 14.3187 497.758 14.3743 497.995 14.3743C498.172 14.3743 498.337 14.3411 498.488 14.2749C498.64 14.2086 498.771 14.1174 498.882 14.0014C498.996 13.883 499.085 13.7469 499.149 13.593C499.213 13.4392 499.245 13.2758 499.245 13.103C499.242 12.8733 499.188 12.6626 499.081 12.4709C498.975 12.2791 498.828 12.1252 498.641 12.0092C498.454 11.8932 498.243 11.8352 498.009 11.8352Z" fill="#005422"/>
<rect x="556" y="265.013" width="44.4156" height="148.052" rx="5" fill="#CC4125"/>
<path d="M575.369 393L580.009 383.817V383.742H574.623V382.091H582.054V383.779L577.42 393H575.369Z" fill="white"/>
<path d="M571.849 423.792H573.369V428.863C573.369 429.331 573.263 429.739 573.053 430.084C572.844 430.43 572.554 430.696 572.183 430.883C571.811 431.07 571.379 431.164 570.886 431.164C570.448 431.164 570.051 431.087 569.693 430.933C569.338 430.777 569.056 430.54 568.848 430.223C568.64 429.903 568.537 429.502 568.539 429.019H570.07C570.074 429.211 570.113 429.375 570.187 429.513C570.263 429.648 570.366 429.752 570.496 429.825C570.628 429.896 570.785 429.932 570.965 429.932C571.154 429.932 571.314 429.891 571.444 429.811C571.577 429.728 571.677 429.607 571.746 429.449C571.814 429.29 571.849 429.095 571.849 428.863V423.792ZM579.232 423.792H580.77V428.515C580.77 429.045 580.643 429.509 580.39 429.907C580.139 430.305 579.787 430.615 579.335 430.837C578.883 431.057 578.356 431.167 577.755 431.167C577.151 431.167 576.623 431.057 576.171 430.837C575.719 430.615 575.367 430.305 575.116 429.907C574.865 429.509 574.74 429.045 574.74 428.515V423.792H576.278V428.383C576.278 428.66 576.338 428.907 576.459 429.122C576.582 429.337 576.755 429.507 576.977 429.63C577.2 429.753 577.459 429.814 577.755 429.814C578.053 429.814 578.312 429.753 578.533 429.63C578.755 429.507 578.927 429.337 579.048 429.122C579.171 428.907 579.232 428.66 579.232 428.383V423.792ZM582.135 431.064V423.792H583.673V429.797H586.79V431.064H582.135Z" fill="#005422"/>
<path d="M573.877 18.0994C573.375 18.0994 572.927 18.0071 572.534 17.8224C572.144 17.6378 571.834 17.3833 571.604 17.0589C571.374 16.7346 571.255 16.3629 571.245 15.9439H572.737C572.753 16.2256 572.872 16.4541 573.092 16.6293C573.312 16.8045 573.574 16.892 573.877 16.892C574.118 16.892 574.331 16.8388 574.516 16.7322C574.703 16.6233 574.848 16.473 574.953 16.2812C575.059 16.0871 575.112 15.8646 575.112 15.6136C575.112 15.358 575.058 15.133 574.949 14.9389C574.843 14.7448 574.695 14.5933 574.505 14.4844C574.316 14.3755 574.099 14.3198 573.855 14.3175C573.642 14.3175 573.435 14.3613 573.234 14.4489C573.035 14.5365 572.88 14.656 572.769 14.8075L571.401 14.5625L571.746 10.7273H576.192V11.9844H573.014L572.825 13.8061H572.868C572.996 13.6262 573.189 13.477 573.447 13.3587C573.705 13.2403 573.994 13.1811 574.313 13.1811C574.751 13.1811 575.142 13.2841 575.485 13.4901C575.829 13.696 576.1 13.9789 576.298 14.3388C576.497 14.6963 576.596 15.1082 576.593 15.5746C576.596 16.0646 576.482 16.5002 576.252 16.8814C576.025 17.2602 575.707 17.5585 575.297 17.7763C574.89 17.9917 574.416 18.0994 573.877 18.0994ZM578.43 18.0923C578.195 18.0923 577.994 18.0095 577.826 17.8438C577.66 17.6757 577.577 17.4744 577.577 17.2401C577.577 17.008 577.66 16.8092 577.826 16.6435C577.994 16.4777 578.195 16.3949 578.43 16.3949C578.657 16.3949 578.856 16.4777 579.026 16.6435C579.197 16.8092 579.282 17.008 579.282 17.2401C579.282 17.3963 579.242 17.5395 579.161 17.6697C579.083 17.7976 578.98 17.9006 578.852 17.9787C578.724 18.0545 578.584 18.0923 578.43 18.0923ZM583.03 18.0994C582.483 18.0994 581.997 18.0107 581.57 17.8331C581.147 17.6532 580.814 17.4081 580.573 17.098C580.331 16.7879 580.21 16.4363 580.21 16.0433C580.21 15.7403 580.279 15.4621 580.416 15.2088C580.556 14.9531 580.745 14.7412 580.984 14.5732C581.224 14.4027 581.491 14.2938 581.787 14.2464V14.1967C581.399 14.1186 581.084 13.9304 580.842 13.6321C580.601 13.3314 580.48 12.9822 580.48 12.5845C580.48 12.2081 580.59 11.8731 580.81 11.5795C581.031 11.2836 581.332 11.0516 581.716 10.8835C582.102 10.7131 582.54 10.6278 583.03 10.6278C583.52 10.6278 583.957 10.7131 584.34 10.8835C584.726 11.054 585.029 11.2872 585.249 11.5831C585.47 11.8767 585.581 12.2105 585.583 12.5845C585.581 12.9846 585.458 13.3338 585.214 13.6321C584.97 13.9304 584.658 14.1186 584.276 14.1967V14.2464C584.568 14.2938 584.832 14.4027 585.068 14.5732C585.307 14.7412 585.497 14.9531 585.636 15.2088C585.778 15.4621 585.851 15.7403 585.853 16.0433C585.851 16.4363 585.729 16.7879 585.487 17.098C585.246 17.4081 584.912 17.6532 584.486 17.8331C584.062 18.0107 583.577 18.0994 583.03 18.0994ZM583.03 16.9702C583.274 16.9702 583.487 16.9264 583.669 16.8388C583.851 16.7488 583.993 16.6257 584.095 16.4695C584.199 16.3108 584.252 16.1286 584.252 15.9226C584.252 15.7119 584.198 15.526 584.092 15.3651C583.985 15.2017 583.841 15.0739 583.658 14.9815C583.476 14.8868 583.267 14.8395 583.03 14.8395C582.796 14.8395 582.586 14.8868 582.401 14.9815C582.217 15.0739 582.071 15.2017 581.965 15.3651C581.86 15.526 581.808 15.7119 581.808 15.9226C581.808 16.1286 581.859 16.3108 581.961 16.4695C582.063 16.6257 582.206 16.7488 582.391 16.8388C582.575 16.9264 582.788 16.9702 583.03 16.9702ZM583.03 13.7209C583.234 13.7209 583.415 13.6795 583.573 13.5966C583.732 13.5137 583.856 13.3989 583.946 13.2521C584.036 13.1054 584.081 12.9361 584.081 12.7443C584.081 12.5549 584.036 12.3892 583.946 12.2472C583.856 12.1027 583.733 11.9903 583.577 11.9098C583.421 11.8269 583.238 11.7855 583.03 11.7855C582.824 11.7855 582.642 11.8269 582.483 11.9098C582.324 11.9903 582.2 12.1027 582.11 12.2472C582.023 12.3892 581.979 12.5549 581.979 12.7443C581.979 12.9361 582.024 13.1054 582.114 13.2521C582.204 13.3989 582.328 13.5137 582.487 13.5966C582.645 13.6795 582.826 13.7209 583.03 13.7209Z" fill="#005422"/>
<rect x="642" y="176.183" width="44.4156" height="236.883" rx="5" fill="#70AD47"/>
<path d="M664.847 393.149C664.055 393.149 663.352 393.016 662.738 392.75C662.127 392.483 661.648 392.119 661.3 391.658C660.955 391.192 660.785 390.665 660.788 390.076C660.785 389.618 660.884 389.197 661.087 388.813C661.289 388.43 661.563 388.11 661.907 387.854C662.255 387.595 662.642 387.43 663.068 387.359V387.284C662.507 387.16 662.053 386.874 661.705 386.427C661.36 385.976 661.19 385.456 661.193 384.866C661.19 384.305 661.346 383.804 661.662 383.364C661.978 382.924 662.411 382.577 662.962 382.325C663.512 382.07 664.141 381.942 664.847 381.942C665.547 381.942 666.17 382.07 666.717 382.325C667.267 382.577 667.701 382.924 668.017 383.364C668.336 383.804 668.496 384.305 668.496 384.866C668.496 385.456 668.32 385.976 667.969 386.427C667.621 386.874 667.172 387.16 666.621 387.284V387.359C667.047 387.43 667.431 387.595 667.772 387.854C668.116 388.11 668.39 388.43 668.592 388.813C668.798 389.197 668.901 389.618 668.901 390.076C668.901 390.665 668.727 391.192 668.379 391.658C668.031 392.119 667.551 392.483 666.941 392.75C666.333 393.016 665.636 393.149 664.847 393.149ZM664.847 391.626C665.256 391.626 665.611 391.556 665.913 391.418C666.214 391.276 666.449 391.077 666.616 390.821C666.783 390.566 666.868 390.271 666.871 389.937C666.868 389.589 666.777 389.282 666.6 389.016C666.426 388.746 666.186 388.534 665.881 388.382C665.579 388.229 665.234 388.153 664.847 388.153C664.457 388.153 664.109 388.229 663.803 388.382C663.498 388.534 663.256 388.746 663.079 389.016C662.905 389.282 662.82 389.589 662.823 389.937C662.82 390.271 662.901 390.566 663.068 390.821C663.235 391.074 663.469 391.271 663.771 391.413C664.077 391.555 664.435 391.626 664.847 391.626ZM664.847 386.656C665.181 386.656 665.476 386.588 665.732 386.453C665.991 386.319 666.195 386.13 666.344 385.889C666.493 385.647 666.57 385.369 666.573 385.053C666.57 384.74 666.495 384.467 666.349 384.232C666.204 383.994 666.001 383.811 665.742 383.684C665.483 383.552 665.185 383.487 664.847 383.487C664.503 383.487 664.199 383.552 663.936 383.684C663.677 383.811 663.475 383.994 663.329 384.232C663.187 384.467 663.118 384.74 663.121 385.053C663.118 385.369 663.189 385.647 663.335 385.889C663.484 386.127 663.688 386.315 663.947 386.453C664.21 386.588 664.51 386.656 664.847 386.656Z" fill="white"/>
<path d="M655.683 431.064H654.035L656.546 423.792H658.527L661.034 431.064H659.387L657.565 425.454H657.508L655.683 431.064ZM655.58 428.206H659.472V429.406H655.58V428.206ZM666.502 423.792H668.039V428.515C668.039 429.045 667.913 429.509 667.659 429.907C667.409 430.305 667.057 430.615 666.605 430.837C666.153 431.057 665.626 431.167 665.025 431.167C664.421 431.167 663.893 431.057 663.441 430.837C662.989 430.615 662.637 430.305 662.386 429.907C662.135 429.509 662.01 429.045 662.01 428.515V423.792H663.547V428.383C663.547 428.66 663.608 428.907 663.728 429.122C663.851 429.337 664.024 429.507 664.247 429.63C664.469 429.753 664.729 429.814 665.025 429.814C665.323 429.814 665.582 429.753 665.802 429.63C666.025 429.507 666.196 429.337 666.317 429.122C666.44 428.907 666.502 428.66 666.502 428.383V423.792ZM674.227 426.143C674.177 425.97 674.107 425.817 674.017 425.684C673.928 425.55 673.817 425.436 673.687 425.344C673.559 425.249 673.413 425.177 673.247 425.127C673.084 425.077 672.902 425.052 672.704 425.052C672.332 425.052 672.005 425.145 671.723 425.329C671.444 425.514 671.226 425.783 671.07 426.135C670.914 426.486 670.836 426.914 670.836 427.421C670.836 427.928 670.913 428.358 671.066 428.714C671.22 429.069 671.438 429.34 671.72 429.527C672.002 429.711 672.334 429.804 672.718 429.804C673.066 429.804 673.363 429.742 673.609 429.619C673.858 429.494 674.047 429.317 674.177 429.09C674.31 428.863 674.376 428.594 674.376 428.284L674.689 428.33H672.814V427.172H675.857V428.089C675.857 428.728 675.722 429.277 675.452 429.736C675.182 430.193 674.811 430.546 674.337 430.795C673.864 431.041 673.321 431.164 672.711 431.164C672.029 431.164 671.43 431.014 670.914 430.713C670.398 430.41 669.995 429.98 669.706 429.424C669.42 428.865 669.277 428.202 669.277 427.435C669.277 426.846 669.362 426.32 669.532 425.858C669.705 425.394 669.947 425.001 670.257 424.68C670.567 424.358 670.928 424.113 671.34 423.944C671.752 423.776 672.198 423.692 672.679 423.692C673.091 423.692 673.474 423.753 673.829 423.873C674.184 423.992 674.499 424.16 674.774 424.378C675.051 424.595 675.277 424.855 675.452 425.155C675.627 425.454 675.74 425.783 675.79 426.143H674.227Z" fill="#005422"/>
<path d="M659.295 18L662.31 12.0341V11.9844H658.798V10.7273H663.901V12.0021L660.882 18H659.295ZM664.703 18.0923C664.469 18.0923 664.267 18.0095 664.099 17.8438C663.934 17.6757 663.851 17.4744 663.851 17.2401C663.851 17.008 663.934 16.8092 664.099 16.6435C664.267 16.4777 664.469 16.3949 664.703 16.3949C664.93 16.3949 665.129 16.4777 665.3 16.6435C665.47 16.8092 665.555 17.008 665.555 17.2401C665.555 17.3963 665.515 17.5395 665.435 17.6697C665.356 17.7976 665.254 17.9006 665.126 17.9787C664.998 18.0545 664.857 18.0923 664.703 18.0923ZM669.139 10.7273V18H667.601V12.1868H667.559L665.893 13.2308V11.8672L667.694 10.7273H669.139Z" fill="#005422"/>
<rect x="728" y="72.546" width="44.4156" height="340.519" rx="5" fill="#005422"/>
<path d="M749.757 381.942C750.279 381.945 750.787 382.038 751.28 382.219C751.777 382.396 752.225 382.688 752.623 383.092C753.02 383.494 753.336 384.032 753.571 384.706C753.805 385.381 753.922 386.216 753.922 387.21C753.926 388.147 753.826 388.985 753.624 389.724C753.425 390.459 753.139 391.081 752.766 391.588C752.393 392.096 751.944 392.483 751.419 392.75C750.893 393.016 750.302 393.149 749.645 393.149C748.956 393.149 748.345 393.014 747.812 392.744C747.283 392.474 746.855 392.105 746.529 391.636C746.202 391.168 746.001 390.631 745.927 390.028H747.871C747.971 390.461 748.173 390.805 748.478 391.061C748.787 391.313 749.176 391.439 749.645 391.439C750.401 391.439 750.984 391.111 751.392 390.454C751.8 389.797 752.005 388.884 752.005 387.716H751.93C751.756 388.028 751.531 388.298 751.254 388.526C750.977 388.749 750.662 388.922 750.311 389.042C749.963 389.163 749.593 389.223 749.203 389.223C748.564 389.223 747.988 389.071 747.477 388.765C746.969 388.46 746.566 388.041 746.268 387.508C745.973 386.975 745.824 386.366 745.82 385.681C745.82 384.971 745.984 384.333 746.31 383.769C746.641 383.201 747.1 382.753 747.69 382.426C748.279 382.096 748.968 381.935 749.757 381.942ZM749.762 383.54C749.379 383.54 749.032 383.634 748.723 383.822C748.418 384.007 748.176 384.259 747.999 384.578C747.825 384.895 747.738 385.248 747.738 385.638C747.741 386.026 747.828 386.377 747.999 386.693C748.173 387.009 748.409 387.26 748.707 387.444C749.009 387.629 749.354 387.721 749.741 387.721C750.028 387.721 750.297 387.666 750.545 387.556C750.794 387.446 751.01 387.293 751.195 387.098C751.383 386.899 751.529 386.674 751.632 386.422C751.738 386.169 751.79 385.903 751.786 385.623C751.786 385.25 751.697 384.905 751.52 384.589C751.346 384.273 751.106 384.019 750.801 383.827C750.499 383.636 750.153 383.54 749.762 383.54Z" fill="white"/>
<path d="M745.125 425.883C745.097 425.597 744.975 425.374 744.76 425.216C744.544 425.057 744.252 424.978 743.882 424.978C743.632 424.978 743.42 425.013 743.247 425.084C743.074 425.153 742.941 425.249 742.849 425.372C742.759 425.495 742.714 425.635 742.714 425.791C742.709 425.921 742.737 426.035 742.796 426.132C742.857 426.229 742.941 426.313 743.048 426.384C743.155 426.453 743.278 426.513 743.417 426.565C743.557 426.615 743.706 426.657 743.865 426.693L744.518 426.849C744.835 426.92 745.127 427.015 745.392 427.133C745.657 427.252 745.887 427.397 746.081 427.57C746.275 427.743 746.425 427.947 746.532 428.181C746.641 428.415 746.696 428.684 746.699 428.987C746.696 429.432 746.583 429.818 746.358 430.145C746.135 430.469 745.813 430.721 745.392 430.901C744.973 431.079 744.467 431.167 743.875 431.167C743.288 431.167 742.777 431.077 742.341 430.898C741.908 430.718 741.57 430.451 741.326 430.099C741.084 429.743 740.958 429.304 740.946 428.781H742.434C742.45 429.025 742.52 429.229 742.643 429.392C742.769 429.553 742.936 429.675 743.144 429.758C743.355 429.838 743.592 429.878 743.858 429.878C744.118 429.878 744.344 429.84 744.536 429.765C744.73 429.689 744.88 429.584 744.987 429.449C745.093 429.314 745.147 429.159 745.147 428.983C745.147 428.82 745.098 428.683 745.001 428.572C744.906 428.46 744.767 428.366 744.582 428.287C744.4 428.209 744.176 428.138 743.911 428.074L743.119 427.876C742.506 427.726 742.022 427.493 741.667 427.176C741.311 426.859 741.135 426.431 741.137 425.894C741.135 425.454 741.252 425.069 741.489 424.74C741.728 424.411 742.056 424.154 742.473 423.969C742.889 423.785 743.363 423.692 743.893 423.692C744.433 423.692 744.904 423.785 745.306 423.969C745.711 424.154 746.026 424.411 746.251 424.74C746.476 425.069 746.592 425.45 746.599 425.883H745.125ZM747.833 431.064V423.792H752.733V425.059H749.37V426.792H752.481V428.06H749.37V429.797H752.748V431.064H747.833ZM754.056 431.064V423.792H756.925C757.477 423.792 757.947 423.897 758.335 424.108C758.723 424.316 759.019 424.606 759.223 424.978C759.429 425.347 759.532 425.773 759.532 426.256C759.532 426.739 759.428 427.165 759.219 427.535C759.011 427.904 758.709 428.192 758.314 428.398C757.921 428.604 757.445 428.706 756.886 428.706H755.057V427.474H756.638C756.933 427.474 757.177 427.423 757.369 427.322C757.563 427.217 757.708 427.074 757.802 426.892C757.899 426.707 757.948 426.495 757.948 426.256C757.948 426.015 757.899 425.804 757.802 425.624C757.708 425.442 757.563 425.301 757.369 425.202C757.175 425.1 756.929 425.049 756.63 425.049H755.593V431.064H754.056Z" fill="#005422"/>
<path d="M745.579 18.0994C745.032 18.0994 744.546 18.0107 744.119 17.8331C743.696 17.6532 743.363 17.4081 743.122 17.098C742.88 16.7879 742.759 16.4363 742.759 16.0433C742.759 15.7403 742.828 15.4621 742.965 15.2088C743.105 14.9531 743.294 14.7412 743.533 14.5732C743.773 14.4027 744.04 14.2938 744.336 14.2464V14.1967C743.948 14.1186 743.633 13.9304 743.391 13.6321C743.15 13.3314 743.029 12.9822 743.029 12.5845C743.029 12.2081 743.139 11.8731 743.359 11.5795C743.58 11.2836 743.881 11.0516 744.265 10.8835C744.651 10.7131 745.089 10.6278 745.579 10.6278C746.069 10.6278 746.506 10.7131 746.889 10.8835C747.275 11.054 747.578 11.2872 747.798 11.5831C748.019 11.8767 748.13 12.2105 748.132 12.5845C748.13 12.9846 748.007 13.3338 747.763 13.6321C747.519 13.9304 747.207 14.1186 746.825 14.1967V14.2464C747.117 14.2938 747.381 14.4027 747.617 14.5732C747.856 14.7412 748.046 14.9531 748.185 15.2088C748.328 15.4621 748.4 15.7403 748.402 16.0433C748.4 16.4363 748.278 16.7879 748.036 17.098C747.795 17.4081 747.461 17.6532 747.035 17.8331C746.611 18.0107 746.126 18.0994 745.579 18.0994ZM745.579 16.9702C745.823 16.9702 746.036 16.9264 746.218 16.8388C746.4 16.7488 746.542 16.6257 746.644 16.4695C746.748 16.3108 746.801 16.1286 746.801 15.9226C746.801 15.7119 746.747 15.526 746.641 15.3651C746.534 15.2017 746.39 15.0739 746.207 14.9815C746.025 14.8868 745.816 14.8395 745.579 14.8395C745.345 14.8395 745.135 14.8868 744.95 14.9815C744.766 15.0739 744.62 15.2017 744.514 15.3651C744.409 15.526 744.357 15.7119 744.357 15.9226C744.357 16.1286 744.408 16.3108 744.51 16.4695C744.612 16.6257 744.755 16.7488 744.94 16.8388C745.124 16.9264 745.337 16.9702 745.579 16.9702ZM745.579 13.7209C745.783 13.7209 745.964 13.6795 746.122 13.5966C746.281 13.5137 746.405 13.3989 746.495 13.2521C746.585 13.1054 746.63 12.9361 746.63 12.7443C746.63 12.5549 746.585 12.3892 746.495 12.2472C746.405 12.1027 746.282 11.9903 746.126 11.9098C745.97 11.8269 745.787 11.7855 745.579 11.7855C745.373 11.7855 745.191 11.8269 745.032 11.9098C744.873 11.9903 744.749 12.1027 744.659 12.2472C744.572 12.3892 744.528 12.5549 744.528 12.7443C744.528 12.9361 744.573 13.1054 744.663 13.2521C744.753 13.3989 744.877 13.5137 745.036 13.5966C745.194 13.6795 745.375 13.7209 745.579 13.7209ZM750.271 18.0923C750.036 18.0923 749.835 18.0095 749.667 17.8438C749.501 17.6757 749.418 17.4744 749.418 17.2401C749.418 17.008 749.501 16.8092 749.667 16.6435C749.835 16.4777 750.036 16.3949 750.271 16.3949C750.498 16.3949 750.697 16.4777 750.867 16.6435C751.038 16.8092 751.123 17.008 751.123 17.2401C751.123 17.3963 751.083 17.5395 751.002 17.6697C750.924 17.7976 750.821 17.9006 750.693 17.9787C750.565 18.0545 750.424 18.0923 750.271 18.0923ZM754.949 18.0994C754.575 18.0971 754.214 18.0343 753.866 17.9112C753.52 17.7881 753.21 17.5881 752.935 17.3111C752.661 17.0341 752.443 16.6671 752.282 16.2102C752.123 15.7533 752.044 15.1922 752.044 14.527C752.046 13.9162 752.116 13.3705 752.254 12.8899C752.393 12.407 752.592 11.9974 752.85 11.6612C753.111 11.325 753.422 11.0694 753.784 10.8942C754.146 10.7166 754.552 10.6278 755.002 10.6278C755.487 10.6278 755.916 10.7225 756.288 10.9119C756.659 11.099 756.958 11.3535 757.183 11.6754C757.41 11.9974 757.547 12.3584 757.594 12.7585H756.078C756.019 12.5052 755.895 12.3063 755.705 12.1619C755.516 12.0175 755.281 11.9453 755.002 11.9453C754.529 11.9453 754.169 12.1513 753.923 12.5632C753.679 12.9751 753.554 13.535 753.55 14.2429H753.599C753.708 14.0275 753.855 13.844 754.04 13.6925C754.227 13.5386 754.439 13.4214 754.675 13.3409C754.915 13.258 755.167 13.2166 755.432 13.2166C755.863 13.2166 756.246 13.3184 756.582 13.522C756.919 13.7232 757.184 14.0002 757.378 14.353C757.572 14.7057 757.669 15.1094 757.669 15.5639C757.669 16.0563 757.554 16.4943 757.325 16.8778C757.097 17.2614 756.779 17.562 756.369 17.7798C755.962 17.9953 755.489 18.1018 754.949 18.0994ZM754.942 16.892C755.179 16.892 755.39 16.8352 755.577 16.7216C755.764 16.608 755.911 16.4541 756.018 16.2599C756.124 16.0658 756.178 15.848 756.178 15.6065C756.178 15.3651 756.124 15.1484 756.018 14.9567C755.914 14.7649 755.769 14.6122 755.585 14.4986C755.4 14.3849 755.189 14.3281 754.952 14.3281C754.775 14.3281 754.61 14.3613 754.459 14.4276C754.31 14.4938 754.178 14.5862 754.065 14.7045C753.953 14.8229 753.866 14.9602 753.802 15.1165C753.738 15.2704 753.706 15.4349 753.706 15.6101C753.706 15.8445 753.759 16.0587 753.866 16.2528C753.975 16.447 754.121 16.602 754.306 16.718C754.493 16.834 754.705 16.892 754.942 16.892Z" fill="#005422"/>
<rect x="814" y="176.183" width="44.4156" height="236.883" rx="5" fill="#E69138"/>
<path d="M832.407 382.091V393H830.43V384.014H830.366L827.815 385.644V383.833L830.526 382.091H832.407ZM839.209 393.208C838.332 393.208 837.579 392.986 836.95 392.542C836.325 392.094 835.844 391.45 835.507 390.608C835.173 389.763 835.006 388.746 835.006 387.556C835.01 386.366 835.178 385.354 835.512 384.52C835.849 383.682 836.331 383.043 836.956 382.602C837.584 382.162 838.335 381.942 839.209 381.942C840.082 381.942 840.833 382.162 841.462 382.602C842.091 383.043 842.572 383.682 842.906 384.52C843.243 385.358 843.412 386.37 843.412 387.556C843.412 388.749 843.243 389.768 842.906 390.614C842.572 391.455 842.091 392.098 841.462 392.542C840.837 392.986 840.086 393.208 839.209 393.208ZM839.209 391.54C839.891 391.54 840.429 391.205 840.823 390.534C841.221 389.859 841.419 388.866 841.419 387.556C841.419 386.69 841.329 385.962 841.148 385.372C840.967 384.783 840.711 384.339 840.381 384.04C840.05 383.739 839.66 383.588 839.209 383.588C838.531 383.588 837.994 383.925 837.6 384.6C837.206 385.271 837.007 386.256 837.004 387.556C837 388.426 837.087 389.158 837.265 389.751C837.446 390.344 837.701 390.791 838.032 391.093C838.362 391.391 838.754 391.54 839.209 391.54Z" fill="white"/>
<path d="M833.039 427.428C833.039 428.221 832.889 428.896 832.588 429.452C832.29 430.009 831.883 430.434 831.367 430.727C830.853 431.018 830.275 431.164 829.634 431.164C828.987 431.164 828.407 431.017 827.894 430.724C827.38 430.43 826.974 430.005 826.676 429.449C826.377 428.892 826.228 428.219 826.228 427.428C826.228 426.635 826.377 425.96 826.676 425.404C826.974 424.848 827.38 424.424 827.894 424.133C828.407 423.839 828.987 423.692 829.634 423.692C830.275 423.692 830.853 423.839 831.367 424.133C831.883 424.424 832.29 424.848 832.588 425.404C832.889 425.96 833.039 426.635 833.039 427.428ZM831.48 427.428C831.48 426.914 831.403 426.481 831.249 426.128C831.098 425.776 830.884 425.508 830.607 425.326C830.33 425.144 830.005 425.052 829.634 425.052C829.262 425.052 828.938 425.144 828.661 425.326C828.384 425.508 828.168 425.776 828.014 426.128C827.863 426.481 827.787 426.914 827.787 427.428C827.787 427.942 827.863 428.375 828.014 428.728C828.168 429.081 828.384 429.348 828.661 429.53C828.938 429.713 829.262 429.804 829.634 429.804C830.005 429.804 830.33 429.713 830.607 429.53C830.884 429.348 831.098 429.081 831.249 428.728C831.403 428.375 831.48 427.942 831.48 427.428ZM840.695 426.338H839.14C839.111 426.137 839.053 425.958 838.966 425.802C838.878 425.643 838.766 425.508 838.628 425.397C838.491 425.286 838.332 425.2 838.152 425.141C837.975 425.082 837.782 425.052 837.574 425.052C837.197 425.052 836.869 425.146 836.59 425.333C836.311 425.518 836.094 425.787 835.94 426.143C835.786 426.495 835.709 426.924 835.709 427.428C835.709 427.947 835.786 428.382 835.94 428.735C836.096 429.088 836.314 429.354 836.594 429.534C836.873 429.714 837.196 429.804 837.563 429.804C837.769 429.804 837.96 429.777 838.135 429.722C838.312 429.668 838.47 429.588 838.607 429.484C838.744 429.378 838.858 429.249 838.948 429.097C839.04 428.946 839.104 428.773 839.14 428.579L840.695 428.586C840.655 428.92 840.554 429.242 840.393 429.552C840.235 429.859 840.02 430.135 839.75 430.379C839.483 430.621 839.163 430.812 838.792 430.954C838.422 431.094 838.005 431.164 837.538 431.164C836.889 431.164 836.309 431.017 835.798 430.724C835.289 430.43 834.887 430.005 834.591 429.449C834.297 428.892 834.15 428.219 834.15 427.428C834.15 426.635 834.3 425.96 834.598 425.404C834.896 424.848 835.301 424.424 835.812 424.133C836.324 423.839 836.899 423.692 837.538 423.692C837.96 423.692 838.35 423.751 838.71 423.87C839.072 423.988 839.393 424.161 839.672 424.388C839.952 424.613 840.179 424.889 840.354 425.216C840.532 425.542 840.645 425.916 840.695 426.338ZM841.621 425.059V423.792H847.594V425.059H845.367V431.064H843.847V425.059H841.621Z" fill="#005422"/>
<path d="M831.539 18.0994C831.165 18.0971 830.804 18.0343 830.456 17.9112C830.11 17.7881 829.8 17.5881 829.525 17.3111C829.251 17.0341 829.033 16.6671 828.872 16.2102C828.713 15.7533 828.634 15.1922 828.634 14.527C828.636 13.9162 828.706 13.3705 828.844 12.8899C828.983 12.407 829.182 11.9974 829.44 11.6612C829.701 11.325 830.012 11.0694 830.374 10.8942C830.736 10.7166 831.142 10.6278 831.592 10.6278C832.077 10.6278 832.506 10.7225 832.878 10.9119C833.249 11.099 833.548 11.3535 833.773 11.6754C834 11.9974 834.137 12.3584 834.184 12.7585H832.668C832.609 12.5052 832.485 12.3063 832.295 12.1619C832.106 12.0175 831.872 11.9453 831.592 11.9453C831.119 11.9453 830.759 12.1513 830.513 12.5632C830.269 12.9751 830.144 13.535 830.14 14.2429H830.189C830.298 14.0275 830.445 13.844 830.63 13.6925C830.817 13.5386 831.029 13.4214 831.265 13.3409C831.505 13.258 831.757 13.2166 832.022 13.2166C832.453 13.2166 832.836 13.3184 833.172 13.522C833.509 13.7232 833.774 14.0002 833.968 14.353C834.162 14.7057 834.259 15.1094 834.259 15.5639C834.259 16.0563 834.144 16.4943 833.915 16.8778C833.687 17.2614 833.369 17.562 832.959 17.7798C832.552 17.9953 832.079 18.1018 831.539 18.0994ZM831.532 16.892C831.769 16.892 831.98 16.8352 832.167 16.7216C832.354 16.608 832.501 16.4541 832.608 16.2599C832.714 16.0658 832.768 15.848 832.768 15.6065C832.768 15.3651 832.714 15.1484 832.608 14.9567C832.504 14.7649 832.359 14.6122 832.175 14.4986C831.99 14.3849 831.779 14.3281 831.542 14.3281C831.365 14.3281 831.2 14.3613 831.049 14.4276C830.9 14.4938 830.768 14.5862 830.655 14.7045C830.543 14.8229 830.456 14.9602 830.392 15.1165C830.328 15.2704 830.296 15.4349 830.296 15.6101C830.296 15.8445 830.349 16.0587 830.456 16.2528C830.565 16.447 830.711 16.602 830.896 16.718C831.083 16.834 831.295 16.892 831.532 16.892ZM836.045 18.0923C835.811 18.0923 835.609 18.0095 835.441 17.8438C835.276 17.6757 835.193 17.4744 835.193 17.2401C835.193 17.008 835.276 16.8092 835.441 16.6435C835.609 16.4777 835.811 16.3949 836.045 16.3949C836.272 16.3949 836.471 16.4777 836.642 16.6435C836.812 16.8092 836.897 17.008 836.897 17.2401C836.897 17.3963 836.857 17.5395 836.777 17.6697C836.698 17.7976 836.595 17.9006 836.468 17.9787C836.34 18.0545 836.199 18.0923 836.045 18.0923ZM840.823 18.0994C840.321 18.0994 839.873 18.0071 839.48 17.8224C839.09 17.6378 838.78 17.3833 838.55 17.0589C838.32 16.7346 838.201 16.3629 838.191 15.9439H839.683C839.699 16.2256 839.818 16.4541 840.038 16.6293C840.258 16.8045 840.52 16.892 840.823 16.892C841.064 16.892 841.277 16.8388 841.462 16.7322C841.649 16.6233 841.795 16.473 841.899 16.2812C842.005 16.0871 842.059 15.8646 842.059 15.6136C842.059 15.358 842.004 15.133 841.895 14.9389C841.789 14.7448 841.641 14.5933 841.451 14.4844C841.262 14.3755 841.045 14.3198 840.801 14.3175C840.588 14.3175 840.381 14.3613 840.18 14.4489C839.981 14.5365 839.826 14.656 839.715 14.8075L838.348 14.5625L838.692 10.7273H843.138V11.9844H839.96L839.772 13.8061H839.814C839.942 13.6262 840.135 13.477 840.393 13.3587C840.651 13.2403 840.94 13.1811 841.259 13.1811C841.697 13.1811 842.088 13.2841 842.431 13.4901C842.775 13.696 843.046 13.9789 843.245 14.3388C843.443 14.6963 843.542 15.1082 843.539 15.5746C843.542 16.0646 843.428 16.5002 843.198 16.8814C842.971 17.2602 842.653 17.5585 842.243 17.7763C841.836 17.9917 841.362 18.0994 840.823 18.0994Z" fill="#005422"/>
<rect x="900" y="116.961" width="44.4156" height="296.104" rx="5" fill="#70AD47"/>
<path d="M919.407 382.091V393H917.43V384.014H917.366L914.815 385.644V383.833L917.526 382.091H919.407ZM926.614 382.091V393H924.637V384.014H924.574L922.022 385.644V383.833L924.733 382.091H926.614Z" fill="white"/>
<path d="M918.198 423.792V431.064H916.87L913.706 426.487H913.652V431.064H912.115V423.792H913.464L916.603 428.366H916.667V423.792H918.198ZM926.251 427.428C926.251 428.221 926.101 428.896 925.8 429.452C925.502 430.009 925.095 430.434 924.579 430.727C924.065 431.018 923.488 431.164 922.846 431.164C922.2 431.164 921.62 431.017 921.106 430.724C920.592 430.43 920.186 430.005 919.888 429.449C919.59 428.892 919.44 428.219 919.44 427.428C919.44 426.635 919.59 425.96 919.888 425.404C920.186 424.848 920.592 424.424 921.106 424.133C921.62 423.839 922.2 423.692 922.846 423.692C923.488 423.692 924.065 423.839 924.579 424.133C925.095 424.424 925.502 424.848 925.8 425.404C926.101 425.96 926.251 426.635 926.251 427.428ZM924.693 427.428C924.693 426.914 924.616 426.481 924.462 426.128C924.31 425.776 924.096 425.508 923.819 425.326C923.542 425.144 923.218 425.052 922.846 425.052C922.474 425.052 922.15 425.144 921.873 425.326C921.596 425.508 921.38 425.776 921.227 426.128C921.075 426.481 920.999 426.914 920.999 427.428C920.999 427.942 921.075 428.375 921.227 428.728C921.38 429.081 921.596 429.348 921.873 429.53C922.15 429.713 922.474 429.804 922.846 429.804C923.218 429.804 923.542 429.713 923.819 429.53C924.096 429.348 924.31 429.081 924.462 428.728C924.616 428.375 924.693 427.942 924.693 427.428ZM928.394 423.792L930.152 429.317H930.22L931.981 423.792H933.685L931.178 431.064H929.197L926.686 423.792H928.394Z" fill="#005422"/>
<path d="M916.491 18L919.506 12.0341V11.9844H915.994V10.7273H921.097V12.0021L918.079 18H916.491ZM921.899 18.0923C921.665 18.0923 921.464 18.0095 921.296 17.8438C921.13 17.6757 921.047 17.4744 921.047 17.2401C921.047 17.008 921.13 16.8092 921.296 16.6435C921.464 16.4777 921.665 16.3949 921.899 16.3949C922.127 16.3949 922.326 16.4777 922.496 16.6435C922.666 16.8092 922.752 17.008 922.752 17.2401C922.752 17.3963 922.711 17.5395 922.631 17.6697C922.553 17.7976 922.45 17.9006 922.322 17.9787C922.194 18.0545 922.053 18.0923 921.899 18.0923ZM924.08 18V16.892L926.668 14.495C926.888 14.282 927.073 14.0902 927.222 13.9197C927.374 13.7493 927.489 13.5824 927.567 13.419C927.645 13.2533 927.684 13.0746 927.684 12.8828C927.684 12.6697 927.635 12.4863 927.538 12.3324C927.441 12.1761 927.309 12.0566 927.141 11.9737C926.973 11.8885 926.782 11.8459 926.569 11.8459C926.346 11.8459 926.152 11.8909 925.986 11.9808C925.821 12.0708 925.693 12.1998 925.603 12.3679C925.513 12.536 925.468 12.736 925.468 12.968H924.008C924.008 12.4922 924.116 12.0791 924.332 11.7287C924.547 11.3783 924.849 11.1072 925.237 10.9155C925.625 10.7237 926.073 10.6278 926.58 10.6278C927.1 10.6278 927.554 10.7202 927.94 10.9048C928.328 11.0871 928.63 11.3404 928.845 11.6648C929.061 11.9891 929.168 12.3608 929.168 12.7798C929.168 13.0545 929.114 13.3255 929.005 13.593C928.898 13.8606 928.708 14.1577 928.433 14.4844C928.159 14.8087 927.772 15.1982 927.272 15.6527L926.21 16.6932V16.7429H929.264V18H924.08Z" fill="#005422"/>
<path d="M1088 416.16C1087.39 416.157 1086.86 416.007 1086.42 415.709C1085.98 415.411 1085.65 414.978 1085.41 414.413C1085.18 413.847 1085.06 413.166 1085.06 412.371C1085.06 411.578 1085.18 410.902 1085.41 410.343C1085.65 409.784 1085.99 409.359 1086.43 409.068C1086.87 408.775 1087.39 408.628 1088 408.628C1088.61 408.628 1089.13 408.775 1089.57 409.068C1090.01 409.362 1090.35 409.788 1090.58 410.347C1090.82 410.903 1090.94 411.578 1090.94 412.371C1090.94 413.169 1090.82 413.85 1090.58 414.416C1090.35 414.982 1090.01 415.414 1089.57 415.712C1089.13 416.011 1088.61 416.16 1088 416.16ZM1088 414.885C1088.42 414.885 1088.75 414.675 1089 414.256C1089.25 413.837 1089.37 413.209 1089.37 412.371C1089.37 411.819 1089.31 411.36 1089.2 410.993C1089.08 410.626 1088.93 410.35 1088.72 410.165C1088.52 409.981 1088.28 409.888 1088 409.888C1087.58 409.888 1087.25 410.096 1087 410.51C1086.76 410.924 1086.63 411.545 1086.63 412.371C1086.63 412.929 1086.68 413.396 1086.79 413.77C1086.91 414.142 1087.07 414.421 1087.27 414.608C1087.48 414.793 1087.72 414.885 1088 414.885Z" fill="#005422"/>
<path d="M1085.09 360.722V359.511L1088.13 354.727H1089.17V356.403H1088.55L1086.64 359.433V359.489H1090.95V360.722H1085.09ZM1088.58 362V360.352L1088.61 359.816V354.727H1090.05V362H1088.58Z" fill="#005422"/>
<path d="M1088.02 308.099C1087.52 308.099 1087.07 308.007 1086.68 307.822C1086.29 307.638 1085.98 307.383 1085.75 307.059C1085.52 306.735 1085.4 306.363 1085.39 305.944H1086.88C1086.9 306.226 1087.02 306.454 1087.24 306.629C1087.46 306.804 1087.72 306.892 1088.02 306.892C1088.26 306.892 1088.48 306.839 1088.66 306.732C1088.85 306.623 1088.99 306.473 1089.1 306.281C1089.21 306.087 1089.26 305.865 1089.26 305.614C1089.26 305.358 1089.2 305.133 1089.1 304.939C1088.99 304.745 1088.84 304.593 1088.65 304.484C1088.46 304.375 1088.25 304.32 1088 304.317C1087.79 304.317 1087.58 304.361 1087.38 304.449C1087.18 304.536 1087.03 304.656 1086.92 304.808L1085.55 304.562L1085.89 300.727H1090.34V301.984H1087.16L1086.97 303.806H1087.01C1087.14 303.626 1087.34 303.477 1087.59 303.359C1087.85 303.24 1088.14 303.181 1088.46 303.181C1088.9 303.181 1089.29 303.284 1089.63 303.49C1089.98 303.696 1090.25 303.979 1090.44 304.339C1090.64 304.696 1090.74 305.108 1090.74 305.575C1090.74 306.065 1090.63 306.5 1090.4 306.881C1090.17 307.26 1089.85 307.558 1089.44 307.776C1089.04 307.992 1088.56 308.099 1088.02 308.099Z" fill="#005422"/>
<path d="M1088.08 254.099C1087.71 254.097 1087.34 254.034 1087 253.911C1086.65 253.788 1086.34 253.588 1086.07 253.311C1085.79 253.034 1085.57 252.667 1085.41 252.21C1085.25 251.753 1085.18 251.192 1085.18 250.527C1085.18 249.916 1085.25 249.371 1085.38 248.89C1085.52 248.407 1085.72 247.997 1085.98 247.661C1086.24 247.325 1086.55 247.069 1086.92 246.894C1087.28 246.717 1087.68 246.628 1088.13 246.628C1088.62 246.628 1089.05 246.723 1089.42 246.912C1089.79 247.099 1090.09 247.353 1090.31 247.675C1090.54 247.997 1090.68 248.358 1090.73 248.759H1089.21C1089.15 248.505 1089.03 248.306 1088.84 248.162C1088.65 248.018 1088.41 247.945 1088.13 247.945C1087.66 247.945 1087.3 248.151 1087.05 248.563C1086.81 248.975 1086.69 249.535 1086.68 250.243H1086.73C1086.84 250.027 1086.99 249.844 1087.17 249.692C1087.36 249.539 1087.57 249.421 1087.81 249.341C1088.05 249.258 1088.3 249.217 1088.56 249.217C1088.99 249.217 1089.38 249.318 1089.71 249.522C1090.05 249.723 1090.31 250 1090.51 250.353C1090.7 250.706 1090.8 251.109 1090.8 251.564C1090.8 252.056 1090.69 252.494 1090.46 252.878C1090.23 253.261 1089.91 253.562 1089.5 253.78C1089.09 253.995 1088.62 254.102 1088.08 254.099ZM1088.07 252.892C1088.31 252.892 1088.52 252.835 1088.71 252.722C1088.9 252.608 1089.04 252.454 1089.15 252.26C1089.26 252.066 1089.31 251.848 1089.31 251.607C1089.31 251.365 1089.26 251.148 1089.15 250.957C1089.04 250.765 1088.9 250.612 1088.72 250.499C1088.53 250.385 1088.32 250.328 1088.08 250.328C1087.91 250.328 1087.74 250.361 1087.59 250.428C1087.44 250.494 1087.31 250.586 1087.2 250.705C1087.08 250.823 1087 250.96 1086.93 251.116C1086.87 251.27 1086.84 251.435 1086.84 251.61C1086.84 251.844 1086.89 252.059 1087 252.253C1087.11 252.447 1087.25 252.602 1087.44 252.718C1087.62 252.834 1087.84 252.892 1088.07 252.892Z" fill="#005422"/>
<path d="M1085.9 200L1088.92 194.034V193.984H1085.41V192.727H1090.51V194.002L1087.49 200H1085.9Z" fill="#005422"/>
<path d="M1088 146.099C1087.45 146.099 1086.96 146.011 1086.54 145.833C1086.11 145.653 1085.78 145.408 1085.54 145.098C1085.3 144.788 1085.18 144.436 1085.18 144.043C1085.18 143.74 1085.25 143.462 1085.38 143.209C1085.52 142.953 1085.71 142.741 1085.95 142.573C1086.19 142.403 1086.46 142.294 1086.75 142.246V142.197C1086.37 142.119 1086.05 141.93 1085.81 141.632C1085.57 141.331 1085.45 140.982 1085.45 140.585C1085.45 140.208 1085.56 139.873 1085.78 139.58C1086 139.284 1086.3 139.052 1086.68 138.884C1087.07 138.713 1087.51 138.628 1088 138.628C1088.49 138.628 1088.92 138.713 1089.31 138.884C1089.69 139.054 1090 139.287 1090.22 139.583C1090.44 139.877 1090.55 140.21 1090.55 140.585C1090.55 140.985 1090.42 141.334 1090.18 141.632C1089.94 141.93 1089.62 142.119 1089.24 142.197V142.246C1089.53 142.294 1089.8 142.403 1090.04 142.573C1090.27 142.741 1090.46 142.953 1090.6 143.209C1090.75 143.462 1090.82 143.74 1090.82 144.043C1090.82 144.436 1090.7 144.788 1090.45 145.098C1090.21 145.408 1089.88 145.653 1089.45 145.833C1089.03 146.011 1088.54 146.099 1088 146.099ZM1088 144.97C1088.24 144.97 1088.45 144.926 1088.64 144.839C1088.82 144.749 1088.96 144.626 1089.06 144.469C1089.17 144.311 1089.22 144.129 1089.22 143.923C1089.22 143.712 1089.17 143.526 1089.06 143.365C1088.95 143.202 1088.81 143.074 1088.63 142.982C1088.44 142.887 1088.23 142.839 1088 142.839C1087.76 142.839 1087.55 142.887 1087.37 142.982C1087.18 143.074 1087.04 143.202 1086.93 143.365C1086.83 143.526 1086.78 143.712 1086.78 143.923C1086.78 144.129 1086.83 144.311 1086.93 144.469C1087.03 144.626 1087.17 144.749 1087.36 144.839C1087.54 144.926 1087.76 144.97 1088 144.97ZM1088 141.721C1088.2 141.721 1088.38 141.679 1088.54 141.597C1088.7 141.514 1088.82 141.399 1088.91 141.252C1089 141.105 1089.05 140.936 1089.05 140.744C1089.05 140.555 1089 140.389 1088.91 140.247C1088.82 140.103 1088.7 139.99 1088.54 139.91C1088.39 139.827 1088.21 139.786 1088 139.786C1087.79 139.786 1087.61 139.827 1087.45 139.91C1087.29 139.99 1087.17 140.103 1087.08 140.247C1086.99 140.389 1086.95 140.555 1086.95 140.744C1086.95 140.936 1086.99 141.105 1087.08 141.252C1087.17 141.399 1087.29 141.514 1087.45 141.597C1087.61 141.679 1087.79 141.721 1088 141.721Z" fill="#005422"/>
<path d="M1087.92 84.6278C1088.29 84.6278 1088.65 84.6906 1089 84.8161C1089.35 84.9415 1089.66 85.1416 1089.93 85.4162C1090.2 85.6908 1090.42 86.0554 1090.58 86.5099C1090.74 86.9621 1090.82 87.5173 1090.82 88.1754C1090.82 88.7933 1090.76 89.3449 1090.62 89.8303C1090.48 90.3132 1090.28 90.724 1090.02 91.0625C1089.76 91.401 1089.45 91.6591 1089.09 91.8366C1088.72 92.0118 1088.32 92.0994 1087.87 92.0994C1087.38 92.0994 1086.95 92.0059 1086.58 91.8189C1086.21 91.6295 1085.91 91.3726 1085.68 91.0483C1085.46 90.7216 1085.32 90.3546 1085.27 89.9474H1086.79C1086.85 90.2126 1086.97 90.4186 1087.16 90.5653C1087.35 90.7098 1087.59 90.782 1087.87 90.782C1088.34 90.782 1088.7 90.576 1088.95 90.1641C1089.19 89.7498 1089.32 89.1828 1089.32 88.4631H1089.27C1089.16 88.6761 1089.01 88.8596 1088.83 89.0135C1088.64 89.165 1088.43 89.2822 1088.19 89.3651C1087.96 89.4479 1087.7 89.4893 1087.44 89.4893C1087.01 89.4893 1086.63 89.3887 1086.29 89.1875C1085.95 88.9863 1085.69 88.7093 1085.49 88.3565C1085.3 88.0038 1085.2 87.6013 1085.2 87.1491C1085.2 86.6615 1085.31 86.227 1085.54 85.8459C1085.77 85.4647 1086.09 85.1664 1086.49 84.951C1086.9 84.7332 1087.38 84.6255 1087.92 84.6278ZM1087.93 85.8352C1087.69 85.8352 1087.48 85.892 1087.29 86.0057C1087.11 86.1193 1086.96 86.272 1086.85 86.4638C1086.74 86.6555 1086.69 86.8698 1086.69 87.1065C1086.69 87.3456 1086.75 87.5611 1086.85 87.7528C1086.96 87.9422 1087.1 88.0937 1087.28 88.2074C1087.47 88.3187 1087.68 88.3743 1087.92 88.3743C1088.09 88.3743 1088.26 88.3411 1088.41 88.2749C1088.56 88.2086 1088.69 88.1174 1088.8 88.0014C1088.92 87.883 1089.01 87.7469 1089.07 87.593C1089.13 87.4392 1089.17 87.2758 1089.17 87.103C1089.16 86.8733 1089.11 86.6626 1089 86.4709C1088.9 86.2791 1088.75 86.1252 1088.56 86.0092C1088.38 85.8932 1088.17 85.8352 1087.93 85.8352Z" fill="#005422"/>
<path d="M1084.81 30.7273V38H1083.28V32.1868H1083.23L1081.57 33.2308V31.8672L1083.37 30.7273H1084.81ZM1089.49 38.1598C1088.88 38.1574 1088.36 38.0071 1087.92 37.7088C1087.48 37.4105 1087.14 36.9785 1086.91 36.4126C1086.67 35.8468 1086.56 35.1662 1086.56 34.3707C1086.56 33.5777 1086.68 32.9018 1086.91 32.343C1087.15 31.7843 1087.48 31.3594 1087.92 31.0682C1088.36 30.7746 1088.89 30.6278 1089.49 30.6278C1090.1 30.6278 1090.63 30.7746 1091.06 31.0682C1091.5 31.3617 1091.84 31.7879 1092.08 32.3466C1092.32 32.9029 1092.43 33.5777 1092.43 34.3707C1092.43 35.1686 1092.31 35.8504 1092.08 36.4162C1091.84 36.982 1091.51 37.4141 1091.07 37.7124C1090.63 38.0107 1090.11 38.1598 1089.49 38.1598ZM1089.49 36.8849C1089.91 36.8849 1090.24 36.6754 1090.49 36.2564C1090.74 35.8374 1090.86 35.2088 1090.86 34.3707C1090.86 33.8191 1090.81 33.3598 1090.69 32.9929C1090.58 32.6259 1090.42 32.3501 1090.22 32.1655C1090.01 31.9808 1089.77 31.8885 1089.49 31.8885C1089.08 31.8885 1088.75 32.0956 1088.5 32.5099C1088.25 32.9242 1088.13 33.5445 1088.12 34.3707C1088.12 34.9295 1088.18 35.3958 1088.29 35.7699C1088.4 36.1416 1088.56 36.4209 1088.77 36.608C1088.98 36.7926 1089.22 36.8849 1089.49 36.8849Z" fill="#005422"/>
<path d="M985.766 57.3057C985.766 54.5442 988.004 52.3057 990.766 52.3057H1025.02C1027.79 52.3057 1030.02 54.5442 1030.02 57.3057V408.082C1030.02 410.844 1027.79 413.082 1025.02 413.082H990.766C988.004 413.082 985.766 410.844 985.766 408.082V57.3057Z" fill="#005422"/>
<rect x="1069" y="34" width="8" height="54" fill="#005422"/>
<rect x="1069" y="88" width="8" height="54" fill="#005422"/>
<rect x="1069" y="142" width="8" height="54" fill="#70AD47"/>
<rect x="1069" y="196" width="8" height="54" fill="#E69138"/>
<rect x="1069" y="250" width="8" height="54" fill="#E69138"/>
<rect x="1069" y="304" width="8" height="54" fill="#CC4125"/>
<rect x="1069" y="358" width="8" height="54" fill="#CC4125"/>
<path d="M1005.71 382.104V393.013H1003.74V384.027H1003.67L1001.12 385.657V383.846L1003.83 382.104H1005.71ZM1008.48 393.013V391.586L1012.27 387.873C1012.63 387.507 1012.93 387.182 1013.18 386.898C1013.42 386.614 1013.6 386.339 1013.72 386.073C1013.84 385.806 1013.9 385.522 1013.9 385.22C1013.9 384.876 1013.82 384.581 1013.67 384.336C1013.51 384.088 1013.3 383.896 1013.02 383.761C1012.75 383.626 1012.44 383.559 1012.09 383.559C1011.73 383.559 1011.42 383.633 1011.15 383.782C1010.88 383.928 1010.67 384.136 1010.52 384.405C1010.37 384.675 1010.3 384.997 1010.3 385.37H1008.42C1008.42 384.677 1008.58 384.075 1008.89 383.564C1009.21 383.052 1009.64 382.657 1010.2 382.376C1010.76 382.095 1011.4 381.955 1012.12 381.955C1012.85 381.955 1013.49 382.092 1014.04 382.365C1014.6 382.639 1015.03 383.013 1015.33 383.489C1015.64 383.965 1015.8 384.508 1015.8 385.119C1015.8 385.528 1015.72 385.929 1015.56 386.323C1015.41 386.717 1015.13 387.154 1014.74 387.633C1014.35 388.113 1013.8 388.693 1013.09 389.375L1011.21 391.288V391.362H1015.96V393.013H1008.48Z" fill="white"/>
<path d="M996.809 433.064H992.942V422.155H996.841C997.939 422.155 998.883 422.374 999.675 422.811C1000.47 423.244 1001.08 423.867 1001.5 424.68C1001.93 425.493 1002.15 426.466 1002.15 427.599C1002.15 428.736 1001.93 429.712 1001.5 430.529C1001.08 431.346 1000.46 431.972 999.665 432.409C998.869 432.846 997.917 433.064 996.809 433.064ZM995.249 431.088H996.714C997.395 431.088 997.969 430.968 998.434 430.726C998.903 430.481 999.254 430.103 999.489 429.591C999.727 429.077 999.846 428.412 999.846 427.599C999.846 426.793 999.727 426.134 999.489 425.623C999.254 425.112 998.905 424.735 998.439 424.494C997.974 424.252 997.401 424.132 996.719 424.132H995.249V431.088ZM1004.01 433.064V422.155H1011.36V424.057H1006.31V426.656H1010.98V428.558H1006.31V431.163H1011.38V433.064H1004.01ZM1022.97 425.975H1020.63C1020.59 425.673 1020.5 425.405 1020.37 425.17C1020.24 424.932 1020.07 424.73 1019.87 424.563C1019.66 424.396 1019.42 424.268 1019.15 424.18C1018.89 424.091 1018.6 424.046 1018.28 424.046C1017.72 424.046 1017.23 424.187 1016.81 424.467C1016.39 424.744 1016.06 425.149 1015.83 425.682C1015.6 426.211 1015.49 426.854 1015.49 427.61C1015.49 428.388 1015.6 429.041 1015.83 429.57C1016.07 430.099 1016.39 430.499 1016.81 430.769C1017.23 431.039 1017.72 431.173 1018.27 431.173C1018.58 431.173 1018.86 431.133 1019.12 431.051C1019.39 430.969 1019.63 430.85 1019.83 430.694C1020.04 430.534 1020.21 430.341 1020.34 430.113C1020.48 429.886 1020.58 429.627 1020.63 429.336L1022.97 429.346C1022.9 429.847 1022.75 430.33 1022.51 430.795C1022.27 431.257 1021.95 431.671 1021.55 432.036C1021.15 432.399 1020.67 432.686 1020.11 432.899C1019.56 433.109 1018.93 433.214 1018.23 433.214C1017.26 433.214 1016.39 432.993 1015.62 432.553C1014.86 432.113 1014.25 431.475 1013.81 430.641C1013.37 429.806 1013.15 428.796 1013.15 427.61C1013.15 426.42 1013.37 425.408 1013.82 424.574C1014.27 423.739 1014.87 423.104 1015.64 422.667C1016.41 422.226 1017.27 422.006 1018.23 422.006C1018.86 422.006 1019.45 422.095 1019.99 422.273C1020.53 422.45 1021.01 422.709 1021.43 423.05C1021.85 423.388 1022.19 423.801 1022.45 424.291C1022.72 424.781 1022.89 425.343 1022.97 425.975Z" fill="#005422"/>
<path d="M999.588 20.1491C998.767 20.1491 998.038 20.016 997.398 19.7496C996.763 19.4798 996.264 19.1122 995.902 18.647C995.539 18.1818 995.358 17.6545 995.358 17.065C995.358 16.6104 995.461 16.1932 995.667 15.8132C995.877 15.4297 996.161 15.1119 996.519 14.8597C996.878 14.604 997.279 14.4407 997.723 14.3697V14.2951C997.141 14.1779 996.669 13.8956 996.306 13.4482C995.944 12.9972 995.763 12.4734 995.763 11.8768C995.763 11.3121 995.928 10.8097 996.258 10.3693C996.589 9.92543 997.041 9.57741 997.617 9.32528C998.196 9.0696 998.852 8.94176 999.588 8.94176C1000.32 8.94176 1000.98 9.0696 1001.55 9.32528C1002.13 9.58097 1002.59 9.93075 1002.92 10.3746C1003.25 10.815 1003.41 11.3157 1003.42 11.8768C1003.41 12.4769 1003.23 13.0007 1002.86 13.4482C1002.5 13.8956 1002.03 14.1779 1001.46 14.2951V14.3697C1001.89 14.4407 1002.29 14.604 1002.65 14.8597C1003 15.1119 1003.29 15.4297 1003.5 15.8132C1003.71 16.1932 1003.82 16.6104 1003.82 17.065C1003.82 17.6545 1003.64 18.1818 1003.27 18.647C1002.91 19.1122 1002.41 19.4798 1001.77 19.7496C1001.14 20.016 1000.41 20.1491 999.588 20.1491ZM999.588 18.4553C999.953 18.4553 1000.27 18.3896 1000.55 18.2582C1000.82 18.1232 1001.03 17.9386 1001.19 17.7042C1001.34 17.4663 1001.42 17.1928 1001.42 16.8839C1001.42 16.5678 1001.34 16.2891 1001.18 16.0476C1001.02 15.8026 1000.8 15.6108 1000.53 15.4723C1000.26 15.3303 999.943 15.2592 999.588 15.2592C999.236 15.2592 998.922 15.3303 998.645 15.4723C998.368 15.6108 998.149 15.8026 997.99 16.0476C997.833 16.2891 997.755 16.5678 997.755 16.8839C997.755 17.1928 997.832 17.4663 997.984 17.7042C998.137 17.9386 998.352 18.1232 998.629 18.2582C998.906 18.3896 999.225 18.4553 999.588 18.4553ZM999.588 13.5813C999.893 13.5813 1000.16 13.5192 1000.4 13.3949C1000.64 13.2706 1000.83 13.0984 1000.96 12.8782C1001.1 12.658 1001.16 12.4041 1001.16 12.1165C1001.16 11.8324 1001.1 11.5838 1000.96 11.3707C1000.83 11.1541 1000.64 10.9854 1000.41 10.8647C1000.17 10.7404 999.9 10.6783 999.588 10.6783C999.279 10.6783 999.005 10.7404 998.767 10.8647C998.529 10.9854 998.343 11.1541 998.208 11.3707C998.077 11.5838 998.011 11.8324 998.011 12.1165C998.011 12.4041 998.078 12.658 998.213 12.8782C998.348 13.0984 998.535 13.2706 998.773 13.3949C999.011 13.5192 999.282 13.5813 999.588 13.5813ZM1006.63 20.1385C1006.27 20.1385 1005.97 20.0142 1005.72 19.7656C1005.47 19.5135 1005.35 19.2116 1005.35 18.8601C1005.35 18.5121 1005.47 18.2138 1005.72 17.9652C1005.97 17.7166 1006.27 17.5923 1006.63 17.5923C1006.97 17.5923 1007.26 17.7166 1007.52 17.9652C1007.78 18.2138 1007.9 18.5121 1007.9 18.8601C1007.9 19.0945 1007.84 19.3093 1007.72 19.5046C1007.61 19.6964 1007.45 19.8509 1007.26 19.968C1007.07 20.0817 1006.86 20.1385 1006.63 20.1385ZM1013.64 20.1491C1013.08 20.1456 1012.54 20.0515 1012.02 19.8668C1011.5 19.6822 1011.03 19.3821 1010.62 18.9666C1010.21 18.5511 1009.88 18.0007 1009.64 17.3153C1009.4 16.63 1009.29 15.7884 1009.29 14.7905C1009.29 13.8743 1009.39 13.0558 1009.6 12.3349C1009.81 11.6104 1010.11 10.9961 1010.49 10.4918C1010.89 9.98757 1011.35 9.60405 1011.9 9.34126C1012.44 9.07493 1013.05 8.94176 1013.72 8.94176C1014.45 8.94176 1015.09 9.08381 1015.65 9.3679C1016.21 9.64844 1016.66 10.0302 1016.99 10.5131C1017.33 10.9961 1017.54 11.5376 1017.61 12.1378H1015.34C1015.25 11.7578 1015.06 11.4595 1014.78 11.2429C1014.49 11.0263 1014.14 10.918 1013.72 10.918C1013.01 10.918 1012.47 11.2269 1012.1 11.8448C1011.74 12.4627 1011.55 13.3026 1011.54 14.3643H1011.62C1011.78 14.0412 1012 13.766 1012.28 13.5387C1012.56 13.3079 1012.88 13.1321 1013.23 13.0114C1013.59 12.8871 1013.97 12.8249 1014.37 12.8249C1015.01 12.8249 1015.59 12.9776 1016.09 13.283C1016.6 13.5849 1016.99 14.0004 1017.29 14.5295C1017.58 15.0586 1017.72 15.6641 1017.72 16.3459C1017.72 17.0845 1017.55 17.7415 1017.21 18.3168C1016.87 18.892 1016.39 19.343 1015.77 19.6697C1015.16 19.9929 1014.45 20.1527 1013.64 20.1491ZM1013.63 18.3381C1013.99 18.3381 1014.3 18.2528 1014.59 18.0824C1014.87 17.9119 1015.09 17.6811 1015.25 17.3899C1015.41 17.0987 1015.49 16.772 1015.49 16.4098C1015.49 16.0476 1015.41 15.7227 1015.25 15.435C1015.09 15.1474 1014.87 14.9183 1014.6 14.7479C1014.32 14.5774 1014 14.4922 1013.65 14.4922C1013.38 14.4922 1013.13 14.5419 1012.91 14.6413C1012.68 14.7408 1012.49 14.8793 1012.32 15.0568C1012.15 15.2344 1012.02 15.4403 1011.92 15.6747C1011.83 15.9055 1011.78 16.1523 1011.78 16.4151C1011.78 16.7667 1011.86 17.0881 1012.02 17.3793C1012.18 17.6705 1012.4 17.9031 1012.68 18.0771C1012.96 18.2511 1013.28 18.3381 1013.63 18.3381Z" fill="#005422"/>
<path d="M1030.02 72.7004C1030.02 76.5032 1027.87 79.9769 1024.46 81.6633L1012.33 87.6649C1009.53 89.0477 1006.26 89.0477 1003.46 87.6649L991.331 81.6633C987.923 79.9769 985.766 76.5032 985.766 72.7005V56.2024C985.766 52.4256 987.893 48.971 991.266 47.2717L1003.4 41.1611C1006.23 39.7353 1009.56 39.7353 1012.39 41.1611L1024.52 47.2717C1027.9 48.971 1030.02 52.4256 1030.02 56.2024V72.7004Z" fill="#005422"/>
<path d="M944.259 138.806C944.259 142.609 942.102 146.082 938.694 147.769L926.564 153.77C923.769 155.153 920.489 155.153 917.695 153.77L905.565 147.769C902.157 146.082 900 142.609 900 138.806V122.308C900 118.531 902.128 115.076 905.501 113.377L917.63 107.267C920.46 105.841 923.799 105.841 926.629 107.267L938.758 113.377C942.131 115.076 944.259 118.531 944.259 122.308V138.806Z" fill="#70AD47"/>
<path d="M858.259 196.806C858.259 200.609 856.102 204.082 852.694 205.769L840.564 211.77C837.769 213.153 834.489 213.153 831.695 211.77L819.565 205.769C816.157 204.082 814 200.609 814 196.806V180.308C814 176.531 816.128 173.076 819.501 171.377L831.63 165.267C834.46 163.841 837.799 163.841 840.629 165.267L852.758 171.377C856.131 173.076 858.259 176.531 858.259 180.308V196.806Z" fill="#E69138"/>
<path d="M772.259 93.8059C772.259 97.6087 770.102 101.082 766.694 102.769L754.564 108.77C751.769 110.153 748.489 110.153 745.695 108.77L733.565 102.769C730.157 101.082 728 97.6087 728 93.8059V77.3079C728 73.5311 730.128 70.0764 733.501 68.3772L745.63 62.2665C748.46 60.8408 751.799 60.8408 754.629 62.2665L766.758 68.3772C770.131 70.0764 772.259 73.5311 772.259 77.3079V93.8059Z" fill="#005422"/>
<path d="M686.259 196.806C686.259 200.609 684.102 204.082 680.694 205.769L668.564 211.77C665.769 213.153 662.489 213.153 659.695 211.77L647.565 205.769C644.157 204.082 642 200.609 642 196.806V180.308C642 176.531 644.128 173.076 647.501 171.377L659.63 165.267C662.46 163.841 665.799 163.841 668.629 165.267L680.758 171.377C684.131 173.076 686.259 176.531 686.259 180.308V196.806Z" fill="#70AD47"/>
<path d="M600.259 281.806C600.259 285.609 598.102 289.082 594.694 290.769L582.564 296.77C579.769 298.153 576.489 298.153 573.695 296.77L561.565 290.769C558.157 289.082 556 285.609 556 281.806V265.308C556 261.531 558.128 258.076 561.501 256.377L573.63 250.267C576.46 248.841 579.799 248.841 582.629 250.267L594.758 256.377C598.131 258.076 600.259 261.531 600.259 265.308V281.806Z" fill="#CC4125"/>
<path d="M514.259 80.8059C514.259 84.6087 512.102 88.0824 508.694 89.7688L496.564 95.7703C493.769 97.1532 490.489 97.1532 487.695 95.7703L475.565 89.7688C472.157 88.0824 470 84.6087 470 80.8059V64.3079C470 60.5311 472.128 57.0764 475.501 55.3772L487.63 49.2665C490.46 47.8408 493.799 47.8408 496.629 49.2665L508.758 55.3772C512.131 57.0764 514.259 60.5311 514.259 64.3079V80.8059Z" fill="#005422"/>
<path d="M429.259 209.806C429.259 213.609 427.102 217.082 423.694 218.769L411.564 224.77C408.769 226.153 405.489 226.153 402.695 224.77L390.565 218.769C387.157 217.082 385 213.609 385 209.806V193.308C385 189.531 387.128 186.076 390.501 184.377L402.63 178.267C405.46 176.841 408.799 176.841 411.629 178.267L423.758 184.377C427.131 186.076 429.259 189.531 429.259 193.308V209.806Z" fill="#E69138"/>
<path d="M343.259 226.806C343.259 230.609 341.102 234.082 337.694 235.769L325.564 241.77C322.769 243.153 319.489 243.153 316.695 241.77L304.565 235.769C301.157 234.082 299 230.609 299 226.806V210.308C299 206.531 301.128 203.076 304.501 201.377L316.63 195.267C319.46 193.841 322.799 193.841 325.629 195.267L337.758 201.377C341.131 203.076 343.259 206.531 343.259 210.308V226.806Z" fill="#E69138"/>
<path d="M257.259 136.806C257.259 140.609 255.102 144.082 251.694 145.769L239.564 151.77C236.769 153.153 233.489 153.153 230.695 151.77L218.565 145.769C215.157 144.082 213 140.609 213 136.806V120.308C213 116.531 215.128 113.076 218.501 111.377L230.63 105.267C233.46 103.841 236.799 103.841 239.629 105.267L251.758 111.377C255.131 113.076 257.259 116.531 257.259 120.308V136.806Z" fill="#005422"/>
<path d="M171.259 167.806C171.259 171.609 169.102 175.082 165.694 176.769L153.564 182.77C150.769 184.153 147.489 184.153 144.695 182.77L132.565 176.769C129.157 175.082 127 171.609 127 167.806V151.308C127 147.531 129.128 144.076 132.501 142.377L144.63 136.267C147.46 134.841 150.799 134.841 153.629 136.267L165.758 142.377C169.131 144.076 171.259 147.531 171.259 151.308V167.806Z" fill="#70AD47"/>
<path d="M82.2588 63.8059C82.2588 67.6087 80.1019 71.0824 76.6936 72.7688L64.5642 78.7703C61.7694 80.1532 58.4895 80.1532 55.6947 78.7703L43.5652 72.7688C40.1569 71.0824 38 67.6087 38 63.8059V47.3079C38 43.5311 40.1279 40.0764 43.5008 38.3772L55.6302 32.2665C58.4603 30.8408 61.7986 30.8408 64.6286 32.2665L76.758 38.3772C80.131 40.0764 82.2588 43.5311 82.2588 47.3079V63.8059Z" fill="#005422"/>
<line x1="23.0012" y1="109" x2="1043" y2="110.201" stroke="#005422" stroke-width="2" stroke-dasharray="6 6"/>
</svg>
