<svg width="24" height="24" viewBox="0 0 24 24" fill="none" xmlns="http://www.w3.org/2000/svg">
<path d="M15.5425 2.60344C17.0183 4.04379 17.942 5.93446 18.159 7.95917C18.3485 9.72651 17.9895 11.5024 17.1381 13.0604C16.9264 13.4478 16.9688 13.9747 17.3311 14.227C17.6623 14.4853 18.1095 14.8082 18.6726 15.1795C19.2356 15.5669 19.6 15.8091 19.7656 15.9382C20.4612 16.4387 20.9745 16.8584 21.3223 17.1974C21.8523 17.714 22.316 18.2468 22.7134 18.8118C23.1275 19.3768 23.4421 19.9257 23.6905 20.4908C23.9224 21.0558 24.0383 21.5886 23.9886 22.1052C23.9555 22.6218 23.7568 23.0576 23.3925 23.4128C23.0281 23.768 22.581 23.9617 22.051 23.994C21.5376 24.0263 20.9745 23.9294 20.4115 23.6872C19.8318 23.4612 19.2522 23.1384 18.6891 22.7348C18.1095 22.3473 17.563 21.8953 17.033 21.3787C16.6852 21.0397 16.2547 20.5392 15.7578 19.8773C15.5922 19.6674 15.3438 19.3123 14.9795 18.8118C14.6151 18.2952 14.317 17.8916 14.052 17.5526C13.9685 17.4508 13.8899 17.357 13.8136 17.2688C13.5333 16.9443 13.0682 16.8817 12.6723 17.0464C11.118 17.6929 9.40482 17.9072 7.72475 17.6579C5.80649 17.3734 4.03146 16.4994 2.65805 15.1633C-0.886015 11.6924 -0.886015 6.05821 2.65805 2.60344C3.50369 1.77811 4.50793 1.12337 5.61334 0.676652C6.71875 0.229934 7.90365 0 9.10028 0C10.2969 0 11.4818 0.229934 12.5872 0.676652C13.6926 1.12337 14.6969 1.77811 15.5425 2.60344ZM13.2074 12.8709C14.2893 11.8085 14.8965 10.3723 14.8965 8.87531C14.8965 7.37834 14.2893 5.94208 13.2074 4.87972C12.6697 4.35401 12.0309 3.93691 11.3275 3.65231C10.6242 3.36771 9.87011 3.22122 9.10857 3.22122C8.34702 3.22122 7.59296 3.36771 6.8896 3.65231C6.18624 3.93691 5.54741 4.35401 5.00971 4.87972C4.47042 5.40386 4.04254 6.0266 3.75058 6.71224C3.45863 7.39788 3.30835 8.13295 3.30835 8.87531C3.30835 9.61767 3.45863 10.3527 3.75058 11.0384C4.04254 11.724 4.47042 12.3467 5.00971 12.8709C5.54741 13.3966 6.18624 13.8137 6.8896 14.0983C7.59296 14.3829 8.34702 14.5294 9.10857 14.5294C9.87011 14.5294 10.6242 14.3829 11.3275 14.0983C12.0309 13.8137 12.6697 13.3966 13.2074 12.8709Z" fill="white"/>
</svg>
