<svg width="512" height="512" viewBox="0 0 512 512" fill="none" xmlns="http://www.w3.org/2000/svg">
<path fill-rule="evenodd" clip-rule="evenodd" d="M169.003 114.473C154.781 122.685 140.559 130.896 126.336 139.106V89.8379L169.003 114.473Z" fill="#FC685B"/>
<path fill-rule="evenodd" clip-rule="evenodd" d="M169.003 114.473C154.781 122.685 140.559 130.896 126.336 139.106V130.986L161.971 110.413L169.003 114.473Z" fill="#FB4737"/>
<path fill-rule="evenodd" clip-rule="evenodd" d="M118.34 86.0811C118.34 83.9593 119.183 81.9245 120.683 80.4242C122.183 78.9239 124.218 78.0811 126.34 78.0811C128.462 78.0811 130.496 78.9239 131.997 80.4242C133.497 81.9245 134.34 83.9593 134.34 86.0811V184.833C134.34 186.955 133.497 188.99 131.997 190.49C130.496 191.99 128.462 192.833 126.34 192.833C124.218 192.833 122.183 191.99 120.683 190.49C119.183 188.99 118.34 186.955 118.34 184.833V86.0811Z" fill="#465759"/>
<path fill-rule="evenodd" clip-rule="evenodd" d="M120.46 80.6564C121.552 79.4736 122.975 78.6476 124.543 78.2862C126.111 77.9249 127.752 78.0451 129.251 78.631C130.75 79.217 132.038 80.2415 132.946 81.5707C133.853 82.8998 134.339 84.4719 134.339 86.0814V184.833C134.339 185.948 134.106 187.051 133.655 188.07C133.204 189.09 132.545 190.004 131.72 190.753C130.895 191.503 129.923 192.072 128.865 192.424C127.807 192.776 126.688 192.903 125.578 192.797C126.944 191.321 127.701 189.384 127.699 187.372V88.6204C127.699 86.6305 126.957 84.7121 125.618 83.2396C124.28 81.7671 122.441 80.8461 120.46 80.6564Z" fill="#3E4D4F"/>
<path fill-rule="evenodd" clip-rule="evenodd" d="M62.3159 165.839C48.0943 174.051 33.8719 182.262 19.6489 190.472V141.204L62.3159 165.839Z" fill="#FC685B"/>
<path fill-rule="evenodd" clip-rule="evenodd" d="M62.3159 165.839C48.0943 174.051 33.8719 182.262 19.6489 190.472V182.352L55.2839 161.779L62.3159 165.839Z" fill="#FB4737"/>
<path fill-rule="evenodd" clip-rule="evenodd" d="M11.6519 137.447C11.6519 135.326 12.4947 133.291 13.995 131.79C15.4953 130.29 17.5301 129.447 19.6519 129.447C21.7736 129.447 23.8084 130.29 25.3087 131.79C26.809 133.291 27.6519 135.326 27.6519 137.447V236.199C27.6519 238.321 26.809 240.356 25.3087 241.856C23.8084 243.356 21.7736 244.199 19.6519 244.199C17.5301 244.199 15.4953 243.356 13.995 241.856C12.4947 240.356 11.6519 238.321 11.6519 236.199V137.447Z" fill="#465759"/>
<path fill-rule="evenodd" clip-rule="evenodd" d="M13.7729 132.022C14.8645 130.839 16.2875 130.013 17.8559 129.651C19.4244 129.29 21.0653 129.41 22.5644 129.996C24.0635 130.582 25.3509 131.607 26.2586 132.936C27.1662 134.265 27.6518 135.837 27.6519 137.447V236.199C27.652 237.313 27.419 238.416 26.9681 239.435C26.5171 240.455 25.858 241.369 25.0331 242.119C24.2082 242.868 23.2358 243.438 22.178 243.79C21.1203 244.142 20.0007 244.269 18.891 244.163C20.2569 242.687 21.0145 240.749 21.0119 238.738V139.986C21.0116 137.996 20.2698 136.077 18.9313 134.605C17.5929 133.132 15.7538 132.211 13.7729 132.022Z" fill="#3E4D4F"/>
<path fill-rule="evenodd" clip-rule="evenodd" d="M500.348 165.839C486.126 174.051 471.904 182.262 457.681 190.472V141.204L500.348 165.839Z" fill="#FC685B"/>
<path fill-rule="evenodd" clip-rule="evenodd" d="M500.348 165.839C486.126 174.051 471.904 182.262 457.681 190.472V182.352L493.316 161.779L500.348 165.839Z" fill="#FB4737"/>
<path fill-rule="evenodd" clip-rule="evenodd" d="M449.684 137.447C449.684 135.326 450.527 133.291 452.027 131.79C453.528 130.29 455.562 129.447 457.684 129.447C459.806 129.447 461.841 130.29 463.341 131.79C464.841 133.291 465.684 135.326 465.684 137.447V236.199C465.684 238.321 464.841 240.356 463.341 241.856C461.841 243.356 459.806 244.199 457.684 244.199C455.562 244.199 453.528 243.356 452.027 241.856C450.527 240.356 449.684 238.321 449.684 236.199V137.447Z" fill="#465759"/>
<path fill-rule="evenodd" clip-rule="evenodd" d="M451.805 132.022C452.896 130.839 454.319 130.013 455.888 129.651C457.456 129.29 459.097 129.41 460.596 129.996C462.095 130.582 463.383 131.607 464.29 132.936C465.198 134.265 465.684 135.837 465.684 137.447V236.199C465.684 237.313 465.451 238.416 465 239.435C464.549 240.455 463.89 241.369 463.065 242.119C462.24 242.868 461.268 243.438 460.21 243.79C459.152 244.142 458.032 244.269 456.923 244.163C458.289 242.687 459.046 240.749 459.044 238.738V139.986C459.043 137.996 458.302 136.078 456.963 134.605C455.625 133.133 453.786 132.212 451.806 132.022H451.805Z" fill="#3E4D4F"/>
<path fill-rule="evenodd" clip-rule="evenodd" d="M398.367 114.473C384.145 122.685 369.923 130.896 355.7 139.106V89.8379L398.367 114.473Z" fill="#FC685B"/>
<path fill-rule="evenodd" clip-rule="evenodd" d="M398.367 114.473C384.145 122.685 369.923 130.896 355.7 139.106V130.986L391.335 110.413L398.367 114.473Z" fill="#FB4737"/>
<path fill-rule="evenodd" clip-rule="evenodd" d="M347.704 86.0811C347.704 83.9593 348.547 81.9245 350.047 80.4242C351.548 78.9239 353.582 78.0811 355.704 78.0811C357.826 78.0811 359.861 78.9239 361.361 80.4242C362.861 81.9245 363.704 83.9593 363.704 86.0811V184.833C363.704 186.955 362.861 188.99 361.361 190.49C359.861 191.99 357.826 192.833 355.704 192.833C353.582 192.833 351.548 191.99 350.047 190.49C348.547 188.99 347.704 186.955 347.704 184.833V86.0811Z" fill="#465759"/>
<path fill-rule="evenodd" clip-rule="evenodd" d="M349.824 80.6564C350.915 79.4736 352.338 78.6476 353.907 78.2862C355.475 77.9249 357.116 78.0451 358.615 78.631C360.114 79.217 361.402 80.2415 362.309 81.5707C363.217 82.8998 363.703 84.4719 363.703 86.0814V184.833C363.703 185.948 363.47 187.051 363.019 188.07C362.568 189.09 361.909 190.004 361.084 190.753C360.259 191.503 359.287 192.072 358.229 192.424C357.171 192.776 356.051 192.903 354.942 192.797C356.308 191.321 357.065 189.384 357.063 187.372V88.6204C357.062 86.6305 356.321 84.7121 354.982 83.2396C353.644 81.7671 351.805 80.8461 349.824 80.6564Z" fill="#3E4D4F"/>
<path fill-rule="evenodd" clip-rule="evenodd" d="M283.686 105.517C269.464 113.729 255.242 121.94 241.019 130.15V80.8818L283.686 105.517Z" fill="#FC685B"/>
<path fill-rule="evenodd" clip-rule="evenodd" d="M283.686 105.517C269.464 113.729 255.242 121.94 241.019 130.15V122.03L276.654 101.457L283.686 105.517Z" fill="#FB4737"/>
<path fill-rule="evenodd" clip-rule="evenodd" d="M233.022 77.125C233.022 75.0033 233.865 72.9684 235.365 71.4681C236.865 69.9679 238.9 69.125 241.022 69.125C243.144 69.125 245.179 69.9679 246.679 71.4681C248.179 72.9684 249.022 75.0033 249.022 77.125V175.877C249.022 177.999 248.179 180.034 246.679 181.534C245.179 183.034 243.144 183.877 241.022 183.877C238.9 183.877 236.865 183.034 235.365 181.534C233.865 180.034 233.022 177.999 233.022 175.877V77.125Z" fill="#465759"/>
<path fill-rule="evenodd" clip-rule="evenodd" d="M235.143 71.7004C236.235 70.5176 237.658 69.6915 239.226 69.3302C240.794 68.9689 242.435 69.089 243.935 69.675C245.434 70.2609 246.721 71.2854 247.629 72.6146C248.536 73.9438 249.022 75.5158 249.022 77.1254V175.877C249.022 176.992 248.789 178.095 248.338 179.114C247.887 180.134 247.228 181.047 246.403 181.797C245.578 182.547 244.606 183.116 243.548 183.468C242.49 183.82 241.371 183.947 240.261 183.841C241.627 182.365 242.385 180.427 242.382 178.416V79.6644C242.382 77.6745 241.64 75.7561 240.301 74.2836C238.963 72.8111 237.124 71.8901 235.143 71.7004Z" fill="#3E4D4F"/>
<path fill-rule="evenodd" clip-rule="evenodd" d="M470.388 379.321C470.388 414.42 367.698 442.876 241.023 442.876C114.348 442.876 11.6548 414.42 11.6548 379.321V226.365C11.6548 191.266 114.345 162.811 241.023 162.811C367.701 162.811 470.388 191.266 470.388 226.365V379.321Z" fill="#8696A3"/>
<path fill-rule="evenodd" clip-rule="evenodd" d="M470.388 379.321C470.388 414.42 367.698 442.876 241.023 442.876C237.671 442.876 234.34 442.852 231.023 442.812C353.057 441.361 450.388 413.492 450.388 379.321V226.365C450.388 192.194 353.056 164.326 231.023 162.875C234.34 162.836 237.671 162.811 241.023 162.811C367.698 162.811 470.388 191.266 470.388 226.365V379.321Z" fill="#788A98"/>
<path fill-rule="evenodd" clip-rule="evenodd" d="M99.5318 276.134C46.5918 264.404 12.3808 246.241 11.6638 225.816L11.6578 226.08V226.366L11.6558 227.051V308.688C22.5398 341.135 121.075 366.537 241.024 366.537C360.973 366.537 459.504 341.136 470.389 308.689V226.366C470.389 226.151 470.385 225.936 470.377 225.722C469.763 246.187 435.528 264.387 382.506 276.135C343.531 284.771 294.405 289.92 241.019 289.92C187.633 289.92 138.507 284.77 99.5318 276.135V276.134Z" fill="#96A4AF"/>
<path fill-rule="evenodd" clip-rule="evenodd" d="M450.388 329.358C461.004 322.966 467.932 316.007 470.388 308.688V226.365C470.388 226.15 470.384 225.935 470.376 225.721C470.099 234.951 462.981 243.719 450.388 251.644V329.358Z" fill="#8696A3"/>
<path fill-rule="evenodd" clip-rule="evenodd" d="M364.923 309.103C364.923 306.981 365.766 304.946 367.266 303.446C368.766 301.946 370.801 301.103 372.923 301.103C375.045 301.103 377.079 301.946 378.58 303.446C380.08 304.946 380.923 306.981 380.923 309.103V324.061C380.923 326.182 380.08 328.217 378.58 329.718C377.079 331.218 375.045 332.061 372.923 332.061C370.801 332.061 368.766 331.218 367.266 329.718C365.766 328.217 364.923 326.182 364.923 324.061V309.103ZM416.025 295.43C416.025 293.308 416.868 291.273 418.368 289.773C419.868 288.273 421.903 287.43 424.025 287.43C426.147 287.43 428.181 288.273 429.682 289.773C431.182 291.273 432.025 293.308 432.025 295.43V310.388C432.025 312.509 431.182 314.544 429.682 316.045C428.181 317.545 426.147 318.388 424.025 318.388C421.903 318.388 419.868 317.545 418.368 316.045C416.868 314.544 416.025 312.509 416.025 310.388V295.43ZM50.4248 295.577C50.4248 293.455 51.2677 291.42 52.768 289.92C54.2682 288.42 56.3031 287.577 58.4248 287.577C60.5465 287.577 62.5814 288.42 64.0817 289.92C65.582 291.42 66.4248 293.455 66.4248 295.577V310.534C66.4248 312.655 65.582 314.69 64.0817 316.191C62.5814 317.691 60.5465 318.534 58.4248 318.534C56.3031 318.534 54.2682 317.691 52.768 316.191C51.2677 314.69 50.4248 312.655 50.4248 310.534V295.577ZM101.545 309.189C101.545 307.067 102.388 305.032 103.888 303.532C105.388 302.032 107.423 301.189 109.545 301.189C111.667 301.189 113.701 302.032 115.202 303.532C116.702 305.032 117.545 307.067 117.545 309.189V324.146C117.545 326.267 116.702 328.302 115.202 329.803C113.701 331.303 111.667 332.146 109.545 332.146C107.423 332.146 105.388 331.303 103.888 329.803C102.388 328.302 101.545 326.267 101.545 324.146V309.189ZM153.934 316.798C153.934 314.676 154.777 312.641 156.277 311.141C157.777 309.641 159.812 308.798 161.934 308.798C164.056 308.798 166.09 309.641 167.591 311.141C169.091 312.641 169.934 314.676 169.934 316.798V331.756C169.934 333.877 169.091 335.912 167.591 337.413C166.09 338.913 164.056 339.756 161.934 339.756C159.812 339.756 157.777 338.913 156.277 337.413C154.777 335.912 153.934 333.877 153.934 331.756V316.798ZM206.764 320.253C206.764 318.131 207.607 316.096 209.107 314.596C210.607 313.096 212.642 312.253 214.764 312.253C216.886 312.253 218.92 313.096 220.421 314.596C221.921 316.096 222.764 318.131 222.764 320.253V335.211C222.764 337.332 221.921 339.367 220.421 340.868C218.92 342.368 216.886 343.211 214.764 343.211C212.642 343.211 210.607 342.368 209.107 340.868C207.607 339.367 206.764 337.332 206.764 335.211V320.253ZM259.71 320.238C259.71 318.116 260.553 316.081 262.053 314.581C263.553 313.081 265.588 312.238 267.71 312.238C269.832 312.238 271.866 313.081 273.367 314.581C274.867 316.081 275.71 318.116 275.71 320.238V335.195C275.71 337.316 274.867 339.351 273.367 340.852C271.866 342.352 269.832 343.195 267.71 343.195C265.588 343.195 263.553 342.352 262.053 340.852C260.553 339.351 259.71 337.316 259.71 335.195V320.238ZM312.539 316.751C312.539 314.629 313.382 312.594 314.882 311.094C316.382 309.594 318.417 308.751 320.539 308.751C322.661 308.751 324.695 309.594 326.196 311.094C327.696 312.594 328.539 314.629 328.539 316.751V331.708C328.539 333.829 327.696 335.864 326.196 337.365C324.695 338.865 322.661 339.708 320.539 339.708C318.417 339.708 316.382 338.865 314.882 337.365C313.382 335.864 312.539 333.829 312.539 331.708V316.751ZM282.768 389.358H199.275C197.95 389.36 196.679 389.888 195.742 390.825C194.805 391.762 194.277 393.032 194.275 394.358V441.555C209.368 442.421 225.003 442.876 241.023 442.876C257.043 442.876 272.676 442.421 287.767 441.555V394.358C287.767 391.604 285.521 389.358 282.767 389.358H282.768Z" fill="#EFF4F7"/>
<path fill-rule="evenodd" clip-rule="evenodd" d="M282.768 389.358H199.275C197.95 389.361 196.679 389.889 195.742 390.826C194.805 391.763 194.278 393.033 194.275 394.358V441.555C197.352 441.732 200.452 441.891 203.573 442.033V403.14C203.573 400.386 205.819 398.14 208.573 398.14H287.767V394.358C287.767 391.604 285.521 389.358 282.767 389.358H282.768Z" fill="#DEE8EE"/>
<path fill-rule="evenodd" clip-rule="evenodd" d="M241.019 289.919C367.35 289.919 470.386 260.828 470.386 225.16C470.386 189.492 367.35 160.401 241.019 160.401C114.688 160.401 11.6519 189.492 11.6519 225.16C11.6519 260.828 114.688 289.919 241.019 289.919Z" fill="#64B5F6"/>
<path fill-rule="evenodd" clip-rule="evenodd" d="M466.045 212.58C445.303 182.836 352.447 160.401 241.018 160.401C114.343 160.401 11.6509 189.395 11.6509 225.16C11.6509 233.102 16.7249 240.709 25.9909 247.74C23.1529 243.67 21.6509 239.465 21.6509 235.16C21.6509 199.394 124.342 170.401 251.018 170.401C349.564 170.401 433.584 187.949 466.045 212.58Z" fill="#42A5F5"/>
<path fill-rule="evenodd" clip-rule="evenodd" d="M166.599 273.653C166.968 274.634 167.141 275.678 167.107 276.725C167.073 277.773 166.833 278.803 166.4 279.758C165.968 280.712 165.352 281.573 164.587 282.289C163.822 283.006 162.924 283.565 161.943 283.934C160.962 284.303 159.918 284.476 158.871 284.442C157.823 284.408 156.793 284.168 155.838 283.735C154.884 283.303 154.023 282.687 153.307 281.922C152.59 281.157 152.031 280.259 151.662 279.278L123.201 203.946C122.455 201.965 122.527 199.769 123.4 197.841C124.273 195.913 125.876 194.411 127.857 193.665C129.838 192.919 132.034 192.991 133.962 193.864C135.89 194.737 137.392 196.34 138.138 198.321L166.599 273.653ZM310.674 275.183C309.928 277.164 308.426 278.767 306.498 279.64C304.57 280.513 302.374 280.585 300.393 279.839C298.412 279.093 296.809 277.591 295.936 275.663C295.063 273.735 294.991 271.539 295.737 269.558L322.651 198.321C323.02 197.34 323.579 196.442 324.296 195.677C325.012 194.912 325.873 194.296 326.827 193.864C327.782 193.431 328.812 193.191 329.86 193.157C330.907 193.123 331.951 193.296 332.932 193.665C333.913 194.034 334.811 194.593 335.576 195.31C336.341 196.026 336.957 196.887 337.389 197.841C337.822 198.796 338.062 199.826 338.096 200.874C338.13 201.921 337.957 202.965 337.588 203.946L310.674 275.183ZM238.395 270.179C238.395 272.301 237.552 274.336 236.052 275.836C234.552 277.336 232.517 278.179 230.395 278.179C228.273 278.179 226.238 277.336 224.738 275.836C223.238 274.336 222.395 272.301 222.395 270.179V194.624C222.395 192.502 223.238 190.467 224.738 188.967C226.238 187.467 228.273 186.624 230.395 186.624C232.517 186.624 234.552 187.467 236.052 188.967C237.552 190.467 238.395 192.502 238.395 194.624V270.179Z" fill="#42A5F5"/>
<path fill-rule="evenodd" clip-rule="evenodd" d="M177.227 271.756C177.596 272.736 177.769 273.78 177.735 274.828C177.701 275.875 177.461 276.906 177.028 277.86C176.596 278.815 175.98 279.675 175.215 280.392C174.45 281.108 173.552 281.667 172.571 282.037C171.59 282.406 170.546 282.578 169.499 282.544C168.451 282.51 167.421 282.27 166.466 281.838C165.511 281.405 164.651 280.789 163.935 280.025C163.218 279.26 162.659 278.361 162.29 277.381L133.829 202.049C133.083 200.068 133.154 197.872 134.028 195.944C134.901 194.016 136.504 192.514 138.485 191.768C140.466 191.022 142.662 191.093 144.59 191.966C146.518 192.839 148.02 194.443 148.766 196.424L177.227 271.756ZM321.301 273.286C320.555 275.266 319.053 276.87 317.125 277.743C315.197 278.616 313.001 278.687 311.02 277.942C309.039 277.196 307.436 275.693 306.563 273.765C305.689 271.837 305.618 269.641 306.364 267.661L333.278 196.424C333.647 195.443 334.206 194.544 334.923 193.78C335.639 193.015 336.499 192.399 337.454 191.966C338.409 191.534 339.439 191.294 340.487 191.26C341.534 191.226 342.578 191.398 343.559 191.768C344.54 192.137 345.438 192.696 346.203 193.412C346.968 194.129 347.584 194.989 348.016 195.944C348.449 196.898 348.689 197.929 348.723 198.976C348.757 200.024 348.584 201.068 348.215 202.049L321.301 273.286ZM249.022 268.281C249.022 270.402 248.179 272.437 246.679 273.937C245.178 275.438 243.144 276.281 241.022 276.281C238.9 276.281 236.865 275.438 235.365 273.937C233.865 272.437 233.022 270.402 233.022 268.281V192.726C233.022 190.604 233.865 188.569 235.365 187.069C236.865 185.568 238.9 184.726 241.022 184.726C243.144 184.726 245.178 185.568 246.679 187.069C248.179 188.569 249.022 190.604 249.022 192.726V268.281Z" fill="#465759"/>
<path fill-rule="evenodd" clip-rule="evenodd" d="M241.019 289.919C294.406 289.919 343.531 284.769 382.506 276.133C346.565 257.938 296.458 246.643 241.019 246.643C185.58 246.643 135.474 257.939 99.5317 276.133C138.507 284.769 187.632 289.919 241.019 289.919Z" fill="#72D561"/>
<path fill-rule="evenodd" clip-rule="evenodd" d="M354.852 281.392C364.534 279.826 373.775 278.067 382.505 276.133C346.564 257.938 296.457 246.643 241.018 246.643C190.155 246.643 143.781 256.152 108.716 271.774C140.357 261.147 178.528 254.936 219.632 254.936C271.919 254.936 319.462 264.986 354.852 281.393V281.392Z" fill="#42C345"/>
</svg>
