<svg width="15" height="12" viewBox="0 0 15 12" fill="none" xmlns="http://www.w3.org/2000/svg">
<path d="M5.01414 11.9651C3.88258 11.9651 2.84729 11.3284 2.3368 10.3185L0.848246 7.37393C0.418046 6.52291 0.418046 5.51806 0.848246 4.66705L2.33679 1.72243C2.84729 0.712566 3.88258 0.0758667 5.01414 0.0758667H9.26173C10.3854 0.0758667 11.4149 0.703826 11.9291 1.70294L13.4447 4.64756C13.8882 5.50913 13.8882 6.53184 13.4447 7.39342L11.9291 10.338C11.4149 11.3371 10.3854 11.9651 9.26173 11.9651H5.01414Z" fill="#C00000"/>
<path d="M7.28353 1.61716L7.28345 1.61728C7.13572 1.82993 7.06824 2.09081 7.06824 2.33987C7.06824 2.58893 7.13572 2.8498 7.28345 3.06246L7.28349 3.06252L9.21295 5.83909L7.28349 8.61567L7.28344 8.61563L7.27893 8.62235C7.13649 8.83458 7.07196 9.09258 7.07345 9.33911C7.07494 9.58552 7.14254 9.84307 7.28873 10.0534C7.43588 10.2652 7.68008 10.4453 7.99328 10.4492C8.30747 10.4531 8.55633 10.2781 8.70776 10.0677L8.70781 10.0677L8.71249 10.061L11.1441 6.56175L11.1442 6.56169C11.2919 6.34903 11.3594 6.08816 11.3594 5.83909C11.3594 5.59003 11.2919 5.32916 11.1442 5.1165L11.1441 5.11644L8.71249 1.61722L8.71245 1.61716C8.56358 1.40301 8.31539 1.22144 7.99799 1.22144C7.68059 1.22144 7.43239 1.40301 7.28353 1.61716Z" fill="white" stroke="white"/>
</svg>
