<svg width="15" height="12" viewBox="0 0 15 12" fill="none" xmlns="http://www.w3.org/2000/svg">
<path d="M5.01414 11.9777C3.88258 11.9777 2.84729 11.341 2.3368 10.3312L0.848246 7.38656C0.418046 6.53555 0.418046 5.5307 0.848246 4.67968L2.33679 1.73506C2.84729 0.725201 3.88258 0.088501 5.01414 0.088501H9.26173C10.3854 0.088501 11.4149 0.71646 11.9291 1.71557L13.4447 4.66019C13.8882 5.52176 13.8882 6.54448 13.4447 7.40605L11.9291 10.3507C11.4149 11.3498 10.3854 11.9777 9.26173 11.9777H5.01414Z" fill="#6AA84F"/>
<path d="M7.03295 3.0751L7.03291 3.07515L5.10346 5.85173L7.03291 8.6283L7.03297 8.62826L7.03748 8.63499C7.17992 8.84722 7.24444 9.10522 7.24295 9.35175C7.24147 9.59815 7.17386 9.8557 7.02768 10.0661C6.88053 10.2778 6.63633 10.4579 6.32312 10.4619C6.00894 10.4658 5.76007 10.2907 5.60865 10.0803L5.6086 10.0803L5.60392 10.0736L3.17229 6.57438L3.17225 6.57432C3.02452 6.36166 2.95703 6.10079 2.95703 5.85173C2.95703 5.60267 3.02452 5.34179 3.17225 5.12914L3.17229 5.12908L5.60392 1.62985L5.60396 1.62979C5.75282 1.41564 6.00102 1.23407 6.31842 1.23407C6.63582 1.23407 6.88401 1.41564 7.03287 1.62979L7.03295 1.62991C7.18069 1.84257 7.24817 2.10344 7.24817 2.3525C7.24817 2.60157 7.18069 2.86244 7.03295 3.0751Z" fill="white" stroke="white"/>
</svg>
