<svg width="18" height="17" viewBox="0 0 18 17" fill="none" xmlns="http://www.w3.org/2000/svg">
<path d="M17.9358 6.39843C17.858 6.16338 17.7113 5.95596 17.514 5.802C17.3167 5.64804 17.0776 5.55435 16.8263 5.53259L12.055 5.12958L10.1847 0.772018C10.0873 0.54337 9.92304 0.34806 9.7126 0.210682C9.50216 0.073304 9.25494 0 9.00207 0C8.74919 0 8.50197 0.073304 8.29153 0.210682C8.08109 0.34806 7.91684 0.54337 7.81947 0.772018L5.95479 5.12958L1.1778 5.53495C0.925558 5.55572 0.685193 5.64898 0.486842 5.80306C0.288491 5.95713 0.140985 6.16515 0.0628209 6.40104C-0.0153433 6.63692 -0.0206859 6.89016 0.0474631 7.129C0.115612 7.36785 0.254219 7.58167 0.445902 7.74364L4.07002 10.8465L2.98383 15.4544C2.92639 15.6955 2.94278 15.9479 3.03095 16.1799C3.11911 16.412 3.27514 16.6134 3.47952 16.7591C3.6839 16.9047 3.92757 16.9881 4.18006 16.9988C4.43256 17.0095 4.68267 16.9471 4.89912 16.8193L8.99644 14.3792L13.1026 16.8193C13.3191 16.9471 13.5692 17.0095 13.8217 16.9988C14.0741 16.9881 14.3178 16.9047 14.5222 16.7591C14.7266 16.6134 14.8826 16.412 14.9708 16.1799C15.0589 15.9479 15.0753 15.6955 15.0179 15.4544L13.9325 10.8418L17.5558 7.74364C17.7475 7.58111 17.8858 7.36668 17.9534 7.12733C18.021 6.88798 18.0149 6.63438 17.9358 6.39843ZM16.7131 6.792L13.0897 9.89014C12.9134 10.0404 12.7822 10.235 12.7103 10.4529C12.6384 10.6708 12.6285 10.9037 12.6816 11.1267L13.7702 15.7425L9.66728 13.3024C9.4671 13.1829 9.23724 13.1197 9.00287 13.1197C8.76849 13.1197 8.53864 13.1829 8.33846 13.3024L4.24114 15.7425L5.32251 11.1299C5.37566 10.9069 5.36574 10.6739 5.29383 10.456C5.22192 10.2381 5.09073 10.0436 4.91439 9.89329L1.28947 6.79672C1.28917 6.79437 1.28917 6.79199 1.28947 6.78964L6.06485 6.38505C6.298 6.36492 6.52111 6.2828 6.71012 6.14755C6.89913 6.0123 7.04686 5.82906 7.13738 5.6176L9.00207 1.26555L10.8659 5.6176C10.9565 5.82906 11.1042 6.0123 11.2932 6.14755C11.4822 6.2828 11.7053 6.36492 11.9385 6.38505L16.7147 6.78964V6.79515L16.7131 6.792Z" fill="currentColor"/>
</svg>
