<svg width="19" height="20" viewBox="0 0 19 20" fill="none" xmlns="http://www.w3.org/2000/svg">
<path d="M12.6247 17.7918C12.6249 18.3174 12.4264 18.8237 12.069 19.2091C11.7116 19.5945 11.2218 19.8305 10.6976 19.87L10.5414 19.8752H8.45805C7.93245 19.8753 7.42621 19.6768 7.04082 19.3194C6.65542 18.962 6.41935 18.4722 6.37993 17.9481L6.37472 17.7918H12.6247ZM9.49972 0.0834961C11.3903 0.0834649 13.207 0.81776 14.5666 2.13149C15.9262 3.44522 16.7224 5.23567 16.7872 7.12516L16.7914 7.37516V11.296L18.6893 15.0918C18.7721 15.2575 18.8136 15.4407 18.8101 15.6258C18.8066 15.811 18.7583 15.9925 18.6694 16.1549C18.5804 16.3173 18.4534 16.4557 18.2992 16.5583C18.145 16.6609 17.9683 16.7246 17.7841 16.7439L17.6643 16.7502H1.33514C1.14989 16.7502 0.967394 16.7054 0.803284 16.6194C0.639173 16.5335 0.498344 16.4091 0.392863 16.2568C0.287382 16.1045 0.220395 15.9289 0.197641 15.7451C0.174888 15.5612 0.197047 15.3746 0.26222 15.2012L0.310137 15.0918L2.20805 11.296V7.37516C2.20805 5.44129 2.97628 3.58663 4.34373 2.21918C5.71119 0.851723 7.56585 0.0834961 9.49972 0.0834961Z" fill="currentColor"/>
</svg>
