<svg width="14" height="13" viewBox="0 0 14 13" fill="none" xmlns="http://www.w3.org/2000/svg">
<path d="M8.62556 6.64129C8.62556 5.93787 8.0508 5.36549 7.34437 5.36549C6.63802 5.36549 6.06328 5.93788 6.06328 6.64129C6.06328 7.34489 6.63802 7.91716 7.34437 7.91716C8.0508 7.91716 8.62556 7.34489 8.62556 6.64129ZM10.5289 0H4.02672C2.23528 0 0.777832 1.45154 0.777832 3.23566V4.13721H5.55858C6.06303 3.77933 6.67913 3.56792 7.34437 3.56792C8.00959 3.56792 8.62578 3.77933 9.13027 4.13721H13.7778V3.23566C13.7778 1.45152 12.3204 0 10.5289 0ZM11.8447 3.07737C11.8447 3.27509 11.6823 3.43689 11.4837 3.43689H10.3683C10.1698 3.43689 10.0073 3.27509 10.0073 3.07737V1.96645C10.0073 1.76874 10.1697 1.60693 10.3683 1.60693H11.4837C11.6823 1.60693 11.8447 1.76872 11.8447 1.96645V3.07737ZM10.4305 6.64129C10.4305 8.33612 9.04597 9.71472 7.34436 9.71472C5.64268 9.71472 4.25832 8.33612 4.25832 6.64129C4.25832 6.1747 4.36385 5.7322 4.55151 5.33558H0.777832V9.76434C0.777832 11.5486 2.23528 13 4.02672 13H10.529C12.3204 13 13.7778 11.5486 13.7778 9.76434V5.33558H10.1373C10.3249 5.7322 10.4305 6.1747 10.4305 6.64129Z" fill="currentColor"/>
</svg>
