<svg width="14" height="13" viewBox="0 0 14 13" fill="none" xmlns="http://www.w3.org/2000/svg">
<path d="M12.4406 0H2.22635C1.45738 0 0.833496 0.623884 0.833496 1.39286V11.6071C0.833496 12.3761 1.45738 13 2.22635 13H12.4406C13.2096 13 13.8335 12.3761 13.8335 11.6071V1.39286C13.8335 0.623884 13.2096 0 12.4406 0ZM11.0217 4.60804C11.0275 4.68929 11.0275 4.77344 11.0275 4.85469C11.0275 7.37054 9.11229 10.2694 5.61274 10.2694C4.53327 10.2694 3.53216 9.95603 2.69064 9.4163C2.84443 9.43371 2.99242 9.43951 3.14912 9.43951C4.03997 9.43951 4.85827 9.13772 5.51117 8.62701C4.67546 8.6096 3.97323 8.06116 3.73238 7.3067C4.02546 7.35022 4.28952 7.35022 4.59131 7.27187C3.72077 7.09487 3.06787 6.32879 3.06787 5.40312V5.37991C3.32033 5.5221 3.61631 5.60915 3.9268 5.62076C3.66576 5.44713 3.45177 5.21157 3.30392 4.93511C3.15607 4.65865 3.07896 4.34989 3.07948 4.03638C3.07948 3.68237 3.17234 3.35737 3.33774 3.07589C4.27501 4.2308 5.68238 4.98527 7.26095 5.06652C6.99109 3.77522 7.95738 2.72768 9.11809 2.72768C9.66653 2.72768 10.1598 2.95692 10.508 3.32835C10.9375 3.2471 11.3496 3.0875 11.7152 2.86987C11.573 3.31094 11.2741 3.68237 10.8795 3.91741C11.2625 3.87679 11.6339 3.76942 11.9764 3.62143C11.7181 4.00156 11.3931 4.33817 11.0217 4.60804Z" fill="currentColor"/>
</svg>
