<svg width="37" height="37" viewBox="0 0 37 37" fill="none" xmlns="http://www.w3.org/2000/svg">
<path d="M32.8982 22.0603L32.8148 21.2319L32.7898 21.2336L32.7615 21.2386L32.8982 22.0603ZM32.8982 22.0603L32.9815 22.8904L33.0099 22.8871L33.0365 22.8821L32.8982 22.0603ZM26.1645 31.1979L26.6929 30.5528L26.6846 30.5478L26.1645 31.1979ZM26.1645 31.1979L25.6362 31.8429L25.6445 31.8496L26.1645 31.1979ZM10.8371 31.1979L10.3088 30.5545L10.2971 30.5645L10.2838 30.5762L10.8371 31.1979ZM10.8371 31.1979L11.3655 31.8446L11.3788 31.8329L11.3905 31.8229L10.8371 31.1979ZM4.10181 14.9397V14.1062H4.06181L4.02014 14.1096L4.10181 14.9397ZM4.10181 14.9397V15.7731H4.14348L4.18515 15.7681L4.10181 14.9397ZM22.8877 4.01695C22.8627 3.71473 22.8277 3.41343 22.7827 3.11353C22.7446 2.84818 22.6647 2.59052 22.546 2.35013L21.0643 3.1152C21.081 3.14854 21.1093 3.21521 21.1376 3.38856C21.1693 3.57191 21.1926 3.81027 21.231 4.18197L22.8877 4.01695ZM23.2144 6.02214C23.1944 5.99714 23.1344 5.89547 23.0694 5.53877C22.9918 5.03373 22.9335 4.52615 22.891 4.01695L21.231 4.18197C21.2976 4.85037 21.3526 5.40375 21.4293 5.83379C21.5043 6.25383 21.621 6.68221 21.8893 7.03391L23.2144 6.02214ZM23.9878 6.34218C23.8421 6.36178 23.6938 6.3425 23.558 6.28629C23.4222 6.23009 23.3036 6.13896 23.2144 6.02214L21.8877 7.03224C22.1553 7.38325 22.5111 7.65713 22.9189 7.82606C23.3267 7.99498 23.772 8.05293 24.2094 7.994L23.9878 6.34218ZM25.6345 5.15373C25.0928 5.59877 24.7228 5.90047 24.4311 6.10215C24.1328 6.30884 24.0178 6.33717 23.9878 6.34218L24.2094 7.994C24.6461 7.93566 25.0311 7.71564 25.3828 7.47062C25.7412 7.22059 26.1695 6.87056 26.6912 6.44385L25.6345 5.15373ZM27.0546 4.21864C26.7879 4.30365 26.5629 4.43866 26.3495 4.59034C26.1429 4.73702 25.9079 4.93037 25.6345 5.15373L26.6912 6.44385C26.9796 6.20716 27.1662 6.05548 27.3163 5.9488C27.3907 5.88879 27.4739 5.84046 27.5629 5.80546L27.0546 4.21864ZM28.8097 4.30531C28.2544 4.065 27.6308 4.0342 27.0546 4.21864L27.5629 5.80546C27.7546 5.74475 27.9618 5.7554 28.1463 5.83546L28.8097 4.30531ZM30.1297 5.37875C29.8797 5.12873 29.6647 4.91204 29.4747 4.74536C29.2776 4.56458 29.0531 4.41607 28.8097 4.30531L28.1463 5.83546C28.1813 5.85046 28.2446 5.88546 28.378 6.00214C28.5163 6.12215 28.6863 6.29217 28.9513 6.5572L30.1297 5.37875ZM31.6181 6.86723L30.1297 5.37875L28.9513 6.5572L30.4397 8.04567L31.6181 6.86723ZM32.6915 8.18735C32.5802 7.94381 32.4311 7.71936 32.2498 7.52229C32.0831 7.33227 31.8665 7.11725 31.6181 6.86723L30.4397 8.04567C30.7047 8.3107 30.8731 8.48071 30.9964 8.61906C31.1131 8.7524 31.1464 8.81574 31.1614 8.85075L32.6915 8.18735ZM32.7782 9.94252C32.9626 9.36625 32.9318 8.74265 32.6915 8.18735L31.1614 8.85075C31.2409 9.03543 31.251 9.24262 31.1898 9.43414L32.7782 9.94252ZM31.8431 11.3627C32.0665 11.0893 32.2598 10.8543 32.4065 10.6476C32.5565 10.4342 32.6932 10.2092 32.7782 9.94252L31.1898 9.43414C31.1553 9.52307 31.1075 9.60625 31.0481 9.68083C30.8893 9.89404 30.7242 10.1025 30.5531 10.3059L31.8431 11.3627ZM30.6547 13.0095C30.6597 12.9795 30.6881 12.8645 30.8948 12.5661C31.0964 12.2744 31.3981 11.9044 31.8431 11.3627L30.5531 10.3059C30.1264 10.8276 29.7747 11.256 29.5264 11.6143C29.2813 11.9644 29.0613 12.3511 29.003 12.7878L30.6547 13.0095ZM30.9748 13.7829C30.858 13.6936 30.7668 13.5751 30.7106 13.4393C30.6544 13.3034 30.6351 13.1552 30.6547 13.0095L29.003 12.7878C28.9444 13.225 29.0025 13.6699 29.1714 14.0774C29.3403 14.4849 29.614 14.8405 29.9647 15.108L30.9748 13.7829ZM32.9799 14.1079C32.2815 14.0379 31.8081 13.9912 31.4581 13.9279C31.1014 13.8629 30.9998 13.8029 30.9748 13.7829L29.9647 15.108C30.3147 15.3747 30.7431 15.4914 31.1648 15.5681C31.5931 15.6447 32.1448 15.7014 32.8148 15.7681L32.9799 14.1079ZM34.6466 14.4513C34.4062 14.3326 34.1486 14.2527 33.8832 14.2146C33.6332 14.1729 33.3299 14.1429 32.9799 14.1079L32.8132 15.7664C33.1865 15.8047 33.4249 15.8281 33.6082 15.8597C33.7025 15.8704 33.7946 15.8951 33.8816 15.9331L34.6466 14.4513ZM35.825 15.7531C35.6025 15.1909 35.1839 14.7285 34.6466 14.4513L33.8816 15.9331C34.0608 16.0252 34.2005 16.1792 34.2749 16.3665L35.825 15.7531ZM36 17.4449C36 17.0932 36 16.7882 35.9833 16.5348C35.9721 16.2675 35.9187 16.0037 35.825 15.7531L34.2749 16.3665C34.2883 16.4015 34.3083 16.4715 34.3199 16.6465C34.3329 16.913 34.3373 17.1798 34.3333 17.4466L36 17.4449ZM36 19.5518V17.4449H34.3333V19.5518H36ZM35.825 21.2419C35.9283 20.9819 35.9667 20.7219 35.9833 20.4602C36 20.2085 36 19.9035 36 19.5518H34.3333C34.3333 19.9251 34.3333 20.1652 34.3199 20.3502C34.3191 20.4452 34.3039 20.5397 34.2749 20.6302L35.825 21.2419ZM34.6466 22.5454C35.1842 22.2678 35.6028 21.8047 35.825 21.2419L34.2749 20.6302C34.2005 20.8175 34.0608 20.9714 33.8816 21.0636L34.6466 22.5454ZM32.9799 22.8888C33.3299 22.8537 33.6349 22.8221 33.8832 22.7804C34.1416 22.7387 34.3966 22.6737 34.6449 22.5471L33.8816 21.0636C33.7947 21.1017 33.7025 21.1264 33.6082 21.1369C33.4249 21.1686 33.1865 21.1919 32.8148 21.2303L32.9799 22.8888ZM30.9764 23.2138C31.0014 23.1938 31.1031 23.1321 31.4598 23.0688C31.8098 23.0054 32.2832 22.9571 32.9799 22.8888L32.8148 21.2303C32.1465 21.2969 31.5931 21.3503 31.1631 21.4286C30.7431 21.5036 30.3164 21.6203 29.9647 21.887L30.9764 23.2138ZM30.6547 23.9872C30.6353 23.8414 30.6549 23.693 30.7114 23.5571C30.7679 23.4213 30.8593 23.3028 30.9764 23.2138L29.9647 21.887C29.6137 22.1547 29.3398 22.5105 29.1709 22.9183C29.002 23.3261 28.9441 23.7714 29.003 24.2089L30.6547 23.9872ZM31.8431 25.634C31.5133 25.2439 31.197 24.8425 30.8948 24.4306C30.6881 24.1339 30.6597 24.0172 30.6547 23.9872L29.0047 24.2105C29.063 24.6472 29.283 25.0306 29.5264 25.3823C29.7764 25.739 30.1264 26.1691 30.5531 26.6891L31.8431 25.634ZM32.7782 27.0541C32.6922 26.8005 32.5668 26.562 32.4065 26.3474C32.2262 26.1038 32.0383 25.8659 31.8431 25.634L30.5531 26.6891C30.7898 26.9791 30.9414 27.1642 31.0481 27.3158C31.1074 27.3899 31.1551 27.4725 31.1898 27.5609L32.7782 27.0541ZM32.6915 28.8093C32.9318 28.254 32.9626 27.6304 32.7782 27.0541L31.1898 27.5609C31.2514 27.7529 31.2414 27.9608 31.1614 28.1459L32.6915 28.8093ZM31.6198 30.1278C31.8681 29.8794 32.0831 29.6644 32.2498 29.4744C32.4232 29.276 32.5798 29.0677 32.6915 28.8093L31.1614 28.1459C31.1178 28.2306 31.0616 28.3081 30.9948 28.3759C30.8155 28.5726 30.6304 28.7638 30.4397 28.9493L31.6198 30.1278ZM30.1297 31.6179L31.6198 30.1278L30.4397 28.9493L28.9513 30.4395L30.1297 31.6179ZM28.8097 32.6897C29.0663 32.578 29.2763 32.423 29.4747 32.2496C29.6647 32.083 29.8797 31.8663 30.1297 31.6162L28.9513 30.4395C28.6863 30.7045 28.5163 30.8728 28.378 30.9945C28.3096 31.0615 28.2315 31.1177 28.1463 31.1612L28.8097 32.6897ZM27.0546 32.778C27.631 32.9619 28.2546 32.9305 28.8097 32.6897L28.1463 31.1612C27.9616 31.2407 27.7544 31.2508 27.5629 31.1895L27.0546 32.778ZM25.6345 31.8413C25.9079 32.0646 26.1429 32.258 26.3495 32.4047C26.5629 32.5563 26.7879 32.693 27.0546 32.778L27.5629 31.1895C27.474 31.1551 27.3908 31.1073 27.3163 31.0479C27.103 30.8885 26.8946 30.7229 26.6912 30.5511L25.6345 31.8413ZM23.9878 30.6545C24.0178 30.6578 24.1344 30.6878 24.4311 30.8945C24.7228 31.0962 25.0928 31.3979 25.6345 31.8413L26.6912 30.5511C26.1695 30.1261 25.7412 29.7744 25.3828 29.5244C25.0328 29.281 24.6461 29.061 24.2094 29.0027L23.9878 30.6545ZM23.2144 30.9745C23.3036 30.8577 23.4222 30.7666 23.558 30.7104C23.6938 30.6542 23.8421 30.6349 23.9878 30.6545L24.2094 29.0027C23.7724 28.9439 23.3276 29.0017 22.9201 29.1703C22.5127 29.3389 22.157 29.6123 21.8893 29.9628L23.2144 30.9745ZM22.8894 32.9797C22.9594 32.2813 23.006 31.8079 23.0694 31.4579C23.1344 31.1012 23.1944 30.9995 23.2144 30.9745L21.8893 29.9628C21.6226 30.3128 21.506 30.7428 21.4293 31.1629C21.3526 31.5912 21.296 32.143 21.2293 32.813L22.8894 32.9797ZM22.546 34.6465C22.6744 34.3965 22.7377 34.1415 22.781 33.8831C22.8244 33.6331 22.8544 33.3297 22.8894 32.9797L21.2293 32.813C21.2062 33.0789 21.1767 33.3441 21.1376 33.6081C21.127 33.7024 21.1023 33.7945 21.0643 33.8815L22.546 34.6465ZM21.2443 35.825C21.8064 35.6025 22.2689 35.1838 22.546 34.6465L21.0643 33.8815C20.9721 34.0607 20.8182 34.2004 20.6309 34.2748L21.2443 35.825ZM19.5525 36C19.9042 36 20.2092 36 20.4626 35.9833C20.7226 35.9667 20.9843 35.9283 21.2443 35.825L20.6309 34.2748C20.5404 34.3038 20.446 34.319 20.3509 34.3198C20.1676 34.3332 19.9259 34.3332 19.5509 34.3332L19.5525 36ZM17.4458 36H19.5525L19.5509 34.3332H17.4458V36ZM15.754 35.825C16.0157 35.9283 16.2757 35.9667 16.5374 35.9833C16.7891 36 17.0941 36 17.4458 36V34.3332C17.0724 34.3332 16.8324 34.3332 16.6474 34.3198C16.5523 34.319 16.4579 34.3038 16.3674 34.2748L15.754 35.825ZM14.4523 34.6465C14.7295 35.1838 15.1919 35.6025 15.754 35.825L16.3674 34.2748C16.1801 34.2004 16.0262 34.0607 15.934 33.8815L14.4523 34.6465ZM14.109 32.9797C14.144 33.3297 14.1756 33.6348 14.2156 33.8831C14.259 34.1415 14.324 34.3965 14.4523 34.6465L15.934 33.8815C15.896 33.7945 15.8713 33.7024 15.8607 33.6081C15.8217 33.3446 15.7905 33.08 15.7674 32.8147L14.109 32.9797ZM13.7839 30.9745C13.8039 30.9995 13.8639 31.1012 13.9289 31.4579C13.9923 31.8079 14.039 32.283 14.109 32.9797L15.7674 32.8147C15.7007 32.1463 15.6457 31.5929 15.569 31.1629C15.494 30.7428 15.3774 30.3145 15.109 29.9628L13.7839 30.9745ZM13.0106 30.6545C13.1563 30.6349 13.3045 30.6542 13.4403 30.7104C13.5762 30.7666 13.6947 30.8577 13.7839 30.9745L15.109 29.9628C14.8415 29.612 14.486 29.34 14.0785 29.1711C13.671 29.0021 13.2261 28.944 12.7889 29.0027L13.0106 30.6545ZM11.3638 31.8429C11.9055 31.3979 12.2755 31.0962 12.5672 30.8945C12.8656 30.6878 12.9806 30.6578 13.0106 30.6545L12.7889 29.0027C12.3522 29.061 11.9672 29.281 11.6155 29.526C11.2572 29.7744 10.8288 30.1261 10.3071 30.5528L11.3638 31.8429ZM9.94376 32.778C10.2104 32.693 10.4354 32.558 10.6488 32.4063C10.8555 32.2596 11.0905 32.0663 11.3638 31.8429L10.3071 30.5528C10.1037 30.724 9.89528 30.8891 9.68208 31.0479C9.60753 31.1073 9.52435 31.1551 9.4354 31.1895L9.94376 32.778ZM8.18868 32.693C8.74394 32.9333 9.36752 32.9625 9.94376 32.778L9.4354 31.1895C9.2439 31.2508 9.03671 31.2407 8.85204 31.1612L8.18868 32.693ZM6.86861 31.6179C7.11862 31.8679 7.33363 32.0846 7.52364 32.2513C7.72032 32.423 7.932 32.5813 8.18868 32.693L8.85204 31.1612C8.7668 31.1177 8.68867 31.0615 8.62036 30.9945C8.4238 30.8152 8.2326 30.6301 8.047 30.4395L6.86861 31.6179ZM5.38021 30.1294L6.86861 31.6179L8.047 30.4395L6.5586 28.951L5.38021 30.1294ZM4.30682 28.8093C4.4185 29.066 4.57517 29.276 4.74851 29.4744C4.91519 29.6644 5.13186 29.8794 5.38021 30.1294L6.5586 28.951C6.3674 28.7654 6.18175 28.5742 6.0019 28.3776C5.93494 28.3093 5.87874 28.2311 5.83523 28.1459L4.30682 28.8093ZM4.22015 27.0541C4.03572 27.6304 4.06652 28.254 4.30682 28.8093L5.83523 28.1459C5.75518 27.9614 5.74619 27.7542 5.8069 27.5625L4.22015 27.0541ZM5.1552 25.634C4.93185 25.9074 4.73851 26.1424 4.59184 26.3491C4.43171 26.5631 4.30628 26.8011 4.22015 27.0541L5.8069 27.5625C5.84189 27.4735 5.89023 27.3903 5.95024 27.3158C6.05691 27.1658 6.20858 26.9791 6.44526 26.6908L5.1552 25.634ZM6.34359 23.9872C6.33859 24.0172 6.31025 24.1322 6.10358 24.4306C5.90023 24.7223 5.60022 25.0923 5.1552 25.634L6.44526 26.6908C6.87195 26.1691 7.22363 25.7407 7.47197 25.3823C7.71699 25.0323 7.937 24.6456 7.99533 24.2089L6.34359 23.9872ZM6.02357 23.2138C6.14038 23.303 6.23151 23.4216 6.28771 23.5574C6.34391 23.6932 6.36319 23.8415 6.34359 23.9872L7.99533 24.2089C8.05395 23.7717 7.99586 23.3267 7.82695 22.9192C7.65805 22.5117 7.38434 22.1562 7.03362 21.8887L6.02357 23.2138ZM4.01848 22.8904C4.71684 22.9588 5.1902 23.0054 5.54022 23.0688C5.8969 23.1338 5.99857 23.1938 6.02357 23.2138L7.03362 21.887C6.6836 21.6203 6.25525 21.5036 5.83356 21.4286C5.40521 21.3519 4.85352 21.2953 4.18349 21.2286L4.01848 22.8904ZM2.35173 22.5454C2.60174 22.6737 2.85676 22.7371 3.1151 22.7804C3.36511 22.8237 3.66679 22.8554 4.01848 22.8904L4.18515 21.2303C3.91926 21.2071 3.65413 21.176 3.39011 21.1369C3.29584 21.1263 3.20369 21.1016 3.11677 21.0636L2.35173 22.5454ZM1.17334 21.2419C1.3955 21.8047 1.81417 22.2678 2.35173 22.5454L3.11677 21.0636C2.93757 20.9714 2.79783 20.8175 2.72342 20.6302L1.17334 21.2419ZM1 19.5551C1 19.9068 1 20.2118 1.01667 20.4652C1.02745 20.732 1.08091 20.9954 1.17501 21.2453L2.72508 20.6335C2.69611 20.543 2.68094 20.4486 2.68008 20.3535C2.66769 20.087 2.66325 19.8202 2.66675 19.5534L1 19.5551ZM1 17.4482V19.5551H2.66675V17.4482H1ZM1.17501 15.7564C1.08128 16.0076 1.02784 16.272 1.01667 16.5398C1 16.7915 1 17.0965 1 17.4482H2.66675C2.66675 17.0749 2.66675 16.8348 2.68008 16.6498C2.68088 16.5547 2.69606 16.4603 2.72508 16.3698L1.17501 15.7564ZM2.3534 14.4546C1.81614 14.7318 1.3975 15.1943 1.17501 15.7564L2.72508 16.3698C2.7995 16.1825 2.93924 16.0286 3.11843 15.9364L2.3534 14.4546ZM4.02014 14.1096C3.67013 14.1446 3.36511 14.1779 3.11677 14.2179C2.85142 14.2561 2.59378 14.336 2.3534 14.4546L3.11843 15.9364C3.15177 15.9198 3.21844 15.8914 3.39178 15.8631C3.57512 15.8314 3.81347 15.8081 4.18515 15.7697L4.02014 14.1096ZM6.02524 13.7862C6.00024 13.8062 5.89857 13.8662 5.54188 13.9312C5.19187 13.9946 4.71851 14.0396 4.02014 14.1096L4.18515 15.7697C4.85352 15.7031 5.40854 15.6481 5.8369 15.5714C6.25858 15.4964 6.68694 15.3797 7.03695 15.1113L6.02524 13.7862ZM6.34525 13.0128C6.36486 13.1585 6.34558 13.3068 6.28937 13.4426C6.23317 13.5784 6.14205 13.697 6.02524 13.7862L7.03695 15.1113C7.38737 14.8436 7.66075 14.488 7.82936 14.0805C7.99797 13.673 8.0558 13.2265 7.997 12.7895L6.34525 13.0128ZM5.15686 11.3643C5.60189 11.9077 5.90357 12.2777 6.10691 12.5694C6.31359 12.8678 6.34025 12.9828 6.34525 13.0128L7.997 12.7895C7.93866 12.3527 7.71865 11.9694 7.47364 11.6177C7.2253 11.2593 6.87361 10.8309 6.44693 10.3092L5.15686 11.3643ZM4.22182 9.94419C4.30516 10.2109 4.44183 10.4376 4.5935 10.6509C4.74018 10.8559 4.93352 11.0926 5.15686 11.3643L6.44693 10.3092C6.27574 10.1053 6.11066 9.89627 5.9519 9.68249C5.89204 9.60852 5.84371 9.52591 5.80856 9.43747L4.22182 9.94419ZM4.30849 8.19068C4.0686 8.74549 4.03781 9.36842 4.22182 9.94419L5.80856 9.43747C5.74786 9.24576 5.75851 9.03856 5.83856 8.85408L4.30849 8.19068ZM5.38188 6.87056C5.13186 7.11892 4.91519 7.33394 4.74851 7.52562C4.56776 7.72278 4.41926 7.94723 4.30849 8.19068L5.83856 8.85408C5.88219 8.76943 5.93839 8.69021 6.00524 8.62239C6.18379 8.42512 6.36891 8.23388 6.56026 8.049L5.38188 6.87056ZM6.87028 5.38042L5.38188 6.87056L6.56026 8.049L8.04867 6.55886L6.87028 5.38042ZM8.19034 4.30865C7.94696 4.41955 7.72254 4.56804 7.52531 4.74869C7.3353 4.91537 7.11862 5.13039 6.87028 5.38042L8.04867 6.55886C8.31368 6.2955 8.48369 6.12549 8.62203 6.00381C8.75537 5.88713 8.81871 5.8538 8.85371 5.83713L8.19034 4.30865ZM9.94543 4.22031C9.36898 4.03639 8.74541 4.06778 8.19034 4.30865L8.85371 5.83713C9.03817 5.75707 9.24536 5.74808 9.43707 5.80879L9.94543 4.22031ZM11.3655 5.15706C11.0921 4.93371 10.8571 4.74036 10.6505 4.59368C10.4366 4.43288 10.1986 4.30687 9.94543 4.22031L9.43707 5.80879C9.52598 5.84328 9.60915 5.89105 9.68375 5.95047C9.83375 6.05882 10.0204 6.2105 10.3104 6.44719L11.3655 5.15706ZM13.0122 6.34551C12.9822 6.34051 12.8672 6.31217 12.5689 6.10549C12.1569 5.80272 11.7556 5.4875 11.3655 5.15706L10.3104 6.44719C10.8305 6.87389 11.2605 7.22559 11.6172 7.47395C11.9672 7.71731 12.3539 7.93733 12.7906 7.99733L13.0122 6.34551ZM13.7856 6.02381C13.6966 6.14093 13.5781 6.23238 13.4423 6.28889C13.3064 6.34539 13.1581 6.36492 13.0122 6.34551L12.7906 7.99733C13.2279 8.05645 13.673 7.99709 14.0808 7.82847C14.4886 7.65984 14.8445 7.38628 15.1123 7.03557L13.7856 6.02381ZM14.1106 4.02029C14.0406 4.71702 13.994 5.19207 13.9306 5.54043C13.8656 5.89713 13.8056 5.99881 13.7856 6.02381L15.1123 7.03557C15.379 6.68554 15.4957 6.25717 15.5707 5.83546C15.6474 5.40709 15.704 4.85537 15.7707 4.1853L14.1106 4.02029ZM14.454 2.35346C14.3256 2.60349 14.2606 2.85851 14.2173 3.11687C14.1756 3.36689 14.1456 3.66859 14.1106 4.02029L15.769 4.18697C15.7922 3.92107 15.8233 3.65592 15.8624 3.39189C15.8729 3.2976 15.8976 3.20543 15.9357 3.11854L14.454 2.35346ZM15.7574 1.17502C15.1944 1.3976 14.7312 1.81525 14.454 2.35346L15.9357 3.11854C16.0279 2.93933 16.1818 2.79958 16.3691 2.72516L15.7574 1.17502ZM17.4475 1C17.0958 1 16.7908 1 16.5374 1.01667C16.2706 1.02746 16.0073 1.08092 15.7574 1.17502L16.3691 2.72516C16.4596 2.69614 16.554 2.68096 16.6491 2.68016C16.8324 2.66683 17.0741 2.66683 17.4491 2.66683L17.4475 1ZM19.5542 1H17.4475V2.66683H19.5542V1ZM21.246 1.17502C20.9948 1.08125 20.7304 1.02781 20.4626 1.01667C20.2109 1 19.9059 1 19.5542 1V2.66683C19.9276 2.66683 20.1676 2.66683 20.3526 2.68016C20.4476 2.6815 20.5419 2.69666 20.6326 2.72516L21.246 1.17502ZM22.5477 2.35346C22.2701 1.81588 21.807 1.39718 21.2443 1.17502L20.6326 2.72516C20.8199 2.79958 20.9738 2.93933 21.066 3.11854L22.5477 2.35346ZM24.3344 18.5C24.3344 20.0472 23.7198 21.5311 22.6258 22.6252C21.5318 23.7192 20.048 24.3339 18.5008 24.3339V26.0007C20.4901 26.0007 22.3978 25.2105 23.8044 23.8038C25.211 22.3971 26.0012 20.4893 26.0012 18.5H24.3344ZM18.5008 12.6661C20.048 12.6661 21.5318 13.2808 22.6258 14.3748C23.7198 15.4689 24.3344 16.9528 24.3344 18.5H26.0012C26.0012 16.5107 25.211 14.6029 23.8044 13.1962C22.3978 11.7895 20.4901 10.9993 18.5008 10.9993V12.6661ZM12.6672 18.5C12.6672 16.9528 13.2818 15.4689 14.3758 14.3748C15.4699 13.2808 16.9537 12.6661 18.5008 12.6661V10.9993C16.5116 10.9993 14.6039 11.7895 13.1973 13.1962C11.7907 14.6029 11.0005 16.5107 11.0005 18.5H12.6672ZM18.5008 24.3339C16.9537 24.3339 15.4699 23.7192 14.3758 22.6252C13.2818 21.5311 12.6672 20.0472 12.6672 18.5H11.0005C11.0005 20.4893 11.7907 22.3971 13.1973 23.8038C14.6039 25.2105 16.5116 26.0007 18.5008 26.0007V24.3339Z" fill="white"/>
<path d="M22.061 4.1003L22.891 4.01695M22.891 4.01695C22.9335 4.52615 22.9918 5.03373 23.0694 5.53877C23.1344 5.89547 23.1944 5.99714 23.2144 6.02214M22.891 4.01695L21.231 4.18197M21.8077 2.7335L21.066 3.11687M22.5527 6.52886L23.2161 6.02381M24.1011 7.16892L23.9894 6.34384M26.1645 5.80212L26.6929 6.44552M27.3096 5.01372L27.5629 5.80712M28.4796 5.07205L28.8113 4.30698M29.5414 5.96881L28.953 6.55886M31.0314 7.45895L31.6198 6.86889M31.9281 8.52072L32.6932 8.18902M31.9865 9.69083L32.7798 9.94418M31.1998 10.8359L30.5547 10.3076M29.8297 12.9011L29.0047 12.7895M30.4714 14.4479L29.9664 15.1097M32.8999 14.9397L32.9832 14.1096M34.2666 15.193L34.6483 14.4529M35.05 16.0614L35.8267 15.7547M35.0516 20.9386L34.2766 20.6319M34.2649 21.8053L34.6483 22.5471M32.8982 22.0603L32.8148 21.2319L32.7898 21.2336L32.7615 21.2386L32.8982 22.0603ZM32.8982 22.0603L32.9815 22.8904L33.0099 22.8871L33.0365 22.8821L32.8982 22.0603ZM30.4714 22.552L29.9664 21.8887M29.8314 24.1005L29.0047 24.2105M29.0047 24.2105L30.6547 23.9872M29.0047 24.2105C29.063 24.6472 29.283 25.0306 29.5264 25.3823C29.7764 25.739 30.1264 26.1691 30.5531 26.6891M31.1998 26.1641L30.5547 26.6908M31.9865 27.3092L31.1914 27.5625M31.9281 28.4793L31.1631 28.1476M31.0314 29.5411L31.6215 30.1294M29.5414 31.0295L28.953 30.4411M28.4796 31.9263L28.813 32.693M27.3096 31.9846L27.0562 32.7797M26.1645 31.1979L26.6929 30.5528L26.6846 30.5478L26.1645 31.1979ZM26.1645 31.1979L25.6362 31.8429L25.6445 31.8496L26.1645 31.1979ZM24.1011 29.8311L24.2111 29.0043M22.5527 30.4711L23.2161 30.9762M22.061 32.898L21.2326 32.8147M21.8077 34.2648L21.066 33.8831M20.9393 35.0516L20.6326 34.2765M16.0624 35.0516L16.3691 34.2765M15.1957 34.2648L15.9357 33.8831M14.9407 32.898L14.1106 32.9814M14.449 30.4711L13.7856 30.9762M12.9022 29.8311L12.7906 29.0043M10.8371 31.1979L10.3088 30.5545L10.2971 30.5645L10.2838 30.5762L10.8371 31.1979ZM10.8371 31.1979L11.3655 31.8446L11.3788 31.8329L11.3905 31.8229L10.8371 31.1979ZM9.69208 31.9863L9.94543 32.7797M8.52202 31.9279L8.18868 32.693M8.18868 32.693C8.74394 32.9333 9.36752 32.9625 9.94376 32.778M8.18868 32.693L8.85204 31.1612M8.18868 32.693C7.932 32.5813 7.72032 32.423 7.52364 32.2513C7.33363 32.0846 7.11862 31.8679 6.86861 31.6179M7.46031 31.0312L8.04867 30.4411M5.97024 29.5411L5.38188 30.1311M5.07353 28.4793L5.83856 28.1493M5.01519 27.3092L5.80856 27.5625M5.8019 26.1641L6.44693 26.6924M7.17029 24.0989L7.997 24.2105M6.53026 22.552L7.03529 21.8903M4.10181 22.0603L4.01848 22.8904M4.01848 22.8904C4.71684 22.9588 5.1902 23.0054 5.54022 23.0688C5.8969 23.1338 5.99857 23.1938 6.02357 23.2138M4.01848 22.8904L4.18349 21.2286C4.85352 21.2953 5.40521 21.3519 5.83356 21.4286C6.25525 21.5036 6.6836 21.6203 7.03362 21.887L6.02357 23.2138M4.01848 22.8904C3.66679 22.8554 3.36511 22.8237 3.1151 22.7804C2.85676 22.7371 2.60174 22.6737 2.35173 22.5454M4.01848 22.8904L4.18515 21.2303C3.91926 21.2071 3.65413 21.176 3.39011 21.1369C3.29584 21.1263 3.20369 21.1016 3.11677 21.0636M2.73508 21.807L3.11843 21.0652M1.95171 20.9386L1.17501 21.2453M1.17501 21.2453C1.08091 20.9954 1.02745 20.732 1.01667 20.4652C1 20.2118 1 19.9068 1 19.5551M1.17501 21.2453L2.72508 20.6335C2.69611 20.543 2.68094 20.4486 2.68008 20.3535C2.66769 20.087 2.66325 19.8202 2.66675 19.5534L1 19.5551M1.95171 16.0614L1.17501 15.7547M2.73508 15.1947L2.3534 14.4529M4.10181 14.9397V14.1062H4.06181L4.02014 14.1096M4.10181 14.9397L4.02014 14.1096M4.10181 14.9397V15.7731H4.14348L4.18515 15.7681L4.10181 14.9397ZM4.02014 14.1096C3.67013 14.1446 3.36511 14.1779 3.11677 14.2179C2.85142 14.2561 2.59378 14.336 2.3534 14.4546M4.02014 14.1096L4.18515 15.7697M4.02014 14.1096C4.71851 14.0396 5.19187 13.9946 5.54188 13.9312C5.89857 13.8662 6.00024 13.8062 6.02524 13.7862M6.53026 14.4479L6.02524 13.7845M7.17196 12.9011L7.997 12.7895M7.997 12.7895C8.0558 13.2265 7.99797 13.673 7.82936 14.0805C7.66075 14.488 7.38737 14.8436 7.03695 15.1113M7.997 12.7895L6.34525 13.0128M7.997 12.7895C7.93866 12.3527 7.71865 11.9694 7.47364 11.6177C7.2253 11.2593 6.87361 10.8309 6.44693 10.3092M5.80023 10.8326L6.44526 10.3059M5.01352 9.68749L5.8069 9.43414M5.07186 8.51738L4.30682 8.18735M5.96857 7.45561L6.5586 8.04567M7.45864 5.96714L6.86861 5.37708M8.52036 5.07039L8.18868 4.30365M9.69041 5.01205L9.94376 4.21697M10.8355 5.79879L11.3638 5.15373M12.8989 7.16725L13.0106 6.34217M14.449 6.52553L13.7839 6.02048M14.939 4.09863L15.7674 4.18197M15.1923 2.73183L14.4523 2.3518M16.0607 1.94676L16.3674 2.72183M20.9376 1.94676L21.2443 1.17168M21.231 4.18197C21.1926 3.81027 21.1693 3.57191 21.1376 3.38856C21.1093 3.21521 21.081 3.14854 21.0643 3.1152L22.546 2.35013C22.6647 2.59052 22.7446 2.84818 22.7827 3.11353C22.8277 3.41343 22.8627 3.71473 22.8877 4.01695L21.231 4.18197ZM21.231 4.18197C21.2976 4.85037 21.3526 5.40375 21.4293 5.83379C21.5043 6.25383 21.621 6.68221 21.8893 7.03391L23.2144 6.02214M23.2144 6.02214C23.3036 6.13896 23.4222 6.23009 23.558 6.28629C23.6938 6.3425 23.8421 6.36178 23.9878 6.34217M23.2144 6.02214L21.8877 7.03224C22.1553 7.38325 22.5111 7.65713 22.9189 7.82606C23.3267 7.99498 23.772 8.05293 24.2094 7.994M23.9878 6.34217L24.2094 7.994M23.9878 6.34217C24.0178 6.33717 24.1328 6.30884 24.4311 6.10215C24.7228 5.90047 25.0928 5.59877 25.6345 5.15373M24.2094 7.994C24.6461 7.93566 25.0311 7.71564 25.3828 7.47062C25.7412 7.22059 26.1695 6.87056 26.6912 6.44385M25.6345 5.15373L26.6912 6.44385M25.6345 5.15373C25.9079 4.93037 26.1429 4.73702 26.3495 4.59034C26.5629 4.43866 26.7879 4.30365 27.0546 4.21864M26.6912 6.44385C26.9796 6.20716 27.1662 6.05548 27.3163 5.9488C27.3907 5.88879 27.4739 5.84046 27.5629 5.80546M27.0546 4.21864L27.5629 5.80546M27.0546 4.21864C27.6308 4.0342 28.2544 4.065 28.8097 4.30531M27.5629 5.80546C27.7546 5.74475 27.9618 5.7554 28.1463 5.83546M28.8097 4.30531L28.1463 5.83546M28.8097 4.30531C29.0531 4.41607 29.2776 4.56458 29.4747 4.74536C29.6647 4.91204 29.8797 5.12873 30.1297 5.37875M28.1463 5.83546C28.1813 5.85046 28.2446 5.88546 28.378 6.00214C28.5163 6.12215 28.6863 6.29217 28.9513 6.5572M30.1297 5.37875L28.9513 6.5572M30.1297 5.37875L31.6181 6.86723M28.9513 6.5572L30.4397 8.04567M31.6181 6.86723L30.4397 8.04567M31.6181 6.86723C31.8665 7.11725 32.0831 7.33227 32.2498 7.52229C32.4311 7.71936 32.5802 7.94381 32.6915 8.18735M30.4397 8.04567C30.7047 8.3107 30.8731 8.48071 30.9964 8.61906C31.1131 8.7524 31.1464 8.81574 31.1614 8.85075M32.6915 8.18735L31.1614 8.85075M32.6915 8.18735C32.9318 8.74265 32.9626 9.36625 32.7782 9.94252M31.1614 8.85075C31.2409 9.03543 31.251 9.24262 31.1898 9.43414M32.7782 9.94252L31.1898 9.43414M32.7782 9.94252C32.6932 10.2092 32.5565 10.4342 32.4065 10.6476C32.2598 10.8543 32.0665 11.0893 31.8431 11.3627M31.1898 9.43414C31.1553 9.52307 31.1075 9.60624 31.0481 9.68083C30.8893 9.89404 30.7242 10.1025 30.5531 10.3059M31.8431 11.3627L30.5531 10.3059M31.8431 11.3627C31.3981 11.9044 31.0964 12.2744 30.8948 12.5661C30.6881 12.8645 30.6597 12.9795 30.6547 13.0095M30.5531 10.3059C30.1264 10.8276 29.7747 11.256 29.5264 11.6143C29.2813 11.9644 29.0613 12.3511 29.003 12.7878M30.6547 13.0095L29.003 12.7878M30.6547 13.0095C30.6351 13.1552 30.6544 13.3034 30.7106 13.4393C30.7668 13.5751 30.858 13.6936 30.9748 13.7829M29.003 12.7878C28.9444 13.225 29.0025 13.6699 29.1714 14.0774C29.3403 14.4849 29.614 14.8405 29.9647 15.108M30.9748 13.7829L29.9647 15.108M30.9748 13.7829C30.9998 13.8029 31.1014 13.8629 31.4581 13.9279C31.8081 13.9912 32.2815 14.0379 32.9799 14.1079M29.9647 15.108C30.3147 15.3747 30.7431 15.4914 31.1648 15.5681C31.5931 15.6447 32.1448 15.7014 32.8148 15.7681L32.9799 14.1079M32.9799 14.1079C33.3299 14.1429 33.6332 14.1729 33.8832 14.2146C34.1486 14.2527 34.4062 14.3326 34.6466 14.4513M32.9799 14.1079L32.8132 15.7664C33.1865 15.8047 33.4249 15.8281 33.6082 15.8597C33.7025 15.8704 33.7946 15.8951 33.8816 15.9331M34.6466 14.4513L33.8816 15.9331M34.6466 14.4513C35.1839 14.7285 35.6025 15.1909 35.825 15.7531M33.8816 15.9331C34.0608 16.0252 34.2005 16.1792 34.2749 16.3665M35.825 15.7531L34.2749 16.3665M35.825 15.7531C35.9187 16.0037 35.9721 16.2675 35.9833 16.5348C36 16.7882 36 17.0932 36 17.4449M34.2749 16.3665C34.2883 16.4015 34.3083 16.4715 34.3199 16.6465C34.3329 16.913 34.3373 17.1798 34.3333 17.4466L36 17.4449M36 17.4449V19.5518M36 17.4449H34.3333V19.5518M36 19.5518H34.3333M36 19.5518C36 19.9035 36 20.2085 35.9833 20.4602C35.9667 20.7219 35.9283 20.9819 35.825 21.2419M34.3333 19.5518C34.3333 19.9251 34.3333 20.1652 34.3199 20.3502C34.3191 20.4452 34.3039 20.5397 34.2749 20.6302M35.825 21.2419L34.2749 20.6302M35.825 21.2419C35.6028 21.8047 35.1842 22.2678 34.6466 22.5454L33.8816 21.0636M34.2749 20.6302C34.2005 20.8175 34.0608 20.9714 33.8816 21.0636M33.8816 21.0636L34.6449 22.5471C34.3966 22.6737 34.1416 22.7387 33.8832 22.7804C33.6349 22.8221 33.3299 22.8537 32.9799 22.8887M33.8816 21.0636C33.7947 21.1017 33.7025 21.1264 33.6082 21.1369C33.4249 21.1686 33.1865 21.1919 32.8148 21.2303M32.9799 22.8887L32.8148 21.2303M32.9799 22.8887C32.2832 22.9571 31.8098 23.0054 31.4598 23.0688C31.1031 23.1321 31.0014 23.1938 30.9764 23.2138M32.8148 21.2303C32.1465 21.2969 31.5931 21.3503 31.1631 21.4286C30.7431 21.5036 30.3164 21.6203 29.9647 21.887M33.0349 22.8804L32.7598 21.2369M30.9764 23.2138L29.9647 21.887M30.9764 23.2138C30.8593 23.3028 30.7679 23.4213 30.7114 23.5571C30.6549 23.693 30.6353 23.8413 30.6547 23.9872M29.9647 21.887C29.6137 22.1547 29.3398 22.5105 29.1709 22.9183C29.002 23.3261 28.9441 23.7714 29.003 24.2089L30.6547 23.9872M30.6547 23.9872C30.6597 24.0172 30.6881 24.1339 30.8948 24.4306C31.197 24.8425 31.5133 25.2439 31.8431 25.634M31.8431 25.634L30.5531 26.6891M31.8431 25.634C32.0383 25.8659 32.2262 26.1038 32.4065 26.3474C32.5668 26.562 32.6922 26.8005 32.7782 27.0541M30.5531 26.6891C30.7898 26.9791 30.9414 27.1642 31.0481 27.3158C31.1074 27.3899 31.1551 27.4725 31.1898 27.5609M32.7782 27.0541L31.1898 27.5609M32.7782 27.0541C32.9626 27.6304 32.9318 28.254 32.6915 28.8093M31.1898 27.5609C31.2514 27.7529 31.2414 27.9608 31.1614 28.1459M32.6915 28.8093L31.1614 28.1459M32.6915 28.8093C32.5798 29.0677 32.4232 29.276 32.2498 29.4744C32.0831 29.6644 31.8681 29.8794 31.6198 30.1278M31.1614 28.1459C31.1178 28.2306 31.0616 28.3081 30.9948 28.3759C30.8155 28.5726 30.6304 28.7638 30.4397 28.9493M31.6198 30.1278L30.4397 28.9493M31.6198 30.1278L30.1297 31.6179L28.9513 30.4395M30.4397 28.9493L28.9513 30.4395M28.9513 30.4395L30.1297 31.6162C29.8797 31.8663 29.6647 32.083 29.4747 32.2496C29.2763 32.423 29.0663 32.578 28.8097 32.6897M28.9513 30.4395C28.6863 30.7045 28.5163 30.8728 28.378 30.9945C28.3096 31.0615 28.2315 31.1177 28.1463 31.1612M28.8097 32.6897L28.1463 31.1612M28.8097 32.6897C28.2546 32.9306 27.631 32.9619 27.0546 32.778M28.1463 31.1612C27.9616 31.2407 27.7544 31.2508 27.5629 31.1895M27.0546 32.778L27.5629 31.1895M27.0546 32.778C26.7879 32.693 26.5629 32.5563 26.3495 32.4047C26.1429 32.258 25.9079 32.0646 25.6345 31.8413M27.5629 31.1895C27.474 31.1551 27.3908 31.1073 27.3163 31.0479C27.103 30.8885 26.8946 30.7229 26.6912 30.5511M25.6345 31.8413L26.6912 30.5511M25.6345 31.8413C25.0928 31.3979 24.7228 31.0962 24.4311 30.8945C24.1344 30.6878 24.0178 30.6578 23.9878 30.6545M26.6912 30.5511C26.1695 30.1261 25.7412 29.7744 25.3828 29.5244C25.0328 29.281 24.6461 29.061 24.2094 29.0027M25.6428 31.8479L26.6829 30.5461M23.9878 30.6545L24.2094 29.0027M23.9878 30.6545C23.8421 30.6349 23.6938 30.6542 23.558 30.7104C23.4222 30.7666 23.3036 30.8577 23.2144 30.9745M24.2094 29.0027C23.7724 28.9439 23.3276 29.0017 22.9201 29.1703C22.5127 29.3389 22.157 29.6123 21.8893 29.9628M23.2144 30.9745L21.8893 29.9628M23.2144 30.9745C23.1944 30.9995 23.1344 31.1012 23.0694 31.4579C23.006 31.8079 22.9594 32.2813 22.8894 32.9797M21.8893 29.9628C21.6226 30.3128 21.506 30.7428 21.4293 31.1629C21.3526 31.5912 21.296 32.143 21.2293 32.813M22.8894 32.9797L21.2293 32.813M22.8894 32.9797C22.8544 33.3297 22.8244 33.6331 22.781 33.8831C22.7377 34.1415 22.6744 34.3965 22.546 34.6465M21.2293 32.813C21.2062 33.0789 21.1767 33.3441 21.1376 33.6081C21.127 33.7024 21.1023 33.7945 21.0643 33.8815M22.546 34.6465L21.0643 33.8815M22.546 34.6465C22.2689 35.1838 21.8064 35.6025 21.2443 35.825M21.0643 33.8815C20.9721 34.0607 20.8182 34.2004 20.6309 34.2748M21.2443 35.825L20.6309 34.2748M21.2443 35.825C20.9843 35.9283 20.7226 35.9667 20.4626 35.9833C20.2092 36 19.9042 36 19.5525 36M20.6309 34.2748C20.5404 34.3038 20.446 34.319 20.3509 34.3198C20.1676 34.3332 19.9259 34.3332 19.5509 34.3332M19.5525 36L19.5509 34.3332M19.5525 36H17.4458M19.5509 34.3332H17.4458M17.4458 36V34.3332M17.4458 36C17.0941 36 16.7891 36 16.5374 35.9833C16.2757 35.9667 16.0157 35.9283 15.754 35.825M17.4458 34.3332C17.0724 34.3332 16.8324 34.3332 16.6474 34.3198C16.5523 34.319 16.4579 34.3038 16.3674 34.2748M15.754 35.825L16.3674 34.2748M15.754 35.825C15.1919 35.6025 14.7295 35.1838 14.4523 34.6465M16.3674 34.2748C16.1801 34.2004 16.0262 34.0607 15.934 33.8815M14.4523 34.6465L15.934 33.8815M14.4523 34.6465C14.324 34.3965 14.259 34.1415 14.2156 33.8831C14.1756 33.6348 14.144 33.3297 14.109 32.9797M15.934 33.8815C15.896 33.7945 15.8713 33.7024 15.8607 33.6081C15.8217 33.3446 15.7905 33.08 15.7674 32.8147M14.109 32.9797L15.7674 32.8147M14.109 32.9797C14.039 32.283 13.9923 31.8079 13.9289 31.4579C13.8639 31.1012 13.8039 30.9995 13.7839 30.9745M15.7674 32.8147C15.7007 32.1463 15.6457 31.5929 15.569 31.1629C15.494 30.7428 15.3774 30.3145 15.109 29.9628M13.7839 30.9745L15.109 29.9628M13.7839 30.9745C13.6947 30.8577 13.5762 30.7666 13.4403 30.7104C13.3045 30.6542 13.1563 30.6349 13.0106 30.6545M15.109 29.9628C14.8415 29.612 14.486 29.34 14.0785 29.1711C13.671 29.0021 13.2261 28.944 12.7889 29.0027M13.0106 30.6545L12.7889 29.0027M13.0106 30.6545C12.9806 30.6578 12.8656 30.6878 12.5672 30.8945C12.2755 31.0962 11.9055 31.3979 11.3638 31.8429M12.7889 29.0027C12.3522 29.061 11.9672 29.281 11.6155 29.526C11.2572 29.7744 10.8288 30.1261 10.3071 30.5528M11.3638 31.8429L10.3071 30.5528M11.3638 31.8429C11.0905 32.0663 10.8555 32.2596 10.6488 32.4063C10.4354 32.558 10.2104 32.693 9.94376 32.778M10.3071 30.5528C10.1037 30.724 9.89528 30.8891 9.68208 31.0479C9.60753 31.1073 9.52435 31.1551 9.4354 31.1895M11.3888 31.8213L10.2821 30.5745M9.94376 32.778L9.4354 31.1895M9.4354 31.1895C9.2439 31.2508 9.03671 31.2407 8.85204 31.1612M8.85204 31.1612C8.7668 31.1177 8.68867 31.0615 8.62036 30.9945C8.4238 30.8152 8.2326 30.6301 8.047 30.4395M6.86861 31.6179L8.047 30.4395M6.86861 31.6179L5.38021 30.1294M8.047 30.4395L6.5586 28.951M5.38021 30.1294L6.5586 28.951M5.38021 30.1294C5.13186 29.8794 4.91519 29.6644 4.74851 29.4744C4.57517 29.276 4.4185 29.066 4.30682 28.8093M6.5586 28.951C6.3674 28.7654 6.18175 28.5742 6.0019 28.3776C5.93494 28.3093 5.87874 28.2311 5.83523 28.1459M4.30682 28.8093L5.83523 28.1459M4.30682 28.8093C4.06652 28.254 4.03572 27.6304 4.22015 27.0541M5.83523 28.1459C5.75518 27.9614 5.74619 27.7542 5.8069 27.5625M4.22015 27.0541L5.8069 27.5625M4.22015 27.0541C4.30628 26.8011 4.43171 26.5631 4.59184 26.3491C4.73851 26.1424 4.93185 25.9074 5.1552 25.634M5.8069 27.5625C5.84189 27.4735 5.89023 27.3903 5.95024 27.3158C6.05691 27.1658 6.20858 26.9791 6.44526 26.6908M5.1552 25.634L6.44526 26.6908M5.1552 25.634C5.60022 25.0923 5.90023 24.7223 6.10358 24.4306C6.31025 24.1322 6.33859 24.0172 6.34359 23.9872M6.44526 26.6908C6.87195 26.1691 7.22363 25.7407 7.47197 25.3823C7.71699 25.0323 7.937 24.6456 7.99533 24.2089M6.34359 23.9872L7.99533 24.2089M6.34359 23.9872C6.36319 23.8415 6.34391 23.6932 6.28771 23.5574C6.23151 23.4216 6.14038 23.303 6.02357 23.2138M7.99533 24.2089C8.05395 23.7717 7.99586 23.3267 7.82695 22.9192C7.65805 22.5117 7.38434 22.1562 7.03362 21.8887L6.02357 23.2138M2.35173 22.5454L3.11677 21.0636M2.35173 22.5454C1.81417 22.2678 1.3955 21.8047 1.17334 21.2419L2.72342 20.6302C2.79783 20.8175 2.93757 20.9714 3.11677 21.0636M1 19.5551V17.4482M1 19.5551H2.66675V17.4482M1 17.4482H2.66675M1 17.4482C1 17.0965 1 16.7915 1.01667 16.5398C1.02784 16.272 1.08128 16.0076 1.17501 15.7564M2.66675 17.4482C2.66675 17.0749 2.66675 16.8348 2.68008 16.6498C2.68088 16.5547 2.69606 16.4603 2.72508 16.3698M1.17501 15.7564L2.72508 16.3698M1.17501 15.7564C1.3975 15.1943 1.81614 14.7318 2.3534 14.4546M2.72508 16.3698C2.7995 16.1825 2.93924 16.0286 3.11843 15.9364M2.3534 14.4546L3.11843 15.9364M3.11843 15.9364C3.15177 15.9198 3.21844 15.8914 3.39178 15.8631C3.57512 15.8314 3.81347 15.8081 4.18515 15.7697M4.18515 15.7697C4.85352 15.7031 5.40854 15.6481 5.8369 15.5714C6.25858 15.4964 6.68694 15.3797 7.03695 15.1113M4.10348 14.1079V15.7747M6.02524 13.7862L7.03695 15.1113M6.02524 13.7862C6.14205 13.697 6.23317 13.5784 6.28937 13.4426C6.34558 13.3068 6.36486 13.1585 6.34525 13.0128M6.34525 13.0128C6.34025 12.9828 6.31359 12.8678 6.10691 12.5694C5.90357 12.2777 5.60189 11.9077 5.15686 11.3643M5.15686 11.3643L6.44693 10.3092M5.15686 11.3643C4.93352 11.0926 4.74018 10.8559 4.5935 10.6509C4.44183 10.4376 4.30516 10.2109 4.22182 9.94418M6.44693 10.3092C6.27574 10.1053 6.11066 9.89627 5.9519 9.68249C5.89204 9.60852 5.84371 9.52591 5.80856 9.43747M4.22182 9.94418L5.80856 9.43747M4.22182 9.94418C4.03781 9.36842 4.0686 8.74549 4.30849 8.19068M5.80856 9.43747C5.74785 9.24576 5.75851 9.03856 5.83856 8.85408M4.30849 8.19068L5.83856 8.85408M4.30849 8.19068C4.41926 7.94723 4.56776 7.72278 4.74851 7.52562C4.91519 7.33394 5.13186 7.11892 5.38188 6.87056M5.83856 8.85408C5.88219 8.76943 5.93839 8.69021 6.00524 8.62239C6.18379 8.42512 6.36891 8.23388 6.56026 8.049M5.38188 6.87056L6.56026 8.049M5.38188 6.87056L6.87028 5.38042M6.56026 8.049L8.04867 6.55886M6.87028 5.38042L8.04867 6.55886M6.87028 5.38042C7.11862 5.13039 7.3353 4.91537 7.52531 4.74869C7.72254 4.56804 7.94696 4.41955 8.19034 4.30865M8.04867 6.55886C8.31368 6.2955 8.48369 6.12549 8.62203 6.00381C8.75537 5.88713 8.81871 5.8538 8.85371 5.83713M8.19034 4.30865L8.85371 5.83713M8.19034 4.30865C8.74541 4.06778 9.36898 4.03639 9.94543 4.22031M8.85371 5.83713C9.03817 5.75707 9.24536 5.74808 9.43707 5.80879M9.94543 4.22031L9.43707 5.80879M9.94543 4.22031C10.1986 4.30687 10.4366 4.43288 10.6505 4.59368C10.8571 4.74036 11.0921 4.93371 11.3655 5.15706M9.43707 5.80879C9.52598 5.84328 9.60915 5.89105 9.68375 5.95047C9.83375 6.05882 10.0204 6.2105 10.3104 6.44719M11.3655 5.15706L10.3104 6.44719M11.3655 5.15706C11.7556 5.48751 12.1569 5.80272 12.5689 6.10549C12.8672 6.31217 12.9822 6.34051 13.0122 6.34551M10.3104 6.44719C10.8305 6.87389 11.2605 7.22559 11.6172 7.47395C11.9672 7.71731 12.3539 7.93733 12.7906 7.99733M13.0122 6.34551L12.7906 7.99733M13.0122 6.34551C13.1581 6.36492 13.3064 6.34539 13.4423 6.28888C13.5781 6.23238 13.6966 6.14093 13.7856 6.02381M12.7906 7.99733C13.2279 8.05645 13.673 7.99709 14.0808 7.82847C14.4886 7.65984 14.8445 7.38628 15.1123 7.03557M13.7856 6.02381L15.1123 7.03557M13.7856 6.02381C13.8056 5.99881 13.8656 5.89713 13.9306 5.54043C13.994 5.19207 14.0406 4.71702 14.1106 4.02029M15.1123 7.03557C15.379 6.68554 15.4957 6.25717 15.5707 5.83546C15.6474 5.40709 15.704 4.85537 15.7707 4.1853L14.1106 4.02029M14.1106 4.02029C14.1456 3.66859 14.1756 3.36689 14.2173 3.11687C14.2606 2.85851 14.3256 2.60349 14.454 2.35346M14.1106 4.02029L15.769 4.18697C15.7922 3.92107 15.8233 3.65592 15.8624 3.39189C15.8729 3.2976 15.8976 3.20543 15.9357 3.11853M14.454 2.35346L15.9357 3.11853M14.454 2.35346C14.7312 1.81525 15.1944 1.3976 15.7574 1.17502M15.9357 3.11853C16.0279 2.93933 16.1818 2.79958 16.3691 2.72516M15.7574 1.17502L16.3691 2.72516M15.7574 1.17502C16.0073 1.08092 16.2706 1.02746 16.5374 1.01667C16.7908 1 17.0958 1 17.4474 1M16.3691 2.72516C16.4596 2.69614 16.554 2.68096 16.6491 2.68016C16.8324 2.66683 17.0741 2.66683 17.4491 2.66683L17.4474 1M17.4474 1H19.5542M17.4474 1V2.66683H19.5542M19.5542 1V2.66683M19.5542 1C19.9059 1 20.2109 1 20.4626 1.01667C20.7304 1.02781 20.9948 1.08125 21.246 1.17502L20.6326 2.72516M19.5542 2.66683C19.9276 2.66683 20.1676 2.66683 20.3526 2.68016C20.4476 2.6815 20.5419 2.69666 20.6326 2.72516M20.6326 2.72516L21.2443 1.17502C21.807 1.39718 22.2701 1.81588 22.5477 2.35346L21.066 3.11853C20.9738 2.93933 20.8199 2.79958 20.6326 2.72516ZM24.3344 18.5C24.3344 20.0472 23.7198 21.5311 22.6258 22.6252C21.5318 23.7192 20.048 24.3339 18.5008 24.3339M24.3344 18.5H26.0012M24.3344 18.5C24.3344 16.9528 23.7198 15.4689 22.6258 14.3748C21.5318 13.2807 20.048 12.6661 18.5008 12.6661M18.5008 24.3339V26.0007M18.5008 24.3339C16.9537 24.3339 15.4699 23.7192 14.3758 22.6252C13.2818 21.5311 12.6672 20.0472 12.6672 18.5M18.5008 26.0007C20.4901 26.0007 22.3978 25.2105 23.8044 23.8038C25.211 22.3971 26.0012 20.4893 26.0012 18.5M18.5008 26.0007C16.5116 26.0007 14.6039 25.2105 13.1973 23.8038C11.7907 22.3971 11.0005 20.4893 11.0005 18.5M26.0012 18.5C26.0012 16.5107 25.211 14.6029 23.8044 13.1962C22.3978 11.7895 20.4901 10.9993 18.5008 10.9993M18.5008 12.6661V10.9993M18.5008 12.6661C16.9537 12.6661 15.4699 13.2807 14.3758 14.3748C13.2818 15.4689 12.6672 16.9528 12.6672 18.5M18.5008 10.9993C16.5116 10.9993 14.6039 11.7895 13.1973 13.1962C11.7907 14.6029 11.0005 16.5107 11.0005 18.5M12.6672 18.5H11.0005" stroke="white" stroke-width="1.5"/>
</svg>
