<svg width="9" height="5" viewBox="0 0 9 5" fill="none" xmlns="http://www.w3.org/2000/svg">
<path d="M0.450271 4.76837e-07H8.5505C8.63251 0.000191212 8.7129 0.0169754 8.78301 0.0485463C8.85312 0.0801172 8.91031 0.125279 8.9484 0.179171C8.9865 0.233063 9.00406 0.293644 8.99921 0.354393C8.99436 0.415143 8.96727 0.47376 8.92086 0.523935L4.87075 4.86501C4.70289 5.045 4.29878 5.045 4.13048 4.86501L0.0803605 0.523935C0.0334803 0.473865 0.00598872 0.415218 0.000872541 0.354367C-0.00424364 0.293517 0.0132113 0.23279 0.0513409 0.178783C0.0894705 0.124777 0.146816 0.0795579 0.217148 0.048038C0.28748 0.0165186 0.368108 -9.53674e-05 0.450271 4.76837e-07Z" fill="black"/>
</svg>
