<svg width="13" height="9" viewBox="0 0 13 9" fill="none" xmlns="http://www.w3.org/2000/svg">
<path d="M0.650391 1.90735e-06H12.3507C12.4692 0.00034523 12.5853 0.0305567 12.6866 0.0873842C12.7878 0.144212 12.8704 0.225503 12.9255 0.322508C12.9805 0.419514 13.0059 0.52856 12.9989 0.637909C12.9918 0.747257 12.9527 0.852768 12.8857 0.943084L7.03552 8.75702C6.79307 9.08099 6.20935 9.08099 5.96624 8.75702L0.116076 0.943084C0.0483604 0.852957 0.00865037 0.747393 0.00126034 0.637862C-0.0061297 0.528331 0.019083 0.419022 0.0741591 0.321811C0.129235 0.2246 0.212068 0.143205 0.313659 0.0864697C0.415249 0.0297337 0.531711 -0.000171661 0.650391 1.90735e-06Z" fill="#00401A"/>
</svg>
