<svg width="11" height="6" viewBox="0 0 11 6" fill="none" xmlns="http://www.w3.org/2000/svg">
<path d="M0.550331 4.76837e-07H10.4506C10.5508 0.000229836 10.6491 0.020371 10.7348 0.0582557C10.8205 0.0961409 10.8904 0.150335 10.9369 0.215005C10.9835 0.279675 11.005 0.352373 10.999 0.425272C10.9931 0.498171 10.96 0.568511 10.9033 0.628722L5.95314 5.83801C5.74798 6.054 5.25407 6.054 5.04836 5.83801L0.0982183 0.628722C0.0409204 0.568637 0.00731955 0.498261 0.00106644 0.425241C-0.00518667 0.352221 0.0161471 0.279348 0.06275 0.21454C0.109353 0.149733 0.179442 0.0954695 0.265403 0.0576458C0.351364 0.0198226 0.449909 -0.000114441 0.550331 4.76837e-07Z" fill="#7B7676"/>
</svg>
