<svg width="27" height="27" viewBox="0 0 27 27" fill="none" xmlns="http://www.w3.org/2000/svg">
<path fill-rule="evenodd" clip-rule="evenodd" d="M1.19417 0.42562C1.46705 0.153082 1.83695 0 2.22262 0C2.60829 0 2.97818 0.153082 3.25106 0.42562L26.5366 23.7111C26.6796 23.8444 26.7942 24.005 26.8738 24.1836C26.9533 24.3621 26.9961 24.5548 26.9995 24.7502C27.003 24.9456 26.9671 25.1397 26.8939 25.3209C26.8207 25.5021 26.7117 25.6668 26.5735 25.805C26.4353 25.9432 26.2707 26.0521 26.0895 26.1253C25.9083 26.1985 25.7142 26.2344 25.5188 26.231C25.3233 26.2275 25.1306 26.1848 24.9521 26.1052C24.7736 26.0257 24.6129 25.911 24.4797 25.768L1.19417 2.48251C0.921636 2.20963 0.768555 1.83973 0.768555 1.45406C0.768555 1.0684 0.921636 0.698498 1.19417 0.42562Z" fill="white"/>
<path fill-rule="evenodd" clip-rule="evenodd" d="M26.5367 0.42562C26.8092 0.698498 26.9623 1.0684 26.9623 1.45406C26.9623 1.83973 26.8092 2.20963 26.5367 2.48251L3.2512 25.768C2.97531 26.0251 2.61041 26.165 2.23338 26.1584C1.85635 26.1517 1.49662 25.999 1.22997 25.7324C0.963327 25.4657 0.81059 25.106 0.803938 24.7289C0.797285 24.3519 0.937237 23.987 1.19431 23.7111L24.4798 0.42562C24.7527 0.153082 25.1226 0 25.5083 0C25.8939 0 26.2638 0.153082 26.5367 0.42562Z" fill="white"/>
</svg>
