<svg width="27" height="24" viewBox="0 0 27 24" fill="none" xmlns="http://www.w3.org/2000/svg">
<path d="M7.12708 23.1397C6.3717 23.1397 5.68077 22.7141 5.34093 22.0395L0.738456 12.9035C0.453325 12.3375 0.453325 11.6699 0.738456 11.1039L5.34093 1.96786C5.68077 1.29326 6.3717 0.867676 7.12708 0.867676H19.4633C20.2134 0.867676 20.9005 1.28743 21.2429 1.95489L25.929 11.0909C26.2229 11.6639 26.2229 12.3435 25.929 12.9165L21.2429 22.0525C20.9005 22.72 20.2134 23.1397 19.4633 23.1397H7.12708Z" fill="white"/>
<path d="M14.8198 12.9144H19.2047C19.5964 12.9144 19.9721 12.7588 20.2491 12.4818L19.8955 12.1282L20.2491 12.4818C20.526 12.2048 20.6817 11.8291 20.6817 11.4374C20.6817 11.0457 20.526 10.67 20.2491 10.393C19.9721 10.116 19.5964 9.9604 19.2047 9.9604H14.8198V5.57549C14.8198 5.18377 14.6642 4.8081 14.3872 4.53111L14.0364 4.88188L14.3872 4.53111C14.1102 4.25412 13.7345 4.09851 13.3428 4.09851C12.9511 4.09851 12.5754 4.25412 12.2984 4.53111C12.0214 4.8081 11.8658 5.18377 11.8658 5.57549V9.9604H7.48089C7.08917 9.9604 6.71349 10.116 6.4365 10.393C6.15952 10.67 6.00391 11.0457 6.00391 11.4374C6.00391 11.8291 6.15952 12.2048 6.4365 12.4818L6.78867 12.1296L6.4365 12.4818C6.71349 12.7588 7.08917 12.9144 7.48089 12.9144H11.8658V17.2993C11.8658 17.691 12.0214 18.0667 12.2984 18.3437C12.5754 18.6206 12.9511 18.7763 13.3428 18.7763C13.7345 18.7763 14.1102 18.6206 14.3872 18.3437C14.6642 18.0667 14.8198 17.691 14.8198 17.2993V12.9144Z" fill="#CC4125" stroke="#CC4125"/>
</svg>
