<svg width="53" height="55" viewBox="0 0 53 55" fill="none" xmlns="http://www.w3.org/2000/svg">
<path d="M19.127 38.3801L4.5391 39.5813L5.3934 47.9532C5.47447 48.7477 5.61572 49.5516 6.03344 50.2323C7.61972 52.8172 11.0502 53.9027 13.2839 53.5823C16.912 53.0618 18.6439 51.1863 19.4776 49.592C20.018 48.5584 20.0428 47.3545 19.9244 46.1943L19.127 38.3801Z" fill="#8F8F8F" stroke="#8F8F8F"/>
<path d="M3.20861 8.01158C-0.791393 17.6116 1.54194 29.0116 3.20861 33.5116L18.2086 32.0116C18.7254 32.0116 19.409 30.4818 19.9631 28.9044C20.516 27.3303 20.8169 25.6779 20.9075 24.0119C21.2616 17.4996 20.3009 12.0847 19.7086 10.0116C17.3086 2.41158 13.042 0.844913 11.2086 1.01158C6.80862 1.41158 4.04194 5.84491 3.20861 8.01158Z" fill="#8F8F8F" stroke="#8F8F8F"/>
<path d="M33.8568 38.3801L48.4447 39.5813L47.5904 47.9532C47.5093 48.7477 47.368 49.5516 46.9503 50.2323C45.364 52.8172 41.9335 53.9027 39.6999 53.5823C36.0718 53.0618 34.3399 51.1863 33.5062 49.592C32.9657 48.5584 32.941 47.3545 33.0594 46.1943L33.8568 38.3801Z" fill="#00985F" stroke="#00985F"/>
<path d="M49.7752 8.01158C53.7752 17.6116 51.4418 29.0116 49.7752 33.5116L34.7751 32.0116C34.2584 32.0116 33.5748 30.4818 33.0207 28.9044C32.4678 27.3303 32.1669 25.6779 32.0763 24.0119C31.7221 17.4996 32.6828 12.0847 33.2751 10.0116C35.6751 2.41158 39.9418 0.844913 41.7751 1.01158C46.1751 1.41158 48.9418 5.84491 49.7752 8.01158Z" fill="#00985F" stroke="#00985F"/>
</svg>
