<svg width="22" height="25" viewBox="0 0 22 25" fill="none" xmlns="http://www.w3.org/2000/svg">
<path d="M8.66667 22.5002H13.3333C13.3333 23.7835 12.2833 24.8335 11 24.8335C9.71667 24.8335 8.66667 23.7835 8.66667 22.5002ZM21.5 20.1668V21.3335H0.5V20.1668L2.83333 17.8335V10.8335C2.83333 7.21683 5.16667 4.06683 8.66667 3.01683V2.66683C8.66667 1.3835 9.71667 0.333496 11 0.333496C12.2833 0.333496 13.3333 1.3835 13.3333 2.66683V3.01683C16.8333 4.06683 19.1667 7.21683 19.1667 10.8335V17.8335L21.5 20.1668ZM16.8333 10.8335C16.8333 7.56683 14.2667 5.00016 11 5.00016C7.73333 5.00016 5.16667 7.56683 5.16667 10.8335V19.0002H16.8333V10.8335Z" fill="#7B7676"/>
</svg>
