<svg width="18" height="18" viewBox="0 0 18 18" fill="none" xmlns="http://www.w3.org/2000/svg">
<path d="M11.6569 1.95258C12.7637 3.03284 13.4565 4.45084 13.6193 5.96938C13.7614 7.29488 13.4922 8.62681 12.8536 9.7953C12.6948 10.0859 12.7266 10.481 12.9983 10.6702C13.2468 10.864 13.5821 11.1061 14.0044 11.3846C14.4267 11.6752 14.7 11.8568 14.8242 11.9537C15.3459 12.329 15.7309 12.6438 15.9917 12.8981C16.3892 13.2855 16.737 13.6851 17.0351 14.1089C17.3456 14.5326 17.5816 14.9443 17.7679 15.3681C17.9418 15.7919 18.0287 16.1914 17.9915 16.5789C17.9666 16.9663 17.8176 17.2932 17.5443 17.5596C17.2711 17.826 16.9357 17.9713 16.5383 17.9955C16.1532 18.0197 15.7309 17.9471 15.3086 17.7654C14.8739 17.5959 14.4391 17.3538 14.0168 17.0511C13.5821 16.7605 13.1722 16.4215 12.7748 16.034C12.5139 15.7797 12.191 15.4044 11.8184 14.908C11.6942 14.7506 11.5078 14.4842 11.2346 14.1089C10.9613 13.7214 10.7378 13.4187 10.539 13.1645C10.5177 13.1384 10.4967 13.1131 10.4761 13.0884C10.2017 12.7589 9.73781 12.6971 9.33777 12.8515C8.21678 13.2841 6.99392 13.4215 5.79357 13.2435C4.35487 13.03 3.02359 12.3746 1.99353 11.3725C-0.664511 8.7693 -0.664511 4.54366 1.99353 1.95258C2.62777 1.33358 3.38094 0.842528 4.21 0.507489C5.03906 0.17245 5.92774 0 6.82521 0C7.72269 0 8.61137 0.17245 9.44042 0.507489C10.2695 0.842528 11.0227 1.33358 11.6569 1.95258ZM9.90556 9.65317C10.717 8.8564 11.1724 7.77921 11.1724 6.65648C11.1724 5.53375 10.717 4.45656 9.90556 3.65979C9.50229 3.26551 9.02317 2.95268 8.49565 2.73923C7.96813 2.52578 7.40258 2.41591 6.83142 2.41591C6.26026 2.41591 5.69472 2.52578 5.1672 2.73923C4.63968 2.95268 4.16055 3.26551 3.75728 3.65979C3.35281 4.0529 3.0319 4.51995 2.81294 5.03418C2.59397 5.54841 2.48126 6.09971 2.48126 6.65648C2.48126 7.21325 2.59397 7.76455 2.81294 8.27878C3.0319 8.79301 3.35281 9.26006 3.75728 9.65317C4.16055 10.0475 4.63968 10.3603 5.1672 10.5737C5.69472 10.7872 6.26026 10.897 6.83142 10.897C7.40258 10.897 7.96813 10.7872 8.49565 10.5737C9.02317 10.3603 9.50229 10.0475 9.90556 9.65317Z" fill="white"/>
</svg>
